<?xml version="1.0" encoding="UTF-8" standalone="no"?>
<svg
   xmlns:dc="http://purl.org/dc/elements/1.1/"
   xmlns:cc="http://creativecommons.org/ns#"
   xmlns:rdf="http://www.w3.org/1999/02/22-rdf-syntax-ns#"
   xmlns:svg="http://www.w3.org/2000/svg"
   xmlns="http://www.w3.org/2000/svg"
   xmlns:sodipodi="http://sodipodi.sourceforge.net/DTD/sodipodi-0.dtd"
   xmlns:inkscape="http://www.inkscape.org/namespaces/inkscape"
   viewBox="0 0 497.74 108.92"
   version="1.1"
   id="svg3104"
   sodipodi:docname="Ginatricot logo.svg"
   inkscape:version="0.92.4 (5da689c313, 2019-01-14)">
  <metadata
     id="metadata3108">
    <rdf:RDF>
      <cc:Work
         rdf:about="">
        <dc:format>image/svg+xml</dc:format>
        <dc:type
           rdf:resource="http://purl.org/dc/dcmitype/StillImage" />
        <dc:title>ginatricot-logo</dc:title>
      </cc:Work>
    </rdf:RDF>
  </metadata>
  <sodipodi:namedview
     pagecolor="#ffffff"
     bordercolor="#666666"
     borderopacity="1"
     objecttolerance="10"
     gridtolerance="10"
     guidetolerance="10"
     inkscape:pageopacity="0"
     inkscape:pageshadow="2"
     inkscape:window-width="1366"
     inkscape:window-height="705"
     id="namedview3106"
     showgrid="false"
     inkscape:zoom="1.7047618"
     inkscape:cx="219.89516"
     inkscape:cy="54.480003"
     inkscape:window-x="-8"
     inkscape:window-y="-8"
     inkscape:window-maximized="1"
     inkscape:current-layer="svg3104" />
  <defs
     id="defs3080">
    <style
       id="style3078">.logo .cls-1{fill:#1d1d1b;}</style>
  </defs>
  <title
     id="title3082">ginatricot-logo</title>
  <path
     class="cls-1"
     d="M207.61,304c8.81,0,9.78-8.45,9.78-15.46S214,276.25,207,276.25c-6.76,0-10.14,5.79-10.14,12.44,0,7.12,2.17,15.33,10.75,15.33m33.08,11c0,12.44-3.26,29.94-32.6,29.94-14.85,0-30.54-4-32.71-20.88H199a15.69,15.69,0,0,0,1.33,2.17c1.45,2.17,4,4.59,7,4.59,7.73,0,9.42-9.18,9.42-14.37v-5.8h-0.24a19.72,19.72,0,0,1-16.78,8.69c-18.47,0-26.8-13.76-26.8-30.54,0-16.3,9.3-29.94,27.17-29.94,7,0,13.64,2.78,16.42,9.17h0.24v-7.6h23.9V315Z"
     id="path3084"
     transform="translate(-172.96 -236.03)" />
  <path
     class="cls-1"
     d="M250,236.9h23.91v16.78H250V236.9Zm0,23.54h23.91v62.66H250V260.44Z"
     id="path3086"
     transform="translate(-172.96 -236.03)" />
  <path
     class="cls-1"
     d="M283.28,260.44h23.06v8h0.24c4.47-6.28,10.87-9.54,20.41-9.54,11.23,0,21.49,6.88,21.49,21.25v43H324.57V290.26c0-7.24-.84-12.32-7.85-12.32-4.1,0-9.54,2.05-9.54,12.08v33.08h-23.9V260.44"
     id="path3088"
     transform="translate(-172.96 -236.03)" />
  <path
     class="cls-1"
     d="M396,295a41,41,0,0,1-9.41,3c-5.32,1.21-8.09,2.54-8.09,6.76,0,2.9,3.14,5.8,7.48,5.8,5.43,0,9.66-3.26,10-9.78V295M419,309.09c0,4.71.24,10,2.9,14H397.49a16.59,16.59,0,0,1-.84-5.92h-0.24c-5.07,5.8-12.44,7.48-20.16,7.48-12.07,0-22.09-5.79-22.09-19,0-19.8,23.18-19.07,35.37-21.37,3.26-.6,6.52-1.57,6.52-5.55,0-4.23-4-5.8-7.85-5.8-7.36,0-8.81,3.74-8.93,6.4H357c0.73-17.62,17.39-20.52,32.24-20.52,29.94,0,29.7,12.43,29.7,24.51v25.72Z"
     id="path3090"
     transform="translate(-172.96 -236.03)" />
  <path
     class="cls-1"
     d="M441.62,260.17h12.8v6.46h-12.8v42.44c0,5,.73,7.93,6.22,8.29a59.07,59.07,0,0,0,6.59-.37v6.59c-2.32,0-4.51.24-6.83,0.24-10.24,0-13.78-3.41-13.65-14.15v-43H423v-6.46h11v-18.9h7.68v18.9"
     id="path3092"
     transform="translate(-172.96 -236.03)" />
  <path
     class="cls-1"
     d="M463.07,260.17h7.07v14.76h0.24c3.91-10.12,12.44-16.1,23.78-15.61V267c-13.9-.73-23.41,9.51-23.41,22.56v33.54h-7.68V260.17"
     id="path3094"
     transform="translate(-172.96 -236.03)" />
  <path
     class="cls-1"
     d="M501.6,236h7.68v12.32H501.6V236Zm0,24.14h7.68v62.92H501.6V260.17Z"
     id="path3096"
     transform="translate(-172.96 -236.03)" />
  <path
     class="cls-1"
     d="M565.36,279.93c-2.07-9.39-7.8-15.12-17.8-15.12-14.75,0-22.07,13.41-22.07,26.82s7.32,26.83,22.07,26.83c9.52,0,17.32-7.44,18.29-17.92h7.68c-2.08,15.12-11.95,24.39-26,24.39-19.27,0-29.75-15.24-29.75-33.29s10.49-33.29,29.75-33.29c13.41,0,23.78,7.19,25.49,21.59h-7.68"
     id="path3098"
     transform="translate(-172.96 -236.03)" />
  <path
     class="cls-1"
     d="M587.29,291.63c0,13.41,7.32,26.83,22.07,26.83s22.07-13.41,22.07-26.83-7.32-26.82-22.07-26.82-22.07,13.41-22.07,26.82m51.82,0c0,18-10.49,33.29-29.75,33.29s-29.76-15.24-29.76-33.29,10.49-33.29,29.76-33.29S639.11,273.59,639.11,291.63Z"
     id="path3100"
     transform="translate(-172.96 -236.03)" />
  <path
     class="cls-1"
     d="M657.89,260.17h12.8v6.46h-12.8v42.44c0,5,.73,7.93,6.22,8.29a59.07,59.07,0,0,0,6.59-.37v6.59c-2.32,0-4.52.24-6.83,0.24-10.25,0-13.78-3.41-13.66-14.15v-43h-11v-6.46h11v-18.9h7.68v18.9"
     id="path3102"
     transform="translate(-172.96 -236.03)" />
</svg>
