<?xml version="1.0" encoding="UTF-8"?>
<svg id="Layer_1" data-name="Layer 1" xmlns="http://www.w3.org/2000/svg" version="1.1" viewBox="0 0 2000 1200">
  <defs>
    <style>
      .cls-1, .cls-2, .cls-3, .cls-4, .cls-5, .cls-6, .cls-7, .cls-8, .cls-9, .cls-10, .cls-11, .cls-12, .cls-13, .cls-14, .cls-15, .cls-16, .cls-17, .cls-18, .cls-19 {
        stroke: #231f20;
        stroke-miterlimit: 10;
      }

      .cls-1, .cls-20, .cls-12 {
        fill: #e1e8ef;
      }

      .cls-1, .cls-12 {
        opacity: .78;
      }

      .cls-2 {
        fill: #525759;
      }

      .cls-21 {
        fill: #3a3a3a;
      }

      .cls-21, .cls-22, .cls-23, .cls-24, .cls-25, .cls-26, .cls-20, .cls-27, .cls-28, .cls-29, .cls-30, .cls-31, .cls-32 {
        stroke-width: 0px;
      }

      .cls-3 {
        fill: #7f7f7f;
      }

      .cls-22 {
        fill: #aa9379;
      }

      .cls-4 {
        fill: #a3a5a7;
      }

      .cls-5 {
        fill: #839baa;
      }

      .cls-6 {
        fill: #8aacc6;
      }

      .cls-23 {
        fill: #fce6d6;
      }

      .cls-7 {
        fill: #4d6472;
      }

      .cls-24 {
        fill: #1d90a3;
      }

      .cls-8 {
        fill: #a2bccc;
      }

      .cls-25 {
        fill: #91ca68;
      }

      .cls-9 {
        fill: #778389;
      }

      .cls-10 {
        fill: #a5a4a4;
      }

      .cls-26 {
        fill: #6698d0;
      }

      .cls-11 {
        fill: #657f8c;
      }

      .cls-27 {
        fill: #fdd7ae;
      }

      .cls-28 {
        fill: #6f577c;
      }

      .cls-29 {
        fill: #444545;
      }

      .cls-12 {
        stroke-width: .25px;
      }

      .cls-33 {
        opacity: .73;
      }

      .cls-13 {
        fill: #4a4b4d;
      }

      .cls-30 {
        fill: #db464c;
      }

      .cls-14 {
        fill: #a4b2bc;
      }

      .cls-31 {
        fill: #577f60;
      }

      .cls-15 {
        fill: #282828;
      }

      .cls-16 {
        fill: #e4ded0;
      }

      .cls-17 {
        fill: #8f9eaa;
      }

      .cls-32 {
        fill: #534f57;
      }

      .cls-18 {
        fill: #8099a8;
      }

      .cls-19 {
        fill: #63625f;
      }
    </style>
  </defs>
  <g>
    <rect class="cls-13" x="1860.89" y="301.83" width="27.9" height="46.96"/>
    <g>
      <rect class="cls-13" x="1182.67" y="351.84" width="27.9" height="46.96"/>
      <g>
        <g>
          <polygon class="cls-8" points="1146.61 797.76 975.79 797.76 975.79 445.58 1146.61 336.77 1146.61 797.76"/>
          <rect class="cls-12" x="1004.45" y="463.68" width="113.49" height="37.44" transform="translate(2122.4 964.81) rotate(-180)"/>
          <rect class="cls-12" x="1004.45" y="648.58" width="113.49" height="37.44" transform="translate(2122.4 1334.6) rotate(-180)"/>
          <rect class="cls-12" x="1004.45" y="589.79" width="113.49" height="37.44" transform="translate(2122.4 1217.01) rotate(-180)"/>
          <rect class="cls-12" x="1004.45" y="525.11" width="113.49" height="37.44" transform="translate(2122.4 1087.66) rotate(-180)"/>
          <rect class="cls-12" x="1004.45" y="715.89" width="113.49" height="37.44" transform="translate(2122.4 1469.22) rotate(-180)"/>
        </g>
        <g>
          <rect class="cls-4" x="1109.74" y="386.49" width="154.44" height="361.54" transform="translate(2373.92 1134.53) rotate(-180)"/>
          <rect class="cls-12" x="1130.22" y="413.4" width="113.49" height="37.44" transform="translate(2373.92 864.25) rotate(-180)"/>
          <rect class="cls-12" x="1130.22" y="467.23" width="113.49" height="37.44" transform="translate(2373.92 971.89) rotate(-180)"/>
          <rect class="cls-12" x="1130.22" y="521.05" width="113.49" height="37.44" transform="translate(2373.92 1079.53) rotate(-180)"/>
          <rect class="cls-12" x="1130.22" y="682.51" width="113.49" height="37.44" transform="translate(2373.92 1402.46) rotate(-180)"/>
          <rect class="cls-12" x="1130.22" y="628.69" width="113.49" height="37.44" transform="translate(2373.92 1294.82) rotate(-180)"/>
          <rect class="cls-12" x="1130.22" y="574.87" width="113.49" height="37.44" transform="translate(2373.92 1187.18) rotate(-180)"/>
        </g>
        <g>
          <rect class="cls-7" x="1752.98" y="343.79" width="150.93" height="277.36" transform="translate(3656.89 964.94) rotate(-180)"/>
          <rect class="cls-12" x="1772.99" y="364.43" width="110.91" height="28.72" transform="translate(3656.89 757.59) rotate(-180)"/>
          <rect class="cls-12" x="1772.99" y="405.72" width="110.91" height="28.72" transform="translate(3656.89 840.17) rotate(-180)"/>
          <rect class="cls-12" x="1772.99" y="447.01" width="110.91" height="28.72" transform="translate(3656.89 922.75) rotate(-180)"/>
          <rect class="cls-12" x="1772.99" y="570.88" width="110.91" height="28.72" transform="translate(3656.89 1170.49) rotate(-180)"/>
          <rect class="cls-12" x="1772.99" y="529.59" width="110.91" height="28.72" transform="translate(3656.89 1087.91) rotate(-180)"/>
          <rect class="cls-12" x="1772.99" y="488.3" width="110.91" height="28.72" transform="translate(3656.89 1005.33) rotate(-180)"/>
        </g>
        <g>
          <rect class="cls-2" x="1236.7" y="344.99" width="219.96" height="361.54" transform="translate(2693.37 1051.52) rotate(-180)"/>
          <rect class="cls-12" x="1265.87" y="371.9" width="161.64" height="37.44" transform="translate(2693.37 781.24) rotate(-180)"/>
          <rect class="cls-12" x="1265.87" y="425.72" width="161.64" height="37.44" transform="translate(2693.37 888.88) rotate(-180)"/>
          <rect class="cls-12" x="1265.87" y="479.54" width="161.64" height="37.44" transform="translate(2693.37 996.53) rotate(-180)"/>
          <rect class="cls-12" x="1265.87" y="641.01" width="161.64" height="37.44" transform="translate(2693.37 1319.45) rotate(-180)"/>
          <rect class="cls-12" x="1265.87" y="587.19" width="161.64" height="37.44" transform="translate(2693.37 1211.81) rotate(-180)"/>
          <rect class="cls-12" x="1265.87" y="533.36" width="161.64" height="37.44" transform="translate(2693.37 1104.17) rotate(-180)"/>
        </g>
        <g>
          <polygon class="cls-11" points="1616 821.19 1445.17 821.19 1445.17 469.01 1616 360.2 1616 821.19"/>
          <rect class="cls-12" x="1473.84" y="487.12" width="113.49" height="37.44" transform="translate(3061.17 1011.67) rotate(-180)"/>
          <rect class="cls-12" x="1473.84" y="672.01" width="113.49" height="37.44" transform="translate(3061.17 1381.47) rotate(-180)"/>
          <rect class="cls-12" x="1473.84" y="613.22" width="113.49" height="37.44" transform="translate(3061.17 1263.88) rotate(-180)"/>
          <rect class="cls-12" x="1473.84" y="548.54" width="113.49" height="37.44" transform="translate(3061.17 1134.53) rotate(-180)"/>
          <rect class="cls-12" x="1473.84" y="739.32" width="113.49" height="37.44" transform="translate(3061.17 1516.08) rotate(-180)"/>
        </g>
        <g>
          <rect class="cls-14" x="1604.38" y="452.34" width="177.6" height="291.91" transform="translate(3386.37 1196.6) rotate(-180)"/>
          <rect class="cls-12" x="1627.93" y="474.07" width="130.51" height="30.23" transform="translate(3386.37 978.37) rotate(-180)"/>
          <rect class="cls-12" x="1627.93" y="517.53" width="130.51" height="30.23" transform="translate(3386.37 1065.29) rotate(-180)"/>
          <rect class="cls-12" x="1627.93" y="560.98" width="130.51" height="30.23" transform="translate(3386.37 1152.2) rotate(-180)"/>
          <rect class="cls-12" x="1627.93" y="691.35" width="130.51" height="30.23" transform="translate(3386.37 1412.94) rotate(-180)"/>
          <rect class="cls-12" x="1627.93" y="647.9" width="130.51" height="30.23" transform="translate(3386.37 1326.03) rotate(-180)"/>
          <rect class="cls-12" x="1627.93" y="604.44" width="130.51" height="30.23" transform="translate(3386.37 1239.11) rotate(-180)"/>
        </g>
        <g>
          <rect class="cls-6" x="1854.37" y="432.45" width="154.44" height="361.54" transform="translate(3863.17 1226.44) rotate(-180)"/>
          <rect class="cls-12" x="1874.84" y="459.36" width="113.49" height="37.44" transform="translate(3863.17 956.16) rotate(-180)"/>
          <rect class="cls-12" x="1874.84" y="513.18" width="113.49" height="37.44" transform="translate(3863.17 1063.8) rotate(-180)"/>
          <rect class="cls-12" x="1874.84" y="567" width="113.49" height="37.44" transform="translate(3863.17 1171.45) rotate(-180)"/>
          <rect class="cls-12" x="1874.84" y="728.47" width="113.49" height="37.44" transform="translate(3863.17 1494.37) rotate(-180)"/>
          <rect class="cls-12" x="1874.84" y="674.64" width="113.49" height="37.44" transform="translate(3863.17 1386.73) rotate(-180)"/>
          <rect class="cls-12" x="1874.84" y="620.82" width="113.49" height="37.44" transform="translate(3863.17 1279.09) rotate(-180)"/>
        </g>
      </g>
    </g>
  </g>
  <g>
    <rect class="cls-13" x="147.64" y="222.59" width="32.04" height="53.94"/>
    <g>
      <g>
        <polygon class="cls-8" points="887.75 710.55 1058.57 710.55 1058.57 358.38 887.75 249.56 887.75 710.55"/>
        <rect class="cls-12" x="916.42" y="376.48" width="113.49" height="37.44"/>
        <rect class="cls-12" x="916.42" y="561.37" width="113.49" height="37.44"/>
        <rect class="cls-12" x="916.42" y="502.58" width="113.49" height="37.44"/>
        <rect class="cls-12" x="916.42" y="437.9" width="113.49" height="37.44"/>
        <rect class="cls-12" x="916.42" y="628.68" width="113.49" height="37.44"/>
      </g>
      <g>
        <rect class="cls-4" x="770.18" y="299.29" width="154.44" height="361.54"/>
        <rect class="cls-12" x="790.65" y="326.2" width="113.49" height="37.44"/>
        <rect class="cls-12" x="790.65" y="380.02" width="113.49" height="37.44"/>
        <rect class="cls-12" x="790.65" y="433.84" width="113.49" height="37.44"/>
        <rect class="cls-12" x="790.65" y="595.31" width="113.49" height="37.44"/>
        <rect class="cls-12" x="790.65" y="541.48" width="113.49" height="37.44"/>
        <rect class="cls-12" x="790.65" y="487.66" width="113.49" height="37.44"/>
      </g>
      <g>
        <rect class="cls-7" x="130.45" y="256.58" width="150.93" height="277.36"/>
        <rect class="cls-12" x="150.46" y="277.23" width="110.91" height="28.72"/>
        <rect class="cls-12" x="150.46" y="318.52" width="110.91" height="28.72"/>
        <rect class="cls-12" x="150.46" y="359.81" width="110.91" height="28.72"/>
        <rect class="cls-12" x="150.46" y="483.68" width="110.91" height="28.72"/>
        <rect class="cls-12" x="150.46" y="442.39" width="110.91" height="28.72"/>
        <rect class="cls-12" x="150.46" y="401.1" width="110.91" height="28.72"/>
      </g>
      <g>
        <rect class="cls-2" x="577.69" y="257.79" width="219.96" height="361.54"/>
        <rect class="cls-12" x="606.85" y="284.7" width="161.64" height="37.44"/>
        <rect class="cls-12" x="606.85" y="338.52" width="161.64" height="37.44"/>
        <rect class="cls-12" x="606.85" y="392.34" width="161.64" height="37.44"/>
        <rect class="cls-12" x="606.85" y="553.8" width="161.64" height="37.44"/>
        <rect class="cls-12" x="606.85" y="499.98" width="161.64" height="37.44"/>
        <rect class="cls-12" x="606.85" y="446.16" width="161.64" height="37.44"/>
      </g>
      <g>
        <polygon class="cls-11" points="418.36 733.99 589.19 733.99 589.19 381.81 418.36 273 418.36 733.99"/>
        <rect class="cls-12" x="447.03" y="399.91" width="113.49" height="37.44"/>
        <rect class="cls-12" x="447.03" y="584.81" width="113.49" height="37.44"/>
        <rect class="cls-12" x="447.03" y="526.01" width="113.49" height="37.44"/>
        <rect class="cls-12" x="447.03" y="461.34" width="113.49" height="37.44"/>
        <rect class="cls-12" x="447.03" y="652.12" width="113.49" height="37.44"/>
      </g>
      <g>
        <rect class="cls-14" x="252.37" y="365.14" width="177.6" height="291.91"/>
        <rect class="cls-12" x="275.92" y="386.87" width="130.51" height="30.23"/>
        <rect class="cls-12" x="275.92" y="430.32" width="130.51" height="30.23"/>
        <rect class="cls-12" x="275.92" y="473.78" width="130.51" height="30.23"/>
        <rect class="cls-12" x="275.92" y="604.15" width="130.51" height="30.23"/>
        <rect class="cls-12" x="275.92" y="560.69" width="130.51" height="30.23"/>
        <rect class="cls-12" x="275.92" y="517.24" width="130.51" height="30.23"/>
      </g>
      <g>
        <rect class="cls-6" x="25.55" y="345.24" width="154.44" height="361.54"/>
        <rect class="cls-12" x="46.03" y="372.16" width="113.49" height="37.44"/>
        <rect class="cls-12" x="46.03" y="425.98" width="113.49" height="37.44"/>
        <rect class="cls-12" x="46.03" y="479.8" width="113.49" height="37.44"/>
        <rect class="cls-12" x="46.03" y="641.26" width="113.49" height="37.44"/>
        <rect class="cls-12" x="46.03" y="587.44" width="113.49" height="37.44"/>
        <rect class="cls-12" x="46.03" y="533.62" width="113.49" height="37.44"/>
      </g>
    </g>
  </g>
  <g>
    <rect class="cls-6" x="571.01" y="355.29" width="402.63" height="402.63"/>
    <rect class="cls-8" x="621.22" y="395.65" width="107.61" height="84.29"/>
    <rect class="cls-8" x="820.3" y="656.59" width="107.61" height="84.29"/>
    <rect class="cls-8" x="621.22" y="656.59" width="107.61" height="84.29"/>
    <rect class="cls-8" x="820.3" y="520.29" width="107.61" height="84.29"/>
    <rect class="cls-8" x="621.22" y="520.29" width="107.61" height="84.29"/>
    <rect class="cls-8" x="820.3" y="395.65" width="107.61" height="84.29"/>
  </g>
  <g>
    <polyline class="cls-8" points="503.54 1208.49 185.79 1208.49 185.79 553.4 503.54 351"/>
    <polyline class="cls-12" points="450.22 587.08 239.11 587.08 239.11 656.72 450.22 656.72"/>
    <polyline class="cls-12" points="450.22 931.01 239.11 931.01 239.11 1000.65 450.22 1000.65"/>
    <polyline class="cls-12" points="450.22 821.64 239.11 821.64 239.11 891.29 450.22 891.29"/>
    <polyline class="cls-12" points="450.22 701.34 239.11 701.34 239.11 770.98 450.22 770.98"/>
    <polyline class="cls-12" points="450.22 1056.21 239.11 1056.21 239.11 1125.85 450.22 1125.85"/>
  </g>
  <g>
    <rect class="cls-17" x="-3.56" y="529.46" width="316.39" height="672.5"/>
    <rect class="cls-12" x="38.39" y="579.52" width="232.5" height="69.64"/>
    <rect class="cls-12" x="38.39" y="679.63" width="232.5" height="69.64"/>
    <rect class="cls-12" x="38.39" y="779.75" width="232.5" height="69.64"/>
    <rect class="cls-12" x="38.39" y="1080.09" width="232.5" height="69.64"/>
    <rect class="cls-12" x="38.39" y="979.97" width="232.5" height="69.64"/>
    <rect class="cls-12" x="38.39" y="879.86" width="232.5" height="69.64"/>
  </g>
  <g>
    <rect class="cls-18" x="1545.37" y="575.07" width="463.57" height="672.5"/>
    <rect class="cls-12" x="1606.83" y="625.12" width="340.65" height="69.64"/>
    <rect class="cls-12" x="1606.83" y="725.24" width="340.65" height="69.64"/>
    <rect class="cls-12" x="1606.83" y="825.35" width="340.65" height="69.64"/>
    <rect class="cls-12" x="1606.83" y="1125.69" width="340.65" height="69.64"/>
    <rect class="cls-12" x="1606.83" y="1025.58" width="340.65" height="69.64"/>
    <rect class="cls-12" x="1606.83" y="925.46" width="340.65" height="69.64"/>
  </g>
  <g>
    <rect class="cls-5" x="283.73" y="720.11" width="488.6" height="488.6"/>
    <rect class="cls-8" x="344.66" y="769.08" width="130.58" height="102.29"/>
    <rect class="cls-8" x="586.24" y="1085.75" width="130.58" height="102.29"/>
    <rect class="cls-8" x="344.66" y="1085.75" width="130.58" height="102.29"/>
    <rect class="cls-8" x="586.24" y="920.34" width="130.58" height="102.29"/>
    <rect class="cls-8" x="344.66" y="920.34" width="130.58" height="102.29"/>
    <rect class="cls-8" x="586.24" y="769.08" width="130.58" height="102.29"/>
  </g>
  <rect class="cls-13" x="1604.25" y="119.52" width="129.78" height="95.31"/>
  <polygon class="cls-9" points="1313.09 178.01 1313.09 591.41 709.66 591.41 709.66 1208.17 1313.09 1208.17 1326.43 1208.17 1753.16 1208.17 1753.16 178.01 1313.09 178.01"/>
  <rect class="cls-1" x="786.58" y="653.22" width="164.84" height="129.12"/>
  <rect class="cls-1" x="786.58" y="1052.95" width="164.84" height="129.12"/>
  <rect class="cls-1" x="786.58" y="844.16" width="164.84" height="129.12"/>
  <g class="cls-33">
    <path class="cls-20" d="M1584.12,1057.43c-10.73,45-47.83,81.62-96.91,89.94-59.89,10.16-116.82-25.36-134.2-80.97,6.12,56.83-33.71,109.44-91.66,119.26-60.17,10.2-117.1-29.58-127.15-88.87-3.18-18.78-1.28-37.26,4.72-54.08-50.45-5.59-93.04-43.38-101.83-95.22-6.75-39.79,8.03-78.32,35.97-103.99-15.02-17.45-25.59-39.01-29.7-63.26-12.2-71.93,37.1-140.27,110.1-152.65,44.62-7.56,87.76,7.53,117.34,36.82,17.88-32.95,50.46-57.74,90.65-64.55,62.21-10.54,121.37,25.56,140.76,82.62,47.12,7.18,86.32,43.26,94.61,92.2,2.23,13.14,2.05,26.14-.23,38.57,46.2,12.3,83.2,50.03,91.6,99.66,11.54,68.05-35.05,132.71-104.07,144.52Z"/>
  </g>
  <rect class="cls-23" x="1175.17" y="760.11" width="12.66" height="8.62" transform="translate(2363 1528.83) rotate(-180)"/>
  <ellipse class="cls-23" cx="1179.91" cy="740.14" rx="19.29" ry="22.35"/>
  <g>
    <ellipse class="cls-21" cx="1167.4" cy="724.4" rx="8.5" ry="9.12" transform="translate(-80.74 1298.6) rotate(-56.53)"/>
    <ellipse class="cls-21" cx="1176.27" cy="725.34" rx="9.47" ry="10.31" transform="translate(-77.55 1306.43) rotate(-56.53)"/>
    <ellipse class="cls-21" cx="1185.73" cy="726.49" rx="8.55" ry="9.31" transform="translate(-74.27 1314.83) rotate(-56.53)"/>
    <ellipse class="cls-21" cx="1196.36" cy="726.01" rx="6.49" ry="7.06" transform="translate(-69.1 1323.48) rotate(-56.53)"/>
    <ellipse class="cls-21" cx="1181.5" cy="717.74" rx="9.15" ry="9.96" transform="translate(-68.87 1307.38) rotate(-56.53)"/>
    <ellipse class="cls-21" cx="1191.83" cy="717.27" rx="7.45" ry="6" transform="translate(-31.41 54.99) rotate(-2.61)"/>
    <ellipse class="cls-21" cx="1172.7" cy="716.38" rx="7.45" ry="6" transform="translate(-31.39 54.12) rotate(-2.61)"/>
  </g>
  <circle class="cls-29" cx="1187.15" cy="739.93" r="2.65"/>
  <path class="cls-32" d="M1187.59,748.56c-.5-.52-1.32-.77-2.01-.89-2.22-.38-4.51.32-6.53,1.18-2.21.93-4.27,2.16-6.25,3.5-.66.45-.04,1.53.63,1.08,2.78-1.88,5.82-3.73,9.14-4.41.82-.17,1.68-.25,2.52-.16.18.02.5.08.74.15.1.03.2.06.3.1.13.05.04.01.04.02.04.02.09.04.13.06.14.07.26.15.39.24-.16-.11-.06-.05,0,.02.56.58,1.44-.3.88-.88h0Z"/>
  <circle class="cls-29" cx="1172.7" cy="741.17" r="2.65"/>
  <g>
    <path class="cls-25" d="M1170.48,812.62l22.51-.32c2.58-.04,4.66-2.29,4.67-5.05l.08-37.74c0-2.83-2.16-5.13-4.8-5.09l-22.51.32c-2.58.04-4.66,2.29-4.67,5.05l-.08,37.74c0,2.83,2.16,5.13,4.8,5.09Z"/>
    <path class="cls-25" d="M1155.24,792.78l-1.12-.67c-2.31-1.39-2.96-4.44-1.42-6.66l12.31-17.74c1.4-2.02,4.14-2.61,6.25-1.34l1.12.67c2.31,1.39,2.96,4.44,1.42,6.66l-12.31,17.74c-1.4,2.02-4.14,2.61-6.25,1.34Z"/>
    <path class="cls-25" d="M1209.49,789.95l-1,.85c-2.05,1.75-5.15,1.39-6.77-.77l-12.9-17.31c-1.47-1.97-1.16-4.75.72-6.35l1-.85c2.05-1.75,5.15-1.39,6.77.77l12.9,17.31c1.47,1.97,1.16,4.75-.72,6.35Z"/>
  </g>
  <g>
    <polygon class="cls-28" points="1172.6 815.88 1165.54 787.84 1226.36 771.02 1233.42 799.06 1172.6 815.88"/>
    <polygon class="cls-28" points="1195.47 816.72 1204.51 822.23 1232.87 799.01 1223.83 793.5 1195.47 816.72"/>
    <polygon class="cls-28" points="1184.84 774.81 1190.13 765.31 1225.86 770.87 1220.57 780.36 1184.84 774.81"/>
  </g>
  <g>
    <rect class="cls-21" x="1107.64" y="809.42" width="142.25" height="20.35" rx="10.17" ry="10.17"/>
    <rect class="cls-21" x="1117.14" y="829.76" width="5.89" height="44.36"/>
    <rect class="cls-21" x="1221.64" y="829.76" width="5.89" height="44.36"/>
    <rect class="cls-21" x="1137.92" y="817.28" width="5.89" height="44.36"/>
    <rect class="cls-21" x="1238.51" y="817.28" width="5.89" height="44.36"/>
  </g>
  <g>
    <rect class="cls-10" x="1121.62" y="775.12" width="7.89" height="24.39" rx="3.95" ry="3.95"/>
    <rect class="cls-10" x="1177.17" y="779.45" width=".35" height="10.44"/>
    <rect class="cls-10" x="1175.94" y="769.52" width="2.83" height="15.46"/>
    <rect class="cls-10" x="1130.74" y="756.46" width=".57" height="10.95"/>
    <g>
      <rect class="cls-3" x="1169.36" y="761.74" width="5.3" height="1.54"/>
      <rect class="cls-15" x="1171.06" y="760.48" width="1.7" height="1.26"/>
      <rect class="cls-10" x="1170.44" y="758.55" width="2.95" height="1.93"/>
    </g>
    <g>
      <rect class="cls-3" x="1139.59" y="761.93" width="5.3" height="1.54"/>
      <rect class="cls-15" x="1141.29" y="760.68" width="1.7" height="1.26"/>
      <rect class="cls-10" x="1140.67" y="758.74" width="2.95" height="1.93"/>
    </g>
    <path class="cls-16" d="M1175.21,793.77h-29.18v-20.26s0-.05,0-.07h31.93c2.81,0,5.08-2.27,5.08-5.08s-2.27-5.08-5.08-5.08h-38.61c-.49,0-.96.09-1.42.23-.69-.15-1.4-.23-2.13-.23-5.65,0-10.23,4.58-10.23,10.23v25.67c0,5.65,4.58,10.23,10.23,10.23,1.91,0,3.69-.53,5.22-1.45,1.28.91,2.83,1.45,4.52,1.45h29.67c4.32,0,7.82-3.5,7.82-7.82s-3.5-7.82-7.82-7.82Z"/>
    <rect class="cls-19" x="1128.76" y="773.44" width="13.16" height="7.61" rx="3.8" ry="3.8"/>
    <rect class="cls-3" x="1129.35" y="784.67" width="3.36" height="3.36" rx="1.68" ry="1.68"/>
    <rect class="cls-3" x="1134.11" y="784.67" width="3.36" height="3.36" rx="1.68" ry="1.68"/>
    <rect class="cls-3" x="1139.19" y="784.67" width="3.36" height="3.36" rx="1.68" ry="1.68"/>
    <rect class="cls-3" x="1129.19" y="790.41" width="3.36" height="3.36" rx="1.68" ry="1.68"/>
    <rect class="cls-3" x="1133.96" y="790.41" width="3.36" height="3.36" rx="1.68" ry="1.68"/>
    <rect class="cls-3" x="1139.04" y="790.41" width="3.36" height="3.36" rx="1.68" ry="1.68"/>
    <rect class="cls-3" x="1129.04" y="796.15" width="3.36" height="3.36" rx="1.68" ry="1.68"/>
    <rect class="cls-3" x="1133.8" y="796.15" width="3.36" height="3.36" rx="1.68" ry="1.68"/>
    <rect class="cls-3" x="1138.88" y="796.15" width="3.36" height="3.36" rx="1.68" ry="1.68"/>
    <circle class="cls-10" cx="1175.31" cy="768.81" r="1.96"/>
  </g>
  <rect class="cls-23" x="1566.04" y="892.02" width="14.1" height="9.6" transform="translate(3146.19 1793.63) rotate(-180)"/>
  <ellipse class="cls-23" cx="1571.32" cy="869.77" rx="21.49" ry="24.9"/>
  <g>
    <ellipse class="cls-21" cx="1557.38" cy="852.23" rx="9.47" ry="10.16" transform="translate(-12.49 1681.23) rotate(-56.53)"/>
    <ellipse class="cls-21" cx="1567.27" cy="853.29" rx="10.55" ry="11.48" transform="translate(-8.94 1689.94) rotate(-56.53)"/>
    <ellipse class="cls-21" cx="1577.81" cy="854.57" rx="9.52" ry="10.37" transform="translate(-5.28 1699.31) rotate(-56.53)"/>
    <ellipse class="cls-21" cx="1589.64" cy="854.03" rx="7.23" ry="7.87" transform="translate(.47 1708.94) rotate(-56.53)"/>
    <ellipse class="cls-21" cx="1573.09" cy="844.82" rx="10.19" ry="11.09" transform="translate(.73 1691.01) rotate(-56.53)"/>
    <ellipse class="cls-21" cx="1584.6" cy="844.3" rx="8.3" ry="6.69" transform="translate(-36.78 72.99) rotate(-2.61)"/>
    <ellipse class="cls-21" cx="1563.29" cy="843.3" rx="8.3" ry="6.69" transform="translate(-36.76 72.02) rotate(-2.61)"/>
  </g>
  <circle class="cls-29" cx="1579.38" cy="869.54" r="2.96"/>
  <path class="cls-32" d="M1579.83,879.2c-.55-.57-1.45-.84-2.21-.97-2.46-.42-5,.36-7.24,1.31-2.45,1.03-4.74,2.41-6.94,3.89-.66.45-.04,1.53.63,1.08,3.1-2.1,6.5-4.16,10.21-4.93.92-.19,1.88-.29,2.82-.18.48.06,1.11.23,1.39.38.15.08.3.17.44.27-.16-.11-.04-.03.02.03.56.58,1.44-.3.88-.88h0Z"/>
  <circle class="cls-29" cx="1563.29" cy="870.92" r="2.96"/>
  <g>
    <path class="cls-30" d="M1560.81,950.52l25.08-.35c2.88-.04,5.19-2.55,5.2-5.63l.09-42.05c0-3.16-2.4-5.71-5.35-5.67l-25.08.35c-2.88.04-5.19,2.55-5.2,5.63l-.09,42.05c0,3.16,2.4,5.71,5.35,5.67Z"/>
    <path class="cls-30" d="M1543.84,928.42l-1.25-.75c-2.57-1.55-3.3-4.95-1.59-7.42l13.71-19.76c1.56-2.25,4.61-2.91,6.96-1.49l1.25.75c2.57,1.55,3.3,4.95,1.59,7.42l-13.71,19.76c-1.56,2.25-4.61,2.91-6.96,1.49Z"/>
    <path class="cls-30" d="M1604.27,925.26l-1.11.94c-2.29,1.94-5.74,1.55-7.54-.85l-14.38-19.28c-1.64-2.2-1.29-5.29.8-7.07l1.11-.94c2.29-1.94,5.74-1.55,7.54.85l14.38,19.28c1.64,2.2,1.29,5.29-.8,7.07Z"/>
  </g>
  <g>
    <polygon class="cls-24" points="1563.18 954.15 1555.31 922.91 1623.07 904.18 1630.94 935.41 1563.18 954.15"/>
    <polygon class="cls-24" points="1588.66 955.09 1598.73 961.23 1630.32 935.36 1620.25 929.22 1588.66 955.09"/>
    <polygon class="cls-24" points="1576.82 908.39 1582.7 897.82 1622.51 904.01 1616.62 914.58 1576.82 908.39"/>
  </g>
  <g>
    <rect class="cls-21" x="1490.8" y="946.95" width="158.48" height="22.67" rx="11.33" ry="11.33"/>
    <rect class="cls-21" x="1501.39" y="969.62" width="6.56" height="49.42"/>
    <rect class="cls-21" x="1617.81" y="969.62" width="6.56" height="49.42"/>
    <rect class="cls-21" x="1524.54" y="955.71" width="6.56" height="49.42"/>
    <rect class="cls-21" x="1636.61" y="955.71" width="6.56" height="49.42"/>
  </g>
  <g>
    <rect class="cls-10" x="1506.38" y="908.75" width="8.8" height="27.17" rx="4.4" ry="4.4"/>
    <rect class="cls-10" x="1568.27" y="913.57" width=".39" height="11.63"/>
    <rect class="cls-10" x="1566.89" y="902.5" width="3.15" height="17.22"/>
    <rect class="cls-10" x="1516.54" y="887.95" width=".64" height="12.2"/>
    <g>
      <rect class="cls-3" x="1559.56" y="893.83" width="5.91" height="1.72"/>
      <rect class="cls-15" x="1561.46" y="892.43" width="1.9" height="1.4"/>
      <rect class="cls-10" x="1560.77" y="890.28" width="3.28" height="2.15"/>
    </g>
    <g>
      <rect class="cls-3" x="1526.4" y="894.05" width="5.91" height="1.72"/>
      <rect class="cls-15" x="1528.3" y="892.65" width="1.9" height="1.4"/>
      <rect class="cls-10" x="1527.61" y="890.5" width="3.28" height="2.15"/>
    </g>
    <path class="cls-16" d="M1566.08,929.52h-32.51v-22.57s0-.05,0-.08h35.57c3.13,0,5.66-2.53,5.66-5.66s-2.53-5.66-5.66-5.66h-43.01c-.56,0-1.11.09-1.62.24-.75-.16-1.53-.24-2.33-.24h0c-6.3,0-11.4,5.1-11.4,11.4v28.6c0,6.3,5.1,11.4,11.4,11.4h0c2.13,0,4.11-.59,5.82-1.61,1.42,1.01,3.16,1.61,5.04,1.61h33.05c4.81,0,8.71-3.9,8.71-8.71s-3.9-8.71-8.71-8.71Z"/>
    <rect class="cls-19" x="1514.34" y="906.87" width="14.66" height="8.47" rx="4.24" ry="4.24"/>
    <rect class="cls-3" x="1514.99" y="919.38" width="3.75" height="3.75" rx="1.87" ry="1.87"/>
    <rect class="cls-3" x="1520.3" y="919.38" width="3.75" height="3.75" rx="1.87" ry="1.87"/>
    <rect class="cls-3" x="1525.96" y="919.38" width="3.75" height="3.75" rx="1.87" ry="1.87"/>
    <rect class="cls-3" x="1514.82" y="925.78" width="3.75" height="3.75" rx="1.87" ry="1.87"/>
    <rect class="cls-3" x="1520.13" y="925.78" width="3.75" height="3.75" rx="1.87" ry="1.87"/>
    <rect class="cls-3" x="1525.78" y="925.78" width="3.75" height="3.75" rx="1.87" ry="1.87"/>
    <rect class="cls-3" x="1514.65" y="932.17" width="3.75" height="3.75" rx="1.87" ry="1.87"/>
    <rect class="cls-3" x="1519.96" y="932.17" width="3.75" height="3.75" rx="1.87" ry="1.87"/>
    <rect class="cls-3" x="1525.61" y="932.17" width="3.75" height="3.75" rx="1.87" ry="1.87"/>
    <circle class="cls-10" cx="1566.19" cy="901.71" r="2.19"/>
  </g>
  <rect class="cls-22" x="1427.37" y="733.11" width="15.7" height="10.68" transform="translate(2870.43 1476.91) rotate(-180)"/>
  <ellipse class="cls-22" cx="1433.24" cy="708.35" rx="23.92" ry="27.72"/>
  <g>
    <ellipse class="cls-21" cx="1417.73" cy="688.83" rx="10.54" ry="11.3" transform="translate(61.18 1491.46) rotate(-56.53)"/>
    <ellipse class="cls-21" cx="1428.74" cy="690" rx="11.74" ry="12.78" transform="translate(65.14 1501.17) rotate(-56.53)"/>
    <ellipse class="cls-21" cx="1440.46" cy="691.43" rx="10.6" ry="11.54" transform="translate(69.21 1511.59) rotate(-56.53)"/>
    <ellipse class="cls-21" cx="1453.64" cy="690.83" rx="8.04" ry="8.76" transform="translate(75.62 1522.31) rotate(-56.53)"/>
    <ellipse class="cls-21" cx="1435.22" cy="680.58" rx="11.34" ry="12.35" transform="translate(75.9 1502.35) rotate(-56.53)"/>
    <ellipse class="cls-21" cx="1448.02" cy="680" rx="9.24" ry="7.44" transform="translate(-29.45 66.61) rotate(-2.61)"/>
    <ellipse class="cls-21" cx="1424.3" cy="678.89" rx="9.24" ry="7.44" transform="translate(-29.42 65.53) rotate(-2.61)"/>
  </g>
  <circle class="cls-29" cx="1442.22" cy="708.09" r="3.29"/>
  <path class="cls-32" d="M1443.1,718.46c-.68-.7-1.77-1.06-2.7-1.22-2.85-.48-5.75.36-8.35,1.46-2.78,1.17-5.37,2.71-7.86,4.39-1.33.9-.08,3.06,1.26,2.16,3.41-2.31,7.14-4.58,11.23-5.43.93-.19,1.91-.28,2.99-.18.25.02-.21-.04.02,0,.08.01.17.03.25.04.17.04.35.08.52.13.13.04.25.09.37.12.23.07-.22-.14.1.05.16.09.32.21.49.3-.22-.12-.24-.21-.09-.05,1.12,1.16,2.88-.61,1.77-1.77h0Z"/>
  <circle class="cls-29" cx="1424.3" cy="709.63" r="3.29"/>
  <g>
    <path class="cls-26" d="M1421.55,798.23l27.91-.39c3.2-.04,5.78-2.83,5.79-6.27l.1-46.8c0-3.51-2.67-6.36-5.95-6.31l-27.91.39c-3.2.04-5.78,2.83-5.79,6.27l-.1,46.8c0,3.51,2.67,6.36,5.95,6.31Z"/>
    <path class="cls-26" d="M1402.66,773.63l-1.39-.84c-2.86-1.73-3.67-5.51-1.77-8.26l15.26-21.99c1.74-2.51,5.13-3.23,7.75-1.66l1.39.84c2.86,1.73,3.67,5.51,1.77,8.26l-15.26,21.99c-1.74,2.51-5.13,3.23-7.75,1.66Z"/>
    <path class="cls-26" d="M1469.92,770.11l-1.23,1.05c-2.55,2.16-6.39,1.73-8.39-.95l-16-21.46c-1.83-2.45-1.44-5.89.89-7.87l1.23-1.05c2.55-2.16,6.39-1.73,8.39.95l16,21.46c1.83,2.45,1.44,5.89-.89,7.87Z"/>
  </g>
  <g>
    <polygon class="cls-31" points="1424.18 802.27 1415.42 767.5 1490.84 746.65 1499.6 781.41 1424.18 802.27"/>
    <polygon class="cls-31" points="1452.54 803.32 1463.75 810.14 1498.92 781.35 1487.71 774.52 1452.54 803.32"/>
    <polygon class="cls-31" points="1439.36 751.34 1445.91 739.57 1490.22 746.46 1483.66 758.23 1439.36 751.34"/>
  </g>
  <g>
    <rect class="cls-21" x="1343.63" y="794.25" width="176.4" height="25.23" rx="12.61" ry="12.61"/>
    <rect class="cls-21" x="1355.41" y="819.48" width="7.3" height="55.01"/>
    <rect class="cls-21" x="1484.99" y="819.48" width="7.3" height="55.01"/>
    <rect class="cls-21" x="1381.17" y="804.01" width="7.3" height="55.01"/>
    <rect class="cls-21" x="1505.91" y="804.01" width="7.3" height="55.01"/>
  </g>
  <g>
    <rect class="cls-10" x="1360.96" y="751.73" width="9.79" height="30.25" rx="4.89" ry="4.89"/>
    <rect class="cls-10" x="1429.85" y="757.1" width=".44" height="12.94"/>
    <rect class="cls-10" x="1428.32" y="744.78" width="3.51" height="19.17"/>
    <rect class="cls-10" x="1372.28" y="728.58" width=".71" height="13.57"/>
    <g>
      <rect class="cls-3" x="1420.16" y="735.13" width="6.58" height="1.92"/>
      <rect class="cls-15" x="1422.27" y="733.58" width="2.11" height="1.56"/>
      <rect class="cls-10" x="1421.5" y="731.18" width="3.65" height="2.39"/>
    </g>
    <g>
      <rect class="cls-3" x="1383.25" y="735.37" width="6.58" height="1.92"/>
      <rect class="cls-15" x="1385.36" y="733.81" width="2.11" height="1.56"/>
      <rect class="cls-10" x="1384.59" y="731.42" width="3.65" height="2.39"/>
    </g>
    <path class="cls-16" d="M1437.11,743.35h0c0-3.48-2.82-6.3-6.3-6.3h-47.88c-.63,0-1.23.09-1.81.27-.84-.17-1.7-.27-2.59-.27h0c-7.01,0-12.69,5.68-12.69,12.69v31.83c0,7.01,5.68,12.69,12.69,12.69h0c2.37,0,4.58-.66,6.48-1.79,1.58,1.12,3.51,1.79,5.6,1.79h36.79c5.36,0,9.7-4.34,9.7-9.7h0c0-5.36-4.34-9.7-9.7-9.7h-36.18v-25.12s0-.06,0-.09h39.59c3.48,0,6.3-2.82,6.3-6.3Z"/>
    <rect class="cls-19" x="1369.82" y="749.65" width="16.32" height="9.43" rx="4.72" ry="4.72"/>
    <rect class="cls-3" x="1370.55" y="763.57" width="4.17" height="4.17" rx="2.08" ry="2.08"/>
    <rect class="cls-3" x="1376.46" y="763.57" width="4.17" height="4.17" rx="2.08" ry="2.08"/>
    <rect class="cls-3" x="1382.75" y="763.57" width="4.17" height="4.17" rx="2.08" ry="2.08"/>
    <rect class="cls-3" x="1370.35" y="770.69" width="4.17" height="4.17" rx="2.08" ry="2.08"/>
    <rect class="cls-3" x="1376.26" y="770.69" width="4.17" height="4.17" rx="2.08" ry="2.08"/>
    <rect class="cls-3" x="1382.56" y="770.69" width="4.17" height="4.17" rx="2.08" ry="2.08"/>
    <rect class="cls-3" x="1370.16" y="777.81" width="4.17" height="4.17" rx="2.08" ry="2.08"/>
    <rect class="cls-3" x="1376.07" y="777.81" width="4.17" height="4.17" rx="2.08" ry="2.08"/>
    <rect class="cls-3" x="1382.37" y="777.81" width="4.17" height="4.17" rx="2.08" ry="2.08"/>
    <circle class="cls-10" cx="1427.54" cy="743.9" r="2.43"/>
  </g>
  <rect class="cls-27" x="1308.17" y="683.06" width="8.84" height="6.02" transform="translate(2625.19 1372.14) rotate(-180)"/>
  <ellipse class="cls-27" cx="1311.48" cy="669.11" rx="13.48" ry="15.61"/>
  <g>
    <ellipse class="cls-21" cx="1302.74" cy="658.11" rx="5.94" ry="6.37" transform="translate(35.24 1381.78) rotate(-56.53)"/>
    <ellipse class="cls-21" cx="1308.94" cy="658.78" rx="6.61" ry="7.2" transform="translate(37.47 1387.24) rotate(-56.53)"/>
    <ellipse class="cls-21" cx="1315.55" cy="659.58" rx="5.97" ry="6.5" transform="translate(39.76 1393.11) rotate(-56.53)"/>
    <ellipse class="cls-21" cx="1322.97" cy="659.24" rx="4.53" ry="4.93" transform="translate(43.37 1399.15) rotate(-56.53)"/>
    <ellipse class="cls-21" cx="1312.59" cy="653.47" rx="6.39" ry="6.95" transform="translate(43.53 1387.91) rotate(-56.53)"/>
    <ellipse class="cls-21" cx="1319.81" cy="653.14" rx="5.21" ry="4.19" transform="translate(-28.36 60.74) rotate(-2.61)"/>
    <ellipse class="cls-21" cx="1306.45" cy="652.52" rx="5.21" ry="4.19" transform="translate(-28.34 60.14) rotate(-2.61)"/>
  </g>
  <circle class="cls-29" cx="1316.54" cy="668.97" r="1.85"/>
  <path class="cls-32" d="M1316.98,674.86c-.37-.39-.98-.58-1.49-.67-1.59-.27-3.21.21-4.66.82-1.56.65-3.01,1.52-4.41,2.47-.66.45-.04,1.53.63,1.08,1.93-1.3,4.04-2.59,6.34-3.06.55-.11,1.12-.16,1.71-.1.13.01-.09-.02.04,0,.05,0,.09.02.14.02.1.02.19.04.29.07.07.02.14.05.21.07.12.04-.09-.06.08.04.09.05.18.11.27.17-.13-.08-.11-.09-.03-.02.56.58,1.44-.3.88-.88h0Z"/>
  <circle class="cls-29" cx="1306.45" cy="669.83" r="1.85"/>
  <g>
    <path class="cls-30" d="M1304.89,719.74l15.72-.22c1.8-.03,3.26-1.6,3.26-3.53l.06-26.37c0-1.98-1.51-3.58-3.35-3.55l-15.72.22c-1.8.03-3.26,1.6-3.26,3.53l-.06,26.37c0,1.98,1.51,3.58,3.35,3.55Z"/>
    <path class="cls-30" d="M1294.25,705.88l-.78-.47c-1.61-.97-2.07-3.1-.99-4.65l8.6-12.39c.98-1.41,2.89-1.82,4.36-.93l.78.47c1.61.97,2.07,3.1.99,4.65l-8.6,12.39c-.98,1.41-2.89,1.82-4.36.93Z"/>
    <path class="cls-30" d="M1332.14,703.9l-.7.59c-1.43,1.22-3.6.97-4.73-.54l-9.01-12.09c-1.03-1.38-.81-3.32.5-4.43l.7-.59c1.43-1.22,3.6-.97,4.73.54l9.01,12.09c1.03,1.38.81,3.32-.5,4.43Z"/>
  </g>
  <g>
    <polygon class="cls-24" points="1306.38 722.02 1301.44 702.43 1343.93 690.69 1348.86 710.27 1306.38 722.02"/>
    <polygon class="cls-24" points="1322.35 722.61 1328.67 726.46 1348.48 710.23 1342.16 706.39 1322.35 722.61"/>
    <polygon class="cls-24" points="1314.93 693.33 1318.62 686.7 1343.58 690.58 1339.88 697.21 1314.93 693.33"/>
  </g>
  <g>
    <rect class="cls-21" x="1261" y="717.5" width="99.37" height="14.21" rx="7.11" ry="7.11"/>
    <rect class="cls-21" x="1267.63" y="731.72" width="4.11" height="30.99"/>
    <rect class="cls-21" x="1340.63" y="731.72" width="4.11" height="30.99"/>
    <rect class="cls-21" x="1282.15" y="723" width="4.11" height="30.99"/>
    <rect class="cls-21" x="1352.42" y="723" width="4.11" height="30.99"/>
  </g>
  <g>
    <rect class="cls-10" x="1270.76" y="693.55" width="5.51" height="17.04" rx="2.76" ry="2.76"/>
    <rect class="cls-10" x="1309.57" y="696.57" width=".25" height="7.29"/>
    <rect class="cls-10" x="1308.71" y="689.63" width="1.98" height="10.8"/>
    <rect class="cls-10" x="1277.14" y="680.51" width=".4" height="7.65"/>
    <g>
      <rect class="cls-3" x="1304.11" y="684.2" width="3.71" height="1.08"/>
      <rect class="cls-15" x="1305.3" y="683.32" width="1.19" height=".88"/>
      <rect class="cls-10" x="1304.87" y="681.97" width="2.06" height="1.35"/>
    </g>
    <g>
      <rect class="cls-3" x="1283.32" y="684.33" width="3.71" height="1.08"/>
      <rect class="cls-15" x="1284.51" y="683.46" width="1.19" height=".88"/>
      <rect class="cls-10" x="1284.07" y="682.11" width="2.06" height="1.35"/>
    </g>
    <path class="cls-16" d="M1308.2,706.58h-20.38v-14.15s0-.03,0-.05h22.3c1.96,0,3.55-1.59,3.55-3.55s-1.59-3.55-3.55-3.55h-26.97c-.35,0-.67.06-.99.16-.48-.1-.98-.16-1.49-.16h0c-3.95,0-7.15,3.2-7.15,7.15v17.93c0,3.95,3.2,7.15,7.15,7.15h0c1.33,0,2.58-.37,3.65-1.01.89.63,1.98,1.01,3.16,1.01h20.72c3.02,0,5.46-2.45,5.46-5.46s-2.45-5.46-5.46-5.46Z"/>
    <rect class="cls-19" x="1275.75" y="692.37" width="9.19" height="5.31" rx="2.66" ry="2.66"/>
    <rect class="cls-3" x="1276.16" y="700.22" width="2.35" height="2.35" rx="1.17" ry="1.17"/>
    <rect class="cls-3" x="1279.49" y="700.22" width="2.35" height="2.35" rx="1.17" ry="1.17"/>
    <rect class="cls-3" x="1283.04" y="700.22" width="2.35" height="2.35" rx="1.17" ry="1.17"/>
    <rect class="cls-3" x="1276.06" y="704.23" width="2.35" height="2.35" rx="1.17" ry="1.17"/>
    <rect class="cls-3" x="1279.38" y="704.23" width="2.35" height="2.35" rx="1.17" ry="1.17"/>
    <rect class="cls-3" x="1282.93" y="704.23" width="2.35" height="2.35" rx="1.17" ry="1.17"/>
    <rect class="cls-3" x="1275.95" y="708.24" width="2.35" height="2.35" rx="1.17" ry="1.17"/>
    <rect class="cls-3" x="1279.28" y="708.24" width="2.35" height="2.35" rx="1.17" ry="1.17"/>
    <rect class="cls-3" x="1282.82" y="708.24" width="2.35" height="2.35" rx="1.17" ry="1.17"/>
    <circle class="cls-10" cx="1308.27" cy="689.14" r="1.37"/>
  </g>
  <rect class="cls-12" x="1384.65" y="418.11" width="323.39" height="106.68"/>
  <rect class="cls-12" x="1378.39" y="255.89" width="323.39" height="106.68"/>
</svg>