<?xml version="1.0" encoding="UTF-8"?>
<svg id="Layer_1" data-name="Layer 1" xmlns="http://www.w3.org/2000/svg" xmlns:xlink="http://www.w3.org/1999/xlink" version="1.1" viewBox="0 0 2000 1200">
  <defs>
    <style>
      .cls-1 {
        fill: #9d9796;
      }

      .cls-1, .cls-2, .cls-3, .cls-4, .cls-5, .cls-6, .cls-7, .cls-8, .cls-9, .cls-10, .cls-11, .cls-12, .cls-13, .cls-14, .cls-15, .cls-16, .cls-17, .cls-18, .cls-19, .cls-20 {
        stroke-width: 0px;
      }

      .cls-21 {
        fill: #534e56;
      }

      .cls-21, .cls-22, .cls-23, .cls-24, .cls-25, .cls-26, .cls-27, .cls-28, .cls-29 {
        stroke: #231f20;
        stroke-miterlimit: 10;
      }

      .cls-2 {
        fill: #e9e672;
      }

      .cls-3 {
        fill: #1d363d;
      }

      .cls-4, .cls-24, .cls-29 {
        fill: #b09c9a;
      }

      .cls-22 {
        fill: #585759;
      }

      .cls-23 {
        fill: #e7af5f;
        opacity: .73;
      }

      .cls-5 {
        fill: #b72d2c;
      }

      .cls-6 {
        fill: #724442;
      }

      .cls-7 {
        fill: #ed7872;
      }

      .cls-24 {
        stroke-width: .25px;
      }

      .cls-25, .cls-16 {
        fill: #534f57;
      }

      .cls-26 {
        fill: url(#radial-gradient);
      }

      .cls-8 {
        fill: #466f7f;
      }

      .cls-9 {
        fill: #805656;
      }

      .cls-10 {
        fill: #4a4747;
      }

      .cls-27 {
        fill: #b19782;
      }

      .cls-11 {
        fill: #5953a3;
      }

      .cls-30 {
        opacity: .9;
      }

      .cls-31 {
        opacity: .91;
      }

      .cls-32 {
        opacity: .78;
      }

      .cls-33 {
        opacity: .93;
      }

      .cls-34 {
        opacity: .94;
      }

      .cls-12 {
        fill: #577f60;
      }

      .cls-13 {
        fill: #759daa;
      }

      .cls-14 {
        fill: #cd5a9b;
      }

      .cls-28 {
        fill: #df724a;
        opacity: .7;
      }

      .cls-15 {
        fill: #c97654;
      }

      .cls-17 {
        fill: #276743;
      }

      .cls-18 {
        fill: #694159;
      }

      .cls-19 {
        fill: #197665;
      }

      .cls-20 {
        fill: #af722a;
      }
    </style>
    <radialGradient id="radial-gradient" cx="1665.33" cy="225.48" fx="1665.33" fy="225.48" r="95.43" gradientUnits="userSpaceOnUse">
      <stop offset="0" stop-color="#fffcea" stop-opacity=".62"/>
      <stop offset="0" stop-color="#fcf5de" stop-opacity=".62"/>
      <stop offset=".03" stop-color="rgba(246, 227, 190, .61)" stop-opacity=".61"/>
      <stop offset=".07" stop-color="rgba(239, 204, 148, .61)" stop-opacity=".61"/>
      <stop offset=".11" stop-color="rgba(234, 187, 118, .61)" stop-opacity=".61"/>
      <stop offset=".16" stop-color="rgba(231, 177, 99, .61)" stop-opacity=".61"/>
      <stop offset=".2" stop-color="#e7ae5e" stop-opacity=".61"/>
      <stop offset=".25" stop-color="#e7af5f" stop-opacity=".5"/>
      <stop offset=".66" stop-color="#f3903f" stop-opacity=".9"/>
      <stop offset=".89" stop-color="#ed683c"/>
      <stop offset="1" stop-color="#df724a"/>
    </radialGradient>
  </defs>
  <g>
    <rect class="cls-24" x="703.02" y="380.09" width="19.14" height="200.92" rx="9.57" ry="9.57"/>
    <path class="cls-4" d="M649.52,422.2c-2,20.14,6.38,44.11,27.53,50.09,10.9,3.08,22.68,1.13,33.31-2.07,9.22-2.77,5.29-17.26-3.99-14.46-5.66,1.7-11.37,3.05-17.31,3.07-1.96,0-4.13-.14-5.53-.41-1.11-.21-2.2-.5-3.28-.83-.21-.06-2.26-.8-1.19-.36-3.92-1.63-5.21-2.83-7.68-5.63-1.04-1.18.48.76-.52-.63-.53-.73-1.01-1.49-1.47-2.27-.34-.58-.67-1.17-.97-1.76-.13-.26-1.27-2.77-.63-1.23-1.15-2.77-1.95-5.68-2.53-8.62-.16-.79-.28-1.59-.42-2.38-.27-1.61.13,1.44-.07-.58-.13-1.31-.25-2.63-.32-3.94-.14-2.65-.18-5.35.09-7.99.4-4.04-3.73-7.5-7.5-7.5-4.39,0-7.1,3.45-7.5,7.5h0Z"/>
    <path class="cls-4" d="M750.46,448.3c.1.7.15,1.82-.16-1.23.06.62.16,1.24.23,1.86.24,2.16.46,4.32.63,6.49.52,6.56.72,13.16.46,19.73-.07,1.78-.17,3.55-.32,5.32-.18,2.2-.39,3.96-.52,4.74-.55,3.51-1.28,7-2.4,10.38-.27.82-.56,1.64-.88,2.45.61-1.53-.36.79-.52,1.09-.75,1.43-1.52,2.81-2.47,4.12.88-1.21-1.58,1.62-2.3,2.23,1.65-1.39-3.49,1.66-1.49.9-.82.31-1.66.53-2.51.74-.25.06-1.52.25-.5.12,1.1-.15-.85.03-.89.03-2.9-.08-2.74.04-5.1-.52-5.58-1.32-10.49-4.04-15.36-7.08-8.22-5.12-15.76,7.85-7.57,12.95,9.5,5.91,20.75,11.16,32.22,9.17,8.15-1.41,14.67-7.11,18.5-14.28,7.76-14.53,7.88-32.85,6.88-48.91-.3-4.79-.77-9.57-1.47-14.32-.59-4-5.67-6.24-9.23-5.24-4.29,1.2-5.83,5.19-5.24,9.23h0Z"/>
  </g>
  <g>
    <circle class="cls-28" cx="1665.33" cy="225.48" r="146.21"/>
    <circle class="cls-23" cx="1665.33" cy="225.48" r="127.21"/>
    <circle class="cls-26" cx="1665.33" cy="225.48" r="95.43"/>
  </g>
  <path class="cls-22" d="M1524.52,475.75c314.75-321.68,487.95-149.79,487.95-149.79l-4.04,542.89-363.71,61.43"/>
  <path class="cls-29" d="M365.33,668.49c315-70,255-162.5,457.5-117.5,202.5,45,190-95,362.5-35s195-117.5,325-47.5,155,91.69,155,91.69v145.81l-1280,52.5-20-90Z"/>
  <path class="cls-21" d="M2011.92,511.06s-198.57-199.43-361.31-33.08c-162.74,166.35-267.96,215.69-419.27,234.9-151.31,19.21-540.46-134.04-540.46-134.04C-16.51,322.36-60.66,651.69-60.66,651.69l133.39,520.51,1987.94-219.33"/>
  <path class="cls-27" d="M0,755.5s175.5-220,355.5-72.5,290,185,442.5,187.5,522.5-192.5,522.5-192.5c675-332.5,755-10,755-10l-75.5,532H0"/>
  <g>
    <rect class="cls-24" x="1295.02" y="345.85" width="19.14" height="200.92" rx="9.57" ry="9.57" transform="translate(2609.17 892.62) rotate(-180)"/>
    <path class="cls-4" d="M1352.66,387.96c.26,2.64.22,5.34.09,7.99-.06,1.23-.17,2.45-.29,3.67-.21,2.18.13-.5-.11.86-.14.8-.26,1.59-.42,2.38-.58,2.93-1.38,5.86-2.53,8.62.63-1.5-.33.65-.48.93-.37.69-.72,1.39-1.12,2.06-.46.78-.95,1.53-1.47,2.27-1.27,1.77.94-1.02-.52.63-2.44,2.76-3.76,3.99-7.68,5.63,1.05-.43-1.23.37-1.19.36-1.08.33-2.17.61-3.28.83-1.4.27-3.56.41-5.53.41-5.93-.02-11.65-1.37-17.31-3.07-9.26-2.79-13.22,11.69-3.99,14.46,16.28,4.9,36.22,6.26,48.9-7.24,8.26-8.8,11.42-21.02,12.02-32.79.14-2.65.18-5.35-.09-7.99-.4-4.03-3.16-7.5-7.5-7.5-3.75,0-7.9,3.44-7.5,7.5h0Z"/>
    <path class="cls-4" d="M1252.25,410.07c-1.67,11.34-2.29,22.96-1.52,34.39,1.08,15.9,5.16,37.19,22.81,42.52,12.02,3.63,24.83-2.36,34.83-8.59,8.18-5.09.66-18.07-7.57-12.95-4.4,2.74-8.85,5.25-13.79,6.66-2.12.61-3.45.84-4.33.89s-1.77.03-2.66.03c-1.73,0,.63.36-1.36-.19-.66-.18-1.31-.36-1.95-.58-1.02-.35,1.17.58.23.1-.33-.17-.67-.32-.99-.52-.55-.34-1.11-.67-1.63-1.06,1.53,1.11-.6-.65-1-1.05-.83-.83-3.04-4.39-3.79-6.21-2.39-5.82-3.42-13.1-3.82-19.4-.45-6.93-.33-13.9.14-20.83.18-2.66.42-5.31.72-7.96.08-.74.19-1.48.27-2.22.1-.97-.34,2.4-.13.95.59-4.04-1.01-8.02-5.24-9.23-3.53-1.01-8.64,1.23-9.23,5.24h0Z"/>
  </g>
  <g>
    <rect class="cls-25" x="106.24" y="230.46" width="30" height="315" rx="15" ry="15" transform="translate(242.48 775.91) rotate(-180)"/>
    <path class="cls-16" d="M193.36,296.47c.28,2.79.3,5.61.27,8.41s-.2,5.86-.48,8.77c-.08.83-.2,1.66-.27,2.49-.2,2.24.72-4.4.14-1.11-.34,1.9-.64,3.8-1.05,5.68-.86,3.92-2.2,7.6-3.46,11.4-.73,2.22,1.76-3.7.2-.54-.44.9-.87,1.8-1.34,2.69-1,1.89-2.16,3.67-3.34,5.45-1.89,2.86,1.8-1.97.28-.33-.7.76-1.34,1.57-2.05,2.31s-1.46,1.49-2.24,2.18c-.34.31-.73.6-1.06.92-1.89,1.86,3.06-2.04.8-.59-1.76,1.13-3.45,2.31-5.31,3.27-.56.29-1.15.54-1.71.83-1.93,1.03,1.43-.98,1.43-.6,0,.3-3.33,1.16-3.82,1.31-1.36.4-2.73.74-4.12,1.02-.57.12-1.17.19-1.73.32-2.97.7,3.27-.15.37-.05-3.35.11-6.62.39-9.98.23-1.84-.09-3.67-.27-5.51-.45-3.71-.35,2.22.61-.09-.02-1.17-.32-2.44-.41-3.63-.64-4.66-.9-9.25-2.12-13.8-3.5-7.51-2.28-16.69,2.72-18.45,10.48s2.44,16.01,10.48,18.45c26.74,8.13,59.83,9.86,80.3-12.71,13.32-14.69,18.48-34.49,19.35-53.9.18-3.91.22-7.89-.17-11.8-.78-7.78-6.34-15.39-15-15-7.46.33-15.84,6.64-15,15h0Z"/>
    <path class="cls-16" d="M36.06,330.28c-2.63,17.79-3.68,35.98-2.55,53.93,1.69,26.82,8.63,61.48,38.12,70.62,19.62,6.08,40.82-3.54,57.18-13.77,6.86-4.29,9.56-13.38,5.38-20.52-4-6.85-13.63-9.7-20.52-5.38-3.98,2.49-8.05,4.84-12.28,6.88-.9.43-1.86.8-2.73,1.27-1.46.79,1.38-.57,1.37-.56-.58.21-1.15.47-1.73.69-1.78.66-3.57,1.29-5.39,1.82-1.54.44-3.09.79-4.66,1.13-.65.14-3.43.54-.58.15s-.14-.02-.84.03c-1.34.09-2.66.06-4,.04-.5,0-1.44-.31-1.9-.15,1.22-.42,3.99.79,1.27.11-1.24-.31-2.44-.66-3.67-1.02-2.47-.73,1.07.01,1.47.65-.22-.35-1.37-.66-1.75-.89-.92-.56-1.86-1.33-2.82-1.81-.67-.33,2.97,2.69,1.29.95-.45-.47-.98-.87-1.45-1.33-.82-.8-1.52-1.7-2.3-2.52-1.51-1.57,2.08,3.07.93,1.2-.36-.58-.79-1.13-1.16-1.71-1.46-2.26-2.49-4.68-3.74-7.04-.42-.8,1.42,3.75.54,1.22-.21-.61-.46-1.22-.68-1.83-.48-1.35-.93-2.72-1.33-4.1-.81-2.74-1.48-5.53-2.04-8.33-.3-1.5-.57-3-.82-4.5-.11-.7-.21-1.41-.32-2.11-.39-2.31.46,3.94.11.8-.33-2.97-.64-5.93-.84-8.91-.76-11.01-.59-22.08.15-33.08.29-4.25.66-8.5,1.14-12.74.14-1.25.33-2.49.45-3.74.09-.87-.73,5.2-.34,2.53,1.14-7.73-1.92-16.5-10.48-18.45-7.12-1.62-17.22,2.18-18.45,10.48h0Z"/>
  </g>
  <g>
    <rect class="cls-25" x="1678.71" y="558.08" width="30.56" height="320.89" rx="15.28" ry="15.28"/>
    <path class="cls-16" d="M1597.74,625.34c-3.02,30.14,8.87,66.87,40.87,75.73,16.59,4.6,34.48,1.55,50.62-3.36,9.21-2.8,5.28-17.28-3.99-14.46-12.51,3.8-26.91,6.72-39.34,4.15-9.14-1.89-15.49-5.54-21.41-12.52-1.26-1.49-.21-.16-1.11-1.44-.58-.83-1.15-1.67-1.68-2.53-1.18-1.9-2.21-3.87-3.17-5.88-.19-.4-.37-.81-.54-1.21.12.27.53,1.31,0-.04-.37-.91-.71-1.84-1.04-2.77-.68-1.93-1.26-3.89-1.78-5.86-.47-1.81-.88-3.64-1.23-5.48-.17-.89-.32-1.78-.47-2.67-.2-1.27-.34-2.45-.22-1.47-.38-3.17-.63-6.35-.74-9.55-.11-3.54-.13-7.13.23-10.65.4-4.04-3.74-7.5-7.5-7.5-4.39,0-7.09,3.45-7.5,7.5h0Z"/>
    <path class="cls-16" d="M1758.79,665.83c.2,1.37.02.31-.11-.82.11,1,.26,2.01.38,3.01.41,3.44.74,6.9,1.01,10.35.87,10.9,1.19,21.86.69,32.79-.56,12.21-1.55,22.1-5.81,34.14-1.1,3.11-1.02,3.05-2.77,6.36-.57,1.07-1.17,2.12-1.82,3.15-.32.5-.65.99-.98,1.48-.98,1.48.03.08-.58.81-.73.88-1.48,1.74-2.29,2.55-.57.57-2.59,2.31-2.19,2,.81-.62-.81.55-1.06.7-.48.29-.95.59-1.43.87s-.99.52-1.49.78c-1.11.56,1.07-.33-.56.24-1.4.48-2.79.86-4.24,1.18s-.69.13-.74.13c-.74.07-1.48.12-2.23.15-4.21.14-5.28-.07-9.03-.95-9.31-2.19-17.67-6.72-25.78-11.79-8.21-5.14-15.74,7.84-7.57,12.95,14.11,8.83,31.03,17.02,48.14,14.18,12.25-2.03,21.75-10.87,27.22-21.68,11.42-22.57,11.42-50.56,9.85-75.24-.45-7.13-1.12-14.26-2.16-21.32-.59-4-5.67-6.24-9.23-5.24-4.29,1.2-5.84,5.19-5.24,9.23h0Z"/>
  </g>
  <g>
    <rect class="cls-25" x="1870.43" y="234.81" width="22.45" height="235.76" rx="11.23" ry="11.23" transform="translate(3763.31 705.38) rotate(-180)"/>
    <path class="cls-16" d="M1939.36,284.22c.2,2.03.22,4.08.2,6.12-.02,2.17-.13,4.34-.34,6.5-.05.55-.11,1.1-.17,1.64-.19,1.82.16-.83-.07.57-.23,1.4-.47,2.79-.77,4.17-.59,2.72-1.38,5.38-2.35,7.98-.44,1.18.32-.58-.39.94-.28.6-.57,1.2-.87,1.79-.72,1.39-1.53,2.72-2.39,4.03-2.54,3.85-7.47,7.59-12.66,9.14-9.72,2.91-20.9.76-30.95-2.27-9.26-2.8-13.22,11.67-3.99,14.46,18.67,5.64,41.68,7.34,56.2-8.26,9.45-10.15,13.01-24.26,13.66-37.79.14-3,.18-6.05-.12-9.04-.4-4.03-3.16-7.5-7.5-7.5-3.74,0-7.9,3.44-7.5,7.5h0Z"/>
    <path class="cls-16" d="M1821.5,310.51c-1.94,13.15-2.63,26.66-1.74,39.92,1.22,18.11,5.72,42.53,25.79,48.72,13.71,4.23,28.5-2.83,39.89-9.94,8.17-5.1.65-18.08-7.57-12.95-5.25,3.28-10.61,6.27-16.52,7.96-1.15.33-2.31.59-3.48.84-1.65.35.02.14-1.96.25-1,.06-1.99.04-2.99.03-.52,0-1.06-.06-1.58-.12,1.31.16.31.05-.4-.14-.75-.2-1.5-.41-2.24-.65-1.76-.59.99.51-.04,0-.42-.21-.85-.4-1.24-.64-.63-.4-1.26-.77-1.87-1.2,1.52,1.08-.84-.81-1.23-1.2-.6-.61-1.17-1.25-1.7-1.92,1.14,1.42-.44-.72-.69-1.11-1.04-1.64-1.93-3.38-2.7-5.16.65,1.52-.51-1.45-.64-1.82-.29-.84-.55-1.68-.8-2.53-.64-2.19-1.17-4.42-1.6-6.66-.22-1.15-.41-2.31-.6-3.46-.27-1.66-.1-.51-.22-1.53-.28-2.36-.5-4.73-.65-7.11-.52-8.12-.38-16.28.17-24.39.21-3.11.49-6.21.84-9.31.1-.91.25-1.82.33-2.73.02-.27-.34,2.37-.11.84.6-4.04-1.01-8.02-5.24-9.23-3.53-1.01-8.64,1.23-9.23,5.24h0Z"/>
  </g>
  <g>
    <rect class="cls-25" x="1813.39" y="742.17" width="23.17" height="243.24" rx="11.58" ry="11.58" transform="translate(3649.95 1727.58) rotate(-180)"/>
    <path class="cls-16" d="M1884.75,793.15c.21,2.06.23,4.15.21,6.21-.02,2.25-.13,4.5-.34,6.75-.06.64-.13,1.28-.2,1.93-.16,1.47.2-1.2-.04.3-.24,1.5-.49,3-.82,4.48-.62,2.83-1.43,5.61-2.45,8.32-.44,1.18.31-.56-.4.96-.33.71-.66,1.41-1.03,2.1-.73,1.39-1.54,2.74-2.42,4.04s-.55.9-2.02,2.48c-.55.59-1.12,1.17-1.72,1.72-.31.29-2.12,1.76-1.21,1.08-2.9,2.17-5.35,3.29-8.08,4.12-10.22,3.09-21.7.84-32.14-2.32-9.26-2.8-13.22,11.67-3.99,14.46,19.27,5.83,43.12,7.58,57.98-8.7,9.52-10.44,13.13-24.75,13.79-38.54.15-3.11.19-6.27-.12-9.37-.4-4.03-3.16-7.5-7.5-7.5-3.74,0-7.9,3.44-7.5,7.5h0Z"/>
    <path class="cls-16" d="M1763.14,820.34c-2,13.57-2.71,27.5-1.78,41.18,1.24,18.44,5.82,43.64,26.32,49.95,14.16,4.36,29.32-2.85,41.09-10.2,8.17-5.1.65-18.08-7.57-12.95-5.51,3.44-11.16,6.59-17.42,8.32-1.02.28-2.06.51-3.09.74-1.98.43-.4.21-2.33.31-1,.05-1.99.04-3,.03-.53,0-1.06-.06-1.58-.12,1.86.22-.11-.06-.41-.13-.95-.24-1.87-.5-2.79-.83,1.53.55-.19-.08-.77-.42-.81-.47-1.59-.95-2.34-1.5,1.5,1.1-.61-.61-1.02-1.02-.67-.67-1.3-1.39-1.9-2.13,1.15,1.43-.6-.95-.85-1.36-.43-.68-.83-1.39-1.21-2.1-.26-.48-1.7-3.65-1.1-2.18-1.62-3.93-2.71-8.09-3.53-12.26-.91-4.64-1.17-7.05-1.52-12.48-.54-8.36-.4-16.76.16-25.12.22-3.26.51-6.52.88-9.77.11-.94.25-1.88.34-2.82.06-.63-.35,2.48-.11.87.6-4.04-1.01-8.02-5.24-9.23-3.53-1.01-8.63,1.23-9.23,5.24h0Z"/>
  </g>
  <g>
    <g>
      <rect class="cls-7" x="551.02" y="785.43" width="82.18" height="122.26" transform="translate(209.18 1806.05) rotate(-123.27)"/>
      <rect class="cls-7" x="533.84" y="777.19" width="26.23" height="76.87" transform="translate(723.61 1781.65) rotate(-156.52)"/>
      <rect class="cls-7" x="590.12" y="862.9" width="26.32" height="77.14" transform="translate(1504.45 297.75) rotate(89.97)"/>
    </g>
    <g>
      <rect class="cls-9" x="453.17" y="998.35" width="52.39" height="75.48" transform="translate(410.57 -103.44) rotate(21.37)"/>
      <polygon class="cls-9" points="511.24 1060.87 527.5 1057.7 516.95 1010.94 500.69 1014.11 511.24 1060.87"/>
      <polygon class="cls-9" points="438.25 1032.39 428.43 1018.98 468.05 991.71 477.87 1005.12 438.25 1032.39"/>
    </g>
    <g>
      <rect class="cls-8" x="414.83" y="992.27" width="65.94" height="31.64" rx="8.92" ry="8.92" transform="translate(1464.12 579.32) rotate(91.08)"/>
      <rect class="cls-8" x="371.26" y="971.24" width="32.33" height="115.04" transform="translate(1374.59 545.08) rotate(84.53)"/>
      <rect class="cls-8" x="372.05" y="928.8" width="32.33" height="115.04" transform="translate(1406.78 692.95) rotate(95.42)"/>
    </g>
    <g>
      <rect class="cls-13" x="492.33" y="825.6" width="65.94" height="31.64" rx="8.92" ry="8.92" transform="translate(689.3 -136.86) rotate(41.49)"/>
      <rect class="cls-13" x="485.73" y="843.27" width="32.33" height="115.04" transform="translate(606.53 -125.06) rotate(34.95)"/>
      <rect class="cls-13" x="453.93" y="815.14" width="32.33" height="115.04" transform="translate(768.55 -72.57) rotate(45.83)"/>
    </g>
    <g>
      <rect class="cls-14" x="411.2" y="888.31" width="82.18" height="122.26" transform="translate(-362.7 284.76) rotate(-25.33)"/>
      <rect class="cls-14" x="476.06" y="870.55" width="26.23" height="76.87" transform="translate(-541.54 852.44) rotate(-58.57)"/>
      <rect class="cls-14" x="383.21" y="914.34" width="26.32" height="77.14" transform="translate(657.71 1951.33) rotate(-172.08)"/>
    </g>
    <g>
      <rect class="cls-6" x="522.85" y="883.35" width="58.42" height="86.91" transform="translate(1236.43 92.91) rotate(70.16)"/>
      <rect class="cls-6" x="568.86" y="928.32" width="18.64" height="54.64" transform="translate(689.83 -155.7) rotate(36.91)"/>
      <rect class="cls-6" x="544.05" y="859.58" width="18.71" height="54.83" transform="translate(-437.7 1219.76) rotate(-76.6)"/>
    </g>
    <g>
      <rect class="cls-3" x="505.94" y="952.7" width="65.94" height="31.64" rx="8.92" ry="8.92" transform="translate(-559.41 1117.38) rotate(-68.63)"/>
      <rect class="cls-3" x="586.53" y="912.55" width="32.33" height="115.04" transform="translate(-489.32 1304.42) rotate(-75.17)"/>
      <rect class="cls-3" x="571.06" y="952.08" width="32.33" height="115.04" transform="translate(-577.18 1100.63) rotate(-64.29)"/>
    </g>
    <g>
      <rect class="cls-12" x="480.71" y="934.5" width="52.39" height="75.48" transform="translate(1203.38 1819.07) rotate(168.1)"/>
      <polygon class="cls-12" points="466.66 969.02 454.81 980.59 489.28 1013.89 501.13 1002.32 466.66 969.02"/>
      <polygon class="cls-12" points="543.31 952.78 558.87 958.6 540.71 1003.14 525.14 997.31 543.31 952.78"/>
    </g>
  </g>
  <g>
    <g>
      <rect class="cls-19" x="889.2" y="623.49" width="66.67" height="99.19" transform="translate(1971.02 1125.65) rotate(167.23)"/>
      <rect class="cls-19" x="875.57" y="667.42" width="21.28" height="62.37" transform="translate(2004.32 546.19) rotate(133.99)"/>
      <rect class="cls-19" x="956.76" y="648.91" width="21.35" height="62.58" transform="translate(299.1 -295.47) rotate(20.48)"/>
    </g>
    <g>
      <rect class="cls-9" x="977.56" y="725.22" width="42.5" height="61.24" transform="translate(-230.73 994.93) rotate(-48.12)"/>
      <polygon class="cls-9" points="1026.7 738.66 1028.91 725.41 990.38 720.14 988.17 733.39 1026.7 738.66"/>
      <polygon class="cls-9" points="984.31 786.03 971.34 789.68 961.88 751.83 974.85 748.18 984.31 786.03"/>
    </g>
    <g>
      <rect class="cls-8" x="980.81" y="820.13" width="53.5" height="25.67" rx="8.92" ry="8.92" transform="translate(377.04 -312.22) rotate(21.58)"/>
      <rect class="cls-8" x="992.99" y="838.05" width="26.23" height="93.33" transform="translate(264 -230.75) rotate(15.04)"/>
      <rect class="cls-8" x="960.97" y="825.38" width="26.23" height="93.33" transform="translate(479.24 -338.09) rotate(25.92)"/>
    </g>
    <g>
      <rect class="cls-13" x="876.19" y="713.87" width="53.5" height="25.67" rx="8.92" ry="8.92" transform="translate(-235.48 508.98) rotate(-28)"/>
      <rect class="cls-13" x="928.28" y="714.69" width="26.23" height="93.33" transform="translate(-265.74 668.07) rotate(-34.55)"/>
      <rect class="cls-13" x="897.87" y="730.86" width="26.23" height="93.33" transform="translate(-235.45 430.95) rotate(-23.66)"/>
    </g>
    <g>
      <rect class="cls-20" x="930.93" y="763.28" width="66.67" height="99.19" transform="translate(235.34 1842.07) rotate(-94.82)"/>
      <rect class="cls-20" x="933.37" y="742.17" width="21.28" height="62.37" transform="translate(917.22 1993.41) rotate(-128.07)"/>
      <rect class="cls-20" x="940.34" y="825.07" width="21.35" height="62.58" transform="translate(2156.8 427.58) rotate(118.42)"/>
    </g>
    <g>
      <rect class="cls-6" x="951.73" y="695.37" width="47.39" height="70.51" transform="translate(8.51 -11.22) rotate(.66)"/>
      <rect class="cls-6" x="997.2" y="696.81" width="15.12" height="44.33" transform="translate(-229.05 654.24) rotate(-32.58)"/>
      <rect class="cls-6" x="937.97" y="696.05" width="15.18" height="44.49" transform="translate(1329.62 1841.91) rotate(-146.09)"/>
    </g>
    <g>
      <rect class="cls-3" x="973.09" y="744.41" width="53.5" height="25.67" rx="8.92" ry="8.92" transform="translate(1238.75 1988.51) rotate(-138.12)"/>
      <rect class="cls-3" x="1006.03" y="662.54" width="26.23" height="93.33" transform="translate(1440.37 1877.2) rotate(-144.66)"/>
      <rect class="cls-3" x="1031.67" y="685.54" width="26.23" height="93.33" transform="translate(1239.01 1993.15) rotate(-133.78)"/>
    </g>
    <g>
      <rect class="cls-12" x="975.86" y="747.24" width="42.5" height="61.24" transform="translate(1915.43 -91.62) rotate(98.61)"/>
      <polygon class="cls-12" points="983.23 807.52 988.65 819.82 1023.75 803.09 1018.33 790.79 983.23 807.52"/>
      <polygon class="cls-12" points="992.67 744.66 1001.52 734.49 1030.2 760.95 1021.35 771.12 992.67 744.66"/>
    </g>
  </g>
  <g>
    <g>
      <rect class="cls-7" x="952.64" y="1051.15" width="83.57" height="124.32" transform="translate(-473.94 1382.08) rotate(-58.6)"/>
      <rect class="cls-7" x="989.87" y="1019.26" width="26.67" height="78.17" transform="translate(-22.28 2095.12) rotate(-91.85)"/>
      <rect class="cls-7" x="935.43" y="1108.24" width="26.76" height="78.44" transform="translate(2297.61 1778.05) rotate(154.64)"/>
    </g>
    <g>
      <rect class="cls-9" x="826.77" y="1071.23" width="53.27" height="76.76" transform="translate(1901.51 181.71) rotate(86.05)"/>
      <polygon class="cls-9" points="844.5 1149.68 854.49 1163.24 892.87 1133.21 882.88 1119.65 844.5 1149.68"/>
      <polygon class="cls-9" points="838.92 1070.21 846.97 1055.35 889.27 1079.91 881.22 1094.76 838.92 1070.21"/>
    </g>
    <g>
      <rect class="cls-8" x="742.91" y="1034.04" width="67.05" height="32.18" rx="8.92" ry="8.92" transform="translate(1915.68 1688.66) rotate(155.75)"/>
      <rect class="cls-8" x="714.73" y="945.14" width="32.88" height="116.98" transform="translate(1873.08 1491.4) rotate(149.2)"/>
      <rect class="cls-8" x="754.09" y="927.41" width="32.88" height="116.98" transform="translate(1830.75 1650.46) rotate(160.09)"/>
    </g>
    <g>
      <rect class="cls-13" x="929.81" y="1032.77" width="67.05" height="32.18" rx="8.92" ry="8.92" transform="translate(2238.92 415.62) rotate(106.17)"/>
      <rect class="cls-13" x="882.15" y="994.68" width="32.88" height="116.98" transform="translate(2087.12 343.24) rotate(99.62)"/>
      <rect class="cls-13" x="894.16" y="953.22" width="32.88" height="116.98" transform="translate(2177.2 513.22) rotate(110.51)"/>
    </g>
    <g>
      <rect class="cls-14" x="790.51" y="966.59" width="83.57" height="124.32" transform="translate(840.83 -294.49) rotate(39.34)"/>
      <rect class="cls-14" x="872.18" y="1005.96" width="26.67" height="78.17" transform="translate(116.04 -88.16) rotate(6.1)"/>
      <rect class="cls-14" x="791.4" y="939.64" width="26.76" height="78.44" transform="translate(111.58 2039.66) rotate(-107.41)"/>
    </g>
    <g>
      <rect class="cls-6" x="866.8" y="1066.41" width="59.4" height="88.37" transform="translate(2316.18 1257.73) rotate(134.83)"/>
      <rect class="cls-6" x="871.88" y="1119.36" width="18.96" height="55.56" transform="translate(2182.11 514.08) rotate(101.58)"/>
      <rect class="cls-6" x="924.16" y="1066.64" width="19.02" height="55.76" transform="translate(-206.04 216.59) rotate(-11.93)"/>
    </g>
    <g>
      <rect class="cls-3" x="817.73" y="1093.21" width="67.05" height="32.18" rx="8.92" ry="8.92" transform="translate(-74.48 61.35) rotate(-3.95)"/>
      <rect class="cls-3" x="861.13" y="1110.12" width="32.88" height="116.98" transform="translate(-198.25 179.47) rotate(-10.5)"/>
      <rect class="cls-3" x="818.07" y="1113.1" width="32.88" height="116.98" transform="translate(7.92 -5.6) rotate(.39)"/>
    </g>
    <g>
      <rect class="cls-12" x="808.46" y="1050.48" width="53.27" height="76.76" transform="translate(473.32 2412.53) rotate(-127.23)"/>
      <polygon class="cls-12" points="820.55 1050.46 804.76 1044.61 789.15 1090.77 804.94 1096.63 820.55 1050.46"/>
      <polygon class="cls-12" points="868.82 1113.85 870.23 1130.69 821.4 1133.37 819.98 1116.53 868.82 1113.85"/>
    </g>
  </g>
  <g>
    <g>
      <rect class="cls-10" x="634.14" y="770.27" width="91.58" height="136.25" transform="translate(1719.68 548.33) rotate(113.45)"/>
      <rect class="cls-10" x="664.11" y="856.54" width="29.23" height="85.67" transform="translate(1449.59 77.6) rotate(80.21)"/>
      <rect class="cls-10" x="709.6" y="751.43" width="29.33" height="85.96" transform="translate(-317.24 528.09) rotate(-33.3)"/>
    </g>
    <g>
      <rect class="cls-9" x="804.37" y="778.99" width="58.38" height="84.12" transform="translate(202.02 1805.98) rotate(-101.9)"/>
      <polygon class="cls-9" points="837.14 776.2 824.25 762.99 787.14 801.4 800.03 814.61 837.14 776.2"/>
      <polygon class="cls-9" points="855.24 861.61 848.75 878.96 799.12 858.72 805.61 841.37 855.24 861.61"/>
    </g>
    <g>
      <rect class="cls-8" x="889.37" y="856.32" width="73.48" height="35.26" rx="8.92" ry="8.92" transform="translate(-323.25 627.84) rotate(-32.2)"/>
      <rect class="cls-8" x="964.27" y="853.46" width="36.03" height="128.21" transform="translate(-358.09 816.58) rotate(-38.74)"/>
      <rect class="cls-8" x="924.23" y="878.66" width="36.03" height="128.21" transform="translate(-331.32 549.5) rotate(-27.86)"/>
    </g>
    <g>
      <rect class="cls-13" x="686.7" y="886" width="73.48" height="35.26" rx="8.92" ry="8.92" transform="translate(-274.35 1490.44) rotate(-81.78)"/>
      <rect class="cls-13" x="775.05" y="825.04" width="36.03" height="128.21" transform="translate(-118.9 1655.86) rotate(-88.32)"/>
      <rect class="cls-13" x="768.28" y="871.86" width="36.03" height="128.21" transform="translate(-298.27 1499.89) rotate(-77.44)"/>
    </g>
    <g>
      <rect class="cls-17" x="822.92" y="837.49" width="91.58" height="136.25" transform="translate(1138.39 2131.2) rotate(-148.6)"/>
      <rect class="cls-17" x="793.87" y="853.15" width="29.23" height="85.67" transform="translate(1645.4 1765.47) rotate(178.15)"/>
      <rect class="cls-17" x="891.48" y="912.61" width="29.33" height="85.96" transform="translate(1381.63 -272.48) rotate(64.64)"/>
    </g>
    <g>
      <rect class="cls-6" x="754.08" y="778.07" width="65.1" height="96.85" transform="translate(-346.58 959.63) rotate(-53.12)"/>
      <rect class="cls-6" x="787.14" y="754.09" width="20.77" height="60.89" transform="translate(-36.03 1530.67) rotate(-86.36)"/>
      <rect class="cls-6" x="738.29" y="819.03" width="20.85" height="61.11" transform="translate(1741.64 1394.08) rotate(160.13)"/>
    </g>
    <g>
      <rect class="cls-3" x="799.2" y="803.42" width="73.48" height="35.26" rx="8.92" ry="8.92" transform="translate(1823.2 1452.1) rotate(168.1)"/>
      <rect class="cls-3" x="780.36" y="696.56" width="36.03" height="128.21" transform="translate(1796.41 1229.68) rotate(161.56)"/>
      <rect class="cls-3" x="826.66" y="686.81" width="36.03" height="128.21" transform="translate(1780.78 1384.19) rotate(172.44)"/>
    </g>
    <g>
      <rect class="cls-12" x="827.38" y="798.73" width="58.38" height="84.12" transform="translate(841.81 -359.38) rotate(44.83)"/>
      <polygon class="cls-12" points="878.17 880.26 896.2 884.23 906.15 831.75 888.13 827.79 878.17 880.26"/>
      <polygon class="cls-12" points="816.18 818.78 812.09 800.71 864.69 790.41 868.78 808.47 816.18 818.78"/>
    </g>
  </g>
  <g>
    <g>
      <rect class="cls-2" x="1129.81" y="751.24" width="78.09" height="116.17" transform="translate(1133.46 2230.58) rotate(-123.27)"/>
      <rect class="cls-2" x="1113.48" y="743.42" width="24.92" height="73.04" transform="translate(1847.86 1943.94) rotate(-156.52)"/>
      <rect class="cls-2" x="1166.96" y="824.85" width="25.01" height="73.3" transform="translate(2040.39 -318.38) rotate(89.97)"/>
    </g>
    <g>
      <rect class="cls-9" x="1084.46" y="891.09" width="49.78" height="71.72" transform="translate(414.12 -340.55) rotate(21.37)"/>
      <polygon class="cls-9" points="1139.64 950.49 1155.09 947.48 1145.07 903.05 1129.62 906.07 1139.64 950.49"/>
      <polygon class="cls-9" points="1070.29 923.43 1060.96 910.69 1098.61 884.78 1107.93 897.52 1070.29 923.43"/>
    </g>
    <g>
      <rect class="cls-8" x="997.02" y="953.15" width="62.65" height="30.07" rx="8.92" ry="8.92" transform="translate(2015.68 -41.79) rotate(91.08)"/>
      <rect class="cls-8" x="955.62" y="933.17" width="30.72" height="109.31" transform="translate(1861.79 -72.86) rotate(84.53)"/>
      <rect class="cls-8" x="956.38" y="892.84" width="30.72" height="109.31" transform="translate(2006.74 69.55) rotate(95.42)"/>
    </g>
    <g>
      <rect class="cls-13" x="1070.66" y="794.79" width="62.65" height="30.07" rx="8.92" ry="8.92" transform="translate(813.1 -526.86) rotate(41.49)"/>
      <rect class="cls-13" x="1064.39" y="811.57" width="30.72" height="109.31" transform="translate(690.94 -462.32) rotate(34.95)"/>
      <rect class="cls-13" x="1034.18" y="784.85" width="30.72" height="109.31" transform="translate(920.48 -498.27) rotate(45.83)"/>
    </g>
    <g>
      <rect class="cls-15" x="993.58" y="854.37" width="78.09" height="116.17" transform="translate(-291.09 529.47) rotate(-25.33)"/>
      <rect class="cls-15" x="1055.2" y="837.5" width="24.92" height="73.04" transform="translate(-234.84 1329.34) rotate(-58.57)"/>
      <rect class="cls-15" x="966.98" y="879.11" width="25.01" height="73.3" transform="translate(1823.5 1957.69) rotate(-172.08)"/>
    </g>
    <g>
      <rect class="cls-6" x="1099.66" y="849.66" width="55.51" height="82.58" transform="translate(1582.75 -471.96) rotate(70.16)"/>
      <rect class="cls-6" x="1143.38" y="892.39" width="17.71" height="51.92" transform="translate(782.49 -507.94) rotate(36.91)"/>
      <rect class="cls-6" x="1119.81" y="827.07" width="17.77" height="52.1" transform="translate(37.21 1753.36) rotate(-76.6)"/>
    </g>
    <g>
      <rect class="cls-3" x="1076.91" y="913.61" width="62.65" height="30.07" rx="8.92" ry="8.92" transform="translate(-160.44 1622.21) rotate(-68.63)"/>
      <rect class="cls-3" x="1153.49" y="875.47" width="30.72" height="109.31" transform="translate(-29.45 1821.98) rotate(-75.17)"/>
      <rect class="cls-3" x="1138.79" y="913.03" width="30.72" height="109.31" transform="translate(-218.47 1587.67) rotate(-64.29)"/>
    </g>
    <g>
      <rect class="cls-12" x="1059.62" y="898.26" width="49.78" height="71.72" transform="translate(2338.32 1624.55) rotate(168.1)"/>
      <polygon class="cls-12" points="1046.27 931.06 1035.01 942.05 1067.76 973.69 1079.02 962.7 1046.27 931.06"/>
      <polygon class="cls-12" points="1119.1 915.63 1133.89 921.16 1116.63 963.48 1101.84 957.94 1119.1 915.63"/>
    </g>
  </g>
  <g class="cls-32">
    <g>
      <rect class="cls-11" x="1039.84" y="707.3" width="54.79" height="81.51" transform="translate(982.83 -552.5) rotate(51.26)"/>
      <rect class="cls-11" x="1090.42" y="740.08" width="17.48" height="51.25" transform="translate(290.68 -302.39) rotate(18.01)"/>
      <rect class="cls-11" x="1047.56" y="686.61" width="17.54" height="51.43" transform="translate(448.45 1832.02) rotate(-95.5)"/>
    </g>
    <g>
      <rect class="cls-9" x="1112.55" y="589.95" width="34.92" height="50.32" transform="translate(2048.19 1516.36) rotate(-164.09)"/>
      <polygon class="cls-9" points="1107.28 600.69 1096.7 603.83 1106.67 634.19 1117.25 631.05 1107.28 600.69"/>
      <polygon class="cls-9" points="1157.53 614.95 1164.9 623.23 1140.34 643.84 1132.97 635.57 1157.53 614.95"/>
    </g>
    <g>
      <rect class="cls-8" x="1130.76" y="621.14" width="43.96" height="21.1" rx="8.92" ry="8.92" transform="translate(611.17 1829.41) rotate(-94.39)"/>
      <rect class="cls-8" x="1180.72" y="575.78" width="21.56" height="76.7" transform="translate(814.55 1900.49) rotate(-100.94)"/>
      <rect class="cls-8" x="1182.88" y="604" width="21.56" height="76.7" transform="translate(552.36 1836.58) rotate(-90.05)"/>
    </g>
    <g>
      <rect class="cls-13" x="1089.92" y="736.67" width="43.96" height="21.1" rx="8.92" ry="8.92" transform="translate(1571.67 2005.49) rotate(-143.97)"/>
      <rect class="cls-13" x="1112.88" y="667.98" width="21.56" height="76.7" transform="translate(1754.2 1874.2) rotate(-150.52)"/>
      <rect class="cls-13" x="1135.77" y="684.63" width="21.56" height="76.7" transform="translate(1551.87 2016.41) rotate(-139.63)"/>
    </g>
    <g>
      <rect class="cls-5" x="1126.09" y="630.14" width="54.79" height="81.51" transform="translate(2487.8 656.63) rotate(149.2)"/>
      <rect class="cls-5" x="1122.84" y="674.46" width="17.48" height="51.25" transform="translate(2256.35 -10.88) rotate(115.96)"/>
      <rect class="cls-5" x="1181.6" y="639.32" width="17.54" height="51.43" transform="translate(29.5 -50.26) rotate(2.45)"/>
    </g>
    <g>
      <rect class="cls-6" x="1069.24" y="663.28" width="38.94" height="57.94" transform="translate(928.38 1972.41) rotate(-115.31)"/>
      <rect class="cls-6" x="1063.33" y="656.56" width="12.43" height="36.43" transform="translate(1630.03 1808.4) rotate(-148.56)"/>
      <rect class="cls-6" x="1084.11" y="700.48" width="12.47" height="36.56" transform="translate(1952.72 -261.95) rotate(97.93)"/>
    </g>
    <g>
      <rect class="cls-3" x="1072.81" y="653.19" width="43.96" height="21.1" rx="8.92" ry="8.92" transform="translate(2033.15 -207.24) rotate(105.91)"/>
      <rect class="cls-3" x="1041.58" y="628.41" width="21.56" height="76.7" transform="translate(1881.41 -263.13) rotate(99.36)"/>
      <rect class="cls-3" x="1049.34" y="601.19" width="21.56" height="76.7" transform="translate(2027 -133.75) rotate(110.25)"/>
    </g>
    <g>
      <rect class="cls-12" x="1098.33" y="634.07" width="34.92" height="50.32" transform="translate(-145.91 363.11) rotate(-17.37)"/>
      <polygon class="cls-12" points="1142.71 658.81 1149.84 650.38 1124.85 630.47 1117.72 638.9 1142.71 658.81"/>
      <polygon class="cls-12" points="1092.87 674.46 1082.17 671.58 1091.4 640.88 1102.1 643.75 1092.87 674.46"/>
    </g>
  </g>
  <g>
    <g>
      <rect class="cls-1" x="1256.05" y="1148.93" width="68.19" height="101.45" transform="translate(-185.21 236.86) rotate(-9.79)"/>
      <rect class="cls-1" x="1317.73" y="1143.62" width="21.76" height="63.79" transform="translate(-444.74 1223.01) rotate(-43.04)"/>
      <rect class="cls-1" x="1233.74" y="1157.99" width="21.84" height="64.01" transform="translate(1912.85 2777.07) rotate(-156.55)"/>
    </g>
    <g>
      <rect class="cls-9" x="1161.44" y="1019.86" width="43.47" height="62.64" transform="translate(2762.86 953.87) rotate(134.86)"/>
      <polygon class="cls-9" points="1153.78 1067.25 1150.82 1080.67 1189.89 1088.1 1192.85 1074.68 1153.78 1067.25"/>
      <polygon class="cls-9" points="1199.58 1021.11 1213.04 1018.07 1220.69 1057.24 1207.24 1060.28 1199.58 1021.11"/>
    </g>
    <g>
      <rect class="cls-8" x="1187.57" y="1023.28" width="54.71" height="26.26" rx="8.92" ry="8.92" transform="translate(1889.18 2484.02) rotate(-155.44)"/>
      <rect class="cls-8" x="1205.74" y="935.9" width="26.83" height="95.46" transform="translate(2074.34 2296.07) rotate(-161.99)"/>
      <rect class="cls-8" x="1237.78" y="950.54" width="26.83" height="95.46" transform="translate(1864.13 2476.89) rotate(-151.1)"/>
    </g>
    <g>
      <rect class="cls-13" x="1288.78" y="1137.37" width="54.71" height="26.26" rx="8.92" ry="8.92" transform="translate(2995.4 1636.27) rotate(154.98)"/>
      <rect class="cls-13" x="1265.28" y="1065.33" width="26.83" height="95.46" transform="translate(2950.87 1391.98) rotate(148.43)"/>
      <rect class="cls-13" x="1297.2" y="1050.43" width="26.83" height="95.46" transform="translate(2924.64 1662.62) rotate(159.32)"/>
    </g>
    <g>
      <rect class="cls-18" x="1223.98" y="1008.5" width="68.19" height="101.45" transform="translate(2276.22 -232.31) rotate(88.15)"/>
      <rect class="cls-18" x="1265.78" y="1068.77" width="21.76" height="63.79" transform="translate(1443.35 -576.7) rotate(54.91)"/>
      <rect class="cls-18" x="1263" y="983.51" width="21.84" height="64.01" transform="translate(-256.59 1573.81) rotate(-58.6)"/>
    </g>
    <g>
      <rect class="cls-6" x="1218.08" y="1106.58" width="48.47" height="72.12" transform="translate(2409.61 2361.82) rotate(-176.36)"/>
      <rect class="cls-6" x="1203.99" y="1130.31" width="15.47" height="45.34" transform="translate(2834.87 1556.79) rotate(150.39)"/>
      <rect class="cls-6" x="1264.4" y="1134.07" width="15.52" height="45.5" transform="translate(948.93 -532.01) rotate(36.88)"/>
    </g>
    <g>
      <rect class="cls-3" x="1187.56" y="1105.71" width="54.71" height="26.26" rx="8.92" ry="8.92" transform="translate(1142.83 -531.2) rotate(44.86)"/>
      <rect class="cls-3" x="1179.22" y="1119.14" width="26.83" height="95.46" transform="translate(980.22 -488.08) rotate(38.31)"/>
      <rect class="cls-3" x="1154.25" y="1094.3" width="26.83" height="95.46" transform="translate(1269.1 -488.12) rotate(49.2)"/>
    </g>
    <g>
      <rect class="cls-12" x="1200.93" y="1061.93" width="43.47" height="62.64" transform="translate(-93.82 2071.5) rotate(-78.42)"/>
      <polygon class="cls-12" points="1238.42 1063.68 1233.54 1050.84 1196.8 1066.06 1201.68 1078.91 1238.42 1063.68"/>
      <polygon class="cls-12" points="1225.44 1127.39 1215.86 1137.31 1187.97 1108.76 1197.55 1098.84 1225.44 1127.39"/>
    </g>
  </g>
  <g>
    <g>
      <rect class="cls-11" x="992" y="1087.47" width="66.46" height="98.87" transform="translate(1270.41 -374.23) rotate(51.26)"/>
      <rect class="cls-11" x="1053.35" y="1127.24" width="21.21" height="62.16" transform="translate(410.38 -272.25) rotate(18.01)"/>
      <rect class="cls-11" x="1001.36" y="1062.37" width="21.28" height="62.38" transform="translate(20.39 2205.64) rotate(-95.5)"/>
    </g>
    <g>
      <rect class="cls-9" x="1080.2" y="945.12" width="42.36" height="61.04" transform="translate(1893.21 2215.77) rotate(-164.09)"/>
      <polygon class="cls-9" points="1073.81 958.16 1060.97 961.96 1073.06 998.78 1085.9 994.98 1073.81 958.16"/>
      <polygon class="cls-9" points="1134.76 975.45 1143.7 985.49 1113.9 1010.49 1104.97 1000.46 1134.76 975.45"/>
    </g>
    <g>
      <rect class="cls-8" x="1102.29" y="982.96" width="53.32" height="25.59" rx="8.92" ry="8.92" transform="translate(222.56 2197.63) rotate(-94.39)"/>
      <rect class="cls-8" x="1162.88" y="927.94" width="26.15" height="93.03" transform="translate(442.28 2313.92) rotate(-100.94)"/>
      <rect class="cls-8" x="1165.51" y="962.17" width="26.15" height="93.03" transform="translate(170.94 2188.16) rotate(-90.05)"/>
    </g>
    <g>
      <rect class="cls-13" x="1052.74" y="1123.09" width="53.32" height="25.59" rx="8.92" ry="8.92" transform="translate(1284.31 2689.39) rotate(-143.97)"/>
      <rect class="cls-13" x="1080.59" y="1039.78" width="26.15" height="93.03" transform="translate(1511.12 2570.17) rotate(-150.52)"/>
      <rect class="cls-13" x="1108.36" y="1059.97" width="26.15" height="93.03" transform="translate(1259.23 2675.85) rotate(-139.63)"/>
    </g>
    <g>
      <rect class="cls-5" x="1096.62" y="993.88" width="66.46" height="98.87" transform="translate(2634.54 1361.05) rotate(149.2)"/>
      <rect class="cls-5" x="1092.68" y="1047.63" width="21.21" height="62.16" transform="translate(2556.1 558.93) rotate(115.96)"/>
      <rect class="cls-5" x="1163.96" y="1005.02" width="21.28" height="62.38" transform="translate(45.35 -49.24) rotate(2.45)"/>
    </g>
    <g>
      <rect class="cls-6" x="1027.66" y="1034.08" width="47.24" height="70.28" transform="translate(534.17 2476.71) rotate(-115.31)"/>
      <rect class="cls-6" x="1020.5" y="1025.92" width="15.08" height="44.19" transform="translate(1358.4 2478.42) rotate(-148.56)"/>
      <rect class="cls-6" x="1045.7" y="1079.2" width="15.13" height="44.34" transform="translate(2289.47 210.19) rotate(97.93)"/>
    </g>
    <g>
      <rect class="cls-3" x="1031.99" y="1021.83" width="53.32" height="25.59" rx="8.92" ry="8.92" transform="translate(2343.8 300.05) rotate(105.91)"/>
      <rect class="cls-3" x="994.11" y="991.77" width="26.15" height="93.03" transform="translate(2195.48 213.42) rotate(99.36)"/>
      <rect class="cls-3" x="1003.52" y="958.76" width="26.15" height="93.03" transform="translate(2311.55 399.38) rotate(110.25)"/>
    </g>
    <g>
      <rect class="cls-12" x="1062.95" y="998.64" width="42.36" height="61.04" transform="translate(-257.77 370.52) rotate(-17.37)"/>
      <polygon class="cls-12" points="1116.78 1028.66 1125.42 1018.43 1095.11 994.28 1086.46 1004.51 1116.78 1028.66"/>
      <polygon class="cls-12" points="1056.33 1047.63 1043.35 1044.15 1054.54 1006.9 1067.52 1010.39 1056.33 1047.63"/>
    </g>
  </g>
  <g>
    <g>
      <rect class="cls-1" x="679.04" y="1100.52" width="68.19" height="101.45" transform="translate(-185.38 138.03) rotate(-9.79)"/>
      <rect class="cls-1" x="740.72" y="1095.21" width="21.76" height="63.79" transform="translate(-566.96 816.2) rotate(-43.04)"/>
      <rect class="cls-1" x="656.73" y="1109.59" width="21.84" height="64.01" transform="translate(825.77 2454.6) rotate(-156.55)"/>
    </g>
    <g>
      <rect class="cls-9" x="584.43" y="971.45" width="43.47" height="62.64" transform="translate(1744.56 1280.35) rotate(134.86)"/>
      <polygon class="cls-9" points="576.77 1018.84 573.81 1032.26 612.88 1039.69 615.84 1026.27 576.77 1018.84"/>
      <polygon class="cls-9" points="622.58 972.71 636.03 969.67 643.68 1008.84 630.23 1011.88 622.58 972.71"/>
    </g>
    <g>
      <rect class="cls-8" x="610.56" y="974.87" width="54.71" height="26.26" rx="8.92" ry="8.92" transform="translate(807.48 2151.76) rotate(-155.44)"/>
      <rect class="cls-8" x="628.73" y="887.49" width="26.83" height="95.46" transform="translate(963.58 2023.18) rotate(-161.99)"/>
      <rect class="cls-8" x="660.77" y="902.13" width="26.83" height="95.46" transform="translate(805.36 2107.25) rotate(-151.1)"/>
    </g>
    <g>
      <rect class="cls-13" x="711.78" y="1088.97" width="54.71" height="26.26" rx="8.92" ry="8.92" transform="translate(1875.07 1788.08) rotate(154.98)"/>
      <rect class="cls-13" x="688.27" y="1016.92" width="26.83" height="95.46" transform="translate(1856.9 1604.41) rotate(148.43)"/>
      <rect class="cls-13" x="720.19" y="1002.02" width="26.83" height="95.46" transform="translate(1790.71 1772.73) rotate(159.32)"/>
    </g>
    <g>
      <rect class="cls-18" x="646.97" y="960.09" width="68.19" height="101.45" transform="translate(1669.42 297.55) rotate(88.15)"/>
      <rect class="cls-18" x="688.78" y="1020.36" width="21.76" height="63.79" transform="translate(1158.44 -125.15) rotate(54.91)"/>
      <rect class="cls-18" x="685.99" y="935.11" width="21.84" height="64.01" transform="translate(-491.66 1058.11) rotate(-58.6)"/>
    </g>
    <g>
      <rect class="cls-6" x="641.07" y="1058.18" width="48.47" height="72.12" transform="translate(1259.83 2228.48) rotate(-176.36)"/>
      <rect class="cls-6" x="626.99" y="1081.9" width="15.47" height="45.34" transform="translate(1732.27 1751.36) rotate(150.39)"/>
      <rect class="cls-6" x="687.4" y="1085.67" width="15.52" height="45.5" transform="translate(804.39 -195.38) rotate(36.88)"/>
    </g>
    <g>
      <rect class="cls-3" x="610.55" y="1057.3" width="54.71" height="26.26" rx="8.92" ry="8.92" transform="translate(940.71 -138.31) rotate(44.86)"/>
      <rect class="cls-3" x="602.21" y="1070.74" width="26.83" height="95.46" transform="translate(825.96 -140.79) rotate(38.31)"/>
      <rect class="cls-3" x="577.24" y="1045.89" width="26.83" height="95.46" transform="translate(1032.51 -68.13) rotate(49.2)"/>
    </g>
    <g>
      <rect class="cls-12" x="623.92" y="1013.52" width="43.47" height="62.64" transform="translate(-507.55 1467.56) rotate(-78.42)"/>
      <polygon class="cls-12" points="661.42 1015.28 656.53 1002.43 619.79 1017.66 624.67 1030.5 661.42 1015.28"/>
      <polygon class="cls-12" points="648.43 1078.98 638.85 1088.9 610.96 1060.35 620.54 1050.43 648.43 1078.98"/>
    </g>
  </g>
  <g>
    <g>
      <rect class="cls-2" x="1292.98" y="584.28" width="51" height="75.87" transform="translate(1521.61 2065.91) rotate(-123.27)"/>
      <rect class="cls-2" x="1282.31" y="579.17" width="16.27" height="47.7" transform="translate(2233.75 1670.3) rotate(-156.52)"/>
      <rect class="cls-2" x="1317.24" y="632.35" width="16.33" height="47.87" transform="translate(1981.04 -669.44) rotate(89.97)"/>
    </g>
    <g>
      <rect class="cls-9" x="1263.36" y="675.61" width="32.51" height="46.84" transform="translate(342.77 -418.28) rotate(21.37)"/>
      <polygon class="cls-9" points="1299.4 714.4 1309.49 712.44 1302.94 683.42 1292.85 685.39 1299.4 714.4"/>
      <polygon class="cls-9" points="1254.11 696.73 1248.01 688.41 1272.6 671.49 1278.69 679.81 1254.11 696.73"/>
    </g>
    <g>
      <rect class="cls-8" x="1206.25" y="716.14" width="40.92" height="19.64" rx="8.92" ry="8.92" transform="translate(1975.59 -486.9) rotate(91.08)"/>
      <rect class="cls-8" x="1179.22" y="703.09" width="20.06" height="71.39" transform="translate(1811.36 -515.44) rotate(84.53)"/>
      <rect class="cls-8" x="1179.71" y="676.75" width="20.06" height="71.39" transform="translate(2011.33 -404.72) rotate(95.42)"/>
    </g>
    <g>
      <rect class="cls-13" x="1254.35" y="612.72" width="40.92" height="19.64" rx="8.92" ry="8.92" transform="translate(732.38 -688.37) rotate(41.49)"/>
      <rect class="cls-13" x="1250.25" y="623.68" width="20.06" height="71.39" transform="translate(605 -603.04) rotate(34.95)"/>
      <rect class="cls-13" x="1230.52" y="606.23" width="20.06" height="71.39" transform="translate(836.68 -695.21) rotate(45.83)"/>
    </g>
    <g>
      <rect class="cls-15" x="1204.01" y="651.63" width="51" height="75.87" transform="translate(-176.81 592.27) rotate(-25.33)"/>
      <rect class="cls-15" x="1244.25" y="640.61" width="16.27" height="47.7" transform="translate(32.39 1386.67) rotate(-58.57)"/>
      <rect class="cls-15" x="1186.63" y="667.78" width="16.33" height="47.87" transform="translate(2282.94 1541.41) rotate(-172.08)"/>
    </g>
    <g>
      <rect class="cls-6" x="1273.29" y="648.55" width="36.25" height="53.93" transform="translate(1488.44 -768.52) rotate(70.16)"/>
      <rect class="cls-6" x="1301.84" y="676.46" width="11.57" height="33.91" transform="translate(678.54 -646.35) rotate(36.91)"/>
      <rect class="cls-6" x="1286.44" y="633.8" width="11.61" height="34.03" transform="translate(359.65 1757.04) rotate(-76.6)"/>
    </g>
    <g>
      <rect class="cls-3" x="1258.43" y="690.32" width="40.92" height="19.64" rx="8.92" ry="8.92" transform="translate(160.81 1635.9) rotate(-68.63)"/>
      <rect class="cls-3" x="1308.44" y="665.41" width="20.06" height="71.39" transform="translate(303.27 1796.22) rotate(-75.17)"/>
      <rect class="cls-3" x="1298.84" y="689.94" width="20.06" height="71.39" transform="translate(87.2 1590.04) rotate(-64.29)"/>
    </g>
    <g>
      <rect class="cls-12" x="1247.14" y="680.29" width="32.51" height="46.84" transform="translate(2644.73 1131.8) rotate(168.1)"/>
      <polygon class="cls-12" points="1238.42 701.71 1231.06 708.89 1252.45 729.56 1259.81 722.38 1238.42 701.71"/>
      <polygon class="cls-12" points="1285.98 691.64 1295.64 695.25 1284.37 722.88 1274.71 719.27 1285.98 691.64"/>
    </g>
  </g>
  <g>
    <g>
      <rect class="cls-10" x="1199.78" y="847.01" width="91.58" height="136.25" transform="translate(1209.4 -630.05) rotate(52.35)"/>
      <rect class="cls-10" x="1283.77" y="902.83" width="29.23" height="85.67" transform="translate(381.12 -372.94) rotate(19.11)"/>
      <rect class="cls-10" x="1213.83" y="812.09" width="29.33" height="85.96" transform="translate(470.22 2145.57) rotate(-94.4)"/>
    </g>
    <g>
      <rect class="cls-9" x="1275.44" y="730.21" width="58.38" height="84.12" transform="translate(2326.46 1892.23) rotate(-163)"/>
      <polygon class="cls-9" points="1267.1 747.45 1249.31 752.35 1265 803.41 1282.8 798.5 1267.1 747.45"/>
      <polygon class="cls-9" points="1350.63 772.89 1362.67 786.95 1320.97 820.61 1308.92 806.55 1350.63 772.89"/>
    </g>
    <g>
      <rect class="cls-8" x="1358.93" y="699.17" width="73.48" height="35.26" rx="8.92" ry="8.92" transform="translate(760.32 2151.39) rotate(-93.3)"/>
      <rect class="cls-8" x="1442.98" y="624.6" width="36.03" height="128.21" transform="translate(1032.14 2245.91) rotate(-99.84)"/>
      <rect class="cls-8" x="1445.7" y="671.83" width="36.03" height="128.21" transform="translate(701.24 2186) rotate(-88.96)"/>
    </g>
    <g>
      <rect class="cls-13" x="1286.98" y="890.95" width="73.48" height="35.26" rx="8.92" ry="8.92" transform="translate(1830.9 2431.9) rotate(-142.88)"/>
      <rect class="cls-13" x="1326.66" y="776.52" width="36.03" height="128.21" transform="translate(2074.78 2248.37) rotate(-149.42)"/>
      <rect class="cls-13" x="1364.38" y="805.07" width="36.03" height="128.21" transform="translate(1842.9 2435.84) rotate(-138.54)"/>
    </g>
    <g>
      <rect class="cls-17" x="1349.87" y="714.23" width="91.58" height="136.25" transform="translate(2995.59 770.4) rotate(150.3)"/>
      <rect class="cls-17" x="1343.51" y="787.6" width="29.23" height="85.67" transform="translate(2715.4 -1.38) rotate(117.05)"/>
      <rect class="cls-17" x="1442.84" y="730.76" width="29.33" height="85.96" transform="translate(50.61 -88.6) rotate(3.54)"/>
    </g>
    <g>
      <rect class="cls-6" x="1254.17" y="767.56" width="65.1" height="96.85" transform="translate(1070.36 2324.19) rotate(-114.22)"/>
      <rect class="cls-6" x="1244.87" y="755.71" width="20.77" height="60.89" transform="translate(1890.63 2124.07) rotate(-147.46)"/>
      <rect class="cls-6" x="1278.19" y="829.78" width="20.85" height="61.11" transform="translate(2340.49 -277.32) rotate(99.03)"/>
    </g>
    <g>
      <rect class="cls-3" x="1269.05" y="752.55" width="73.48" height="35.26" rx="8.92" ry="8.92" transform="translate(2424.1 -253.36) rotate(107)"/>
      <rect class="cls-3" x="1216.75" y="709.77" width="36.03" height="128.21" transform="translate(2219.88 -299.94) rotate(100.46)"/>
      <rect class="cls-3" x="1230.58" y="664.53" width="36.03" height="128.21" transform="translate(2381.66 -169.19) rotate(111.34)"/>
    </g>
    <g>
      <rect class="cls-12" x="1303.85" y="719.6" width="58.38" height="84.12" transform="translate(-160.02 404.04) rotate(-16.27)"/>
      <polygon class="cls-12" points="1378.04 761.82 1390.22 747.96 1349.09 713.89 1336.9 727.75 1378.04 761.82"/>
      <polygon class="cls-12" points="1294.25 786.38 1276.46 781.23 1292.86 730.2 1310.65 735.35 1294.25 786.38"/>
    </g>
  </g>
  <g class="cls-31">
    <g>
      <rect class="cls-7" x="1446.63" y="805.05" width="83.57" height="124.32" transform="translate(577.5 2329.28) rotate(-88.3)"/>
      <rect class="cls-7" x="1455.48" y="776.04" width="26.67" height="78.17" transform="translate(1542.65 2493.32) rotate(-121.55)"/>
      <rect class="cls-7" x="1452.34" y="880.25" width="26.76" height="78.44" transform="translate(3058.93 244.61) rotate(124.94)"/>
    </g>
    <g>
      <rect class="cls-9" x="1337.46" y="895.49" width="53.27" height="76.76" transform="translate(1385.43 -719.13) rotate(56.34)"/>
      <polygon class="cls-9" points="1376.22 973.09 1391.61 979.92 1410.07 934.81 1394.67 927.98 1376.22 973.09"/>
      <polygon class="cls-9" points="1331.99 906.82 1331.62 889.93 1380.53 890.3 1380.9 907.19 1331.99 906.82"/>
    </g>
    <g>
      <rect class="cls-8" x="1234.24" y="904.25" width="67.05" height="32.18" rx="8.92" ry="8.92" transform="translate(2757.9 436.88) rotate(126.05)"/>
      <rect class="cls-8" x="1188.97" y="843.89" width="32.88" height="116.98" transform="translate(2584.39 297.66) rotate(119.5)"/>
      <rect class="cls-8" x="1214.37" y="808.98" width="32.88" height="116.98" transform="translate(2689.05 492.08) rotate(130.39)"/>
    </g>
    <g>
      <rect class="cls-13" x="1395.95" y="810.54" width="67.05" height="32.18" rx="8.92" ry="8.92" transform="translate(1898.56 -756.62) rotate(76.46)"/>
      <rect class="cls-13" x="1358.94" y="803.97" width="32.88" height="116.98" transform="translate(1713.18 -725.43) rotate(69.92)"/>
      <rect class="cls-13" x="1348.83" y="762" width="32.88" height="116.98" transform="translate(1957.04 -658.35) rotate(80.8)"/>
    </g>
    <g>
      <rect class="cls-14" x="1263.91" y="811.93" width="83.57" height="124.32" transform="translate(164.85 -206.35) rotate(9.64)"/>
      <rect class="cls-14" x="1346.66" y="822.79" width="26.67" height="78.17" transform="translate(-231.32 616.64) rotate(-23.6)"/>
      <rect class="cls-14" x="1243.69" y="805.17" width="26.76" height="78.44" transform="translate(1603.47 2318.57) rotate(-137.11)"/>
    </g>
    <g>
      <rect class="cls-6" x="1372.32" y="869.19" width="59.4" height="88.37" transform="translate(2649.6 -201.72) rotate(105.13)"/>
      <rect class="cls-6" x="1397.49" y="924.84" width="18.96" height="55.56" transform="translate(1874.82 -680.83) rotate(71.88)"/>
      <rect class="cls-6" x="1416.82" y="853.11" width="19.02" height="55.76" transform="translate(-225.04 1169.99) rotate(-41.63)"/>
    </g>
    <g>
      <rect class="cls-3" x="1328.54" y="918.58" width="67.05" height="32.18" rx="8.92" ry="8.92" transform="translate(-289.69 911.54) rotate(-33.66)"/>
      <rect class="cls-3" x="1397.88" y="914.65" width="32.88" height="116.98" transform="translate(-294.05 1142.76) rotate(-40.2)"/>
      <rect class="cls-3" x="1361.95" y="938.57" width="32.88" height="116.98" transform="translate(-311.66 802.57) rotate(-29.32)"/>
    </g>
    <g>
      <rect class="cls-12" x="1311.27" y="886.54" width="53.27" height="76.76" transform="translate(2206.36 2300.14) rotate(-156.93)"/>
      <polygon class="cls-12" points="1306.25 898.77 1289.63 901.51 1298.95 949.34 1315.56 946.61 1306.25 898.77"/>
      <polygon class="cls-12" points="1379.58 929.91 1389.16 943.84 1348.07 970.36 1338.49 956.44 1379.58 929.91"/>
    </g>
  </g>
  <g>
    <g>
      <rect class="cls-11" x="557.23" y="1037.7" width="72.93" height="108.5" transform="translate(-562.87 1547.11) rotate(-82.95)"/>
      <rect class="cls-11" x="569.27" y="1010.98" width="23.27" height="68.22" transform="translate(-100.44 2027.65) rotate(-116.19)"/>
      <rect class="cls-11" x="558.04" y="1101.28" width="23.35" height="68.45" transform="translate(1804.25 1435.35) rotate(130.3)"/>
    </g>
    <g>
      <rect class="cls-9" x="385.33" y="1121.94" width="46.49" height="66.99" transform="translate(1232.17 247.88) rotate(61.7)"/>
      <polygon class="cls-9" points="415.92 1190.5 428.74 1197.69 448.45 1160 435.63 1152.81 415.92 1190.5"/>
      <polygon class="cls-9" points="382.89 1129.32 383.94 1114.61 426.41 1118.91 425.35 1133.62 382.89 1129.32"/>
    </g>
    <g>
      <rect class="cls-8" x="374.04" y="1104.32" width="58.51" height="28.08" rx="8.92" ry="8.92" transform="translate(1508.89 1555.43) rotate(131.4)"/>
      <rect class="cls-8" x="336.23" y="1046.63" width="28.69" height="102.09" transform="translate(1451.69 1437.34) rotate(124.86)"/>
      <rect class="cls-8" x="361.15" y="1018.37" width="28.69" height="102.09" transform="translate(1390.77 1573.27) rotate(135.74)"/>
    </g>
    <g>
      <rect class="cls-13" x="522.18" y="1036.07" width="58.51" height="28.08" rx="8.92" ry="8.92" transform="translate(1512.37 354.82) rotate(81.82)"/>
      <rect class="cls-13" x="487.17" y="1025.79" width="28.69" height="102.09" transform="translate(1415.48 318.04) rotate(75.27)"/>
      <rect class="cls-13" x="481.81" y="988.5" width="28.69" height="102.09" transform="translate(1500.11 474.85) rotate(86.16)"/>
    </g>
    <g>
      <rect class="cls-5" x="403.56" y="1027.02" width="72.93" height="108.5" transform="translate(294.76 -77.03) rotate(15)"/>
      <rect class="cls-5" x="476.56" y="1040.96" width="23.27" height="68.22" transform="translate(-312.11 206.95) rotate(-18.25)"/>
      <rect class="cls-5" x="388.51" y="1017.27" width="23.35" height="68.45" transform="translate(-117.64 2050.32) rotate(-131.76)"/>
    </g>
    <g>
      <rect class="cls-6" x="494.6" y="1084.68" width="51.84" height="77.12" transform="translate(1754.88 1028.62) rotate(110.48)"/>
      <rect class="cls-6" x="513.36" y="1133.5" width="16.54" height="48.49" transform="translate(1535.51 393.21) rotate(77.24)"/>
      <rect class="cls-6" x="535.99" y="1072.75" width="16.6" height="48.66" transform="translate(-543.61 534.66) rotate(-36.28)"/>
    </g>
    <g>
      <rect class="cls-3" x="458.41" y="1129.87" width="58.51" height="28.08" rx="8.92" ry="8.92" transform="translate(-484.06 367.96) rotate(-28.3)"/>
      <rect class="cls-3" x="515.58" y="1130.55" width="28.69" height="102.09" transform="translate(-580.12 514.67) rotate(-34.85)"/>
      <rect class="cls-3" x="482.42" y="1148.41" width="28.69" height="102.09" transform="translate(-444.32 305.12) rotate(-23.96)"/>
    </g>
    <g>
      <rect class="cls-12" x="440.63" y="1094.55" width="46.49" height="66.99" transform="translate(334.87 2340.91) rotate(-151.58)"/>
      <polygon class="cls-12" points="438.5 1102.76 423.84 1103.78 428.03 1146.1 442.69 1145.08 438.5 1102.76"/>
      <polygon class="cls-12" points="499.68 1135.79 506.86 1148.66 469 1168.36 461.82 1155.48 499.68 1135.79"/>
    </g>
  </g>
  <g class="cls-33">
    <g>
      <rect class="cls-10" x="542.84" y="1158.9" width="91.58" height="136.25" transform="translate(1617.05 335.72) rotate(74.71)"/>
      <rect class="cls-10" x="611.24" y="1232.51" width="29.23" height="85.67" transform="translate(1001.44 -94.74) rotate(41.47)"/>
      <rect class="cls-10" x="581.03" y="1122" width="29.33" height="85.96" transform="translate(-696.2 1372.45) rotate(-72.04)"/>
    </g>
    <g>
      <rect class="cls-9" x="668.41" y="1075.3" width="58.38" height="84.12" transform="translate(528.34 2423.68) rotate(-140.64)"/>
      <polygon class="cls-9" points="672.33 1080.13 654.01 1077.9 649.11 1131.08 667.43 1133.31 672.33 1080.13"/>
      <polygon class="cls-9" points="739.9 1135.43 745.69 1153.02 694.32 1168.29 688.52 1150.7 739.9 1135.43"/>
    </g>
    <g>
      <rect class="cls-8" x="766.16" y="1083.07" width="73.48" height="35.26" rx="8.92" ry="8.92" transform="translate(-499.67 1500.07) rotate(-70.94)"/>
      <rect class="cls-8" x="855.99" y="1035.46" width="36.03" height="128.21" transform="translate(-388.87 1714.44) rotate(-77.48)"/>
      <rect class="cls-8" x="840.53" y="1080.17" width="36.03" height="128.21" transform="translate(-532.61 1477.68) rotate(-66.6)"/>
    </g>
    <g>
      <rect class="cls-13" x="626.65" y="1233.05" width="73.48" height="35.26" rx="8.92" ry="8.92" transform="translate(-77.11 2457.32) rotate(-120.52)"/>
      <rect class="cls-13" x="690.61" y="1131.71" width="36.03" height="128.21" transform="translate(181.52 2482) rotate(-127.06)"/>
      <rect class="cls-13" x="714.64" y="1172.46" width="36.03" height="128.21" transform="translate(-53.82 2439.62) rotate(-116.18)"/>
    </g>
    <g>
      <rect class="cls-17" x="732.15" y="1093.19" width="91.58" height="136.25" transform="translate(1697.91 2213.7) rotate(172.66)"/>
      <rect class="cls-17" x="710.33" y="1148.67" width="29.23" height="85.67" transform="translate(2050.67 1624.71) rotate(139.41)"/>
      <rect class="cls-17" x="823.75" y="1133.9" width="29.33" height="85.96" transform="translate(598.36 -248.03) rotate(25.9)"/>
    </g>
    <g>
      <rect class="cls-6" x="631.86" y="1102.55" width="65.1" height="96.85" transform="translate(-464.43 1852.34) rotate(-91.86)"/>
      <rect class="cls-6" x="636.26" y="1080.97" width="20.77" height="60.89" transform="translate(109.21 2279.57) rotate(-125.1)"/>
      <rect class="cls-6" x="638.86" y="1162.16" width="20.85" height="61.11" transform="translate(2005.62 1259.63) rotate(121.39)"/>
    </g>
    <g>
      <rect class="cls-3" x="662.72" y="1098.24" width="73.48" height="35.26" rx="8.92" ry="8.92" transform="translate(2005.82 1282.75) rotate(129.36)"/>
      <rect class="cls-3" x="614.36" y="1028.17" width="36.03" height="128.21" transform="translate(1893.05 1152.76) rotate(122.82)"/>
      <rect class="cls-3" x="644.36" y="991.59" width="36.03" height="128.21" transform="translate(1883.24 1306.19) rotate(133.7)"/>
    </g>
    <g>
      <rect class="cls-12" x="698.72" y="1076.3" width="58.38" height="84.12" transform="translate(122.7 -70.89) rotate(6.09)"/>
      <polygon class="cls-12" points="769.46 1135.62 786 1127.44 760.92 1080.28 744.38 1088.46 769.46 1135.62"/>
      <polygon class="cls-12" points="682.63 1126.46 668.13 1114.93 702.71 1073.98 717.21 1085.51 682.63 1126.46"/>
    </g>
  </g>
  <g class="cls-34">
    <g>
      <rect class="cls-2" x="907.71" y="1111.26" width="78.09" height="116.17" transform="translate(2031.9 127.16) rotate(85.15)"/>
      <rect class="cls-2" x="958.04" y="1179.1" width="24.92" height="73.04" transform="translate(1328.46 -298.14) rotate(51.91)"/>
      <rect class="cls-2" x="949.75" y="1081.77" width="25.01" height="73.3" transform="translate(-479.21 1432.99) rotate(-61.6)"/>
    </g>
    <g>
      <rect class="cls-9" x="1030.18" y="1058.37" width="49.78" height="71.72" transform="translate(900.34 2606.36) rotate(-130.2)"/>
      <polygon class="cls-9" points="1039.63 1059.11 1024.61 1054.4 1012.28 1098.25 1027.3 1102.95 1039.63 1059.11"/>
      <polygon class="cls-9" points="1087.74 1115.92 1089.88 1131.56 1044.44 1136.43 1042.3 1120.78 1087.74 1115.92"/>
    </g>
    <g>
      <rect class="cls-8" x="1114.6" y="1081.49" width="62.65" height="30.07" rx="8.92" ry="8.92" transform="translate(-372.73 1553.9) rotate(-60.5)"/>
      <rect class="cls-8" x="1190.37" y="1051.9" width="30.72" height="109.31" transform="translate(-283.47 1785.19) rotate(-67.04)"/>
      <rect class="cls-8" x="1170.5" y="1087.01" width="30.72" height="109.31" transform="translate(-422.79 1490.82) rotate(-56.16)"/>
    </g>
    <g>
      <rect class="cls-13" x="974.46" y="1185.71" width="62.65" height="30.07" rx="8.92" ry="8.92" transform="translate(223.4 2557.67) rotate(-110.08)"/>
      <rect class="cls-13" x="1036.83" y="1107.06" width="30.72" height="109.31" transform="translate(485.24 2622.97) rotate(-116.63)"/>
      <rect class="cls-13" x="1050.68" y="1144.95" width="30.72" height="109.31" transform="translate(200.64 2551.11) rotate(-105.74)"/>
    </g>
    <g>
      <rect class="cls-15" x="1076.6" y="1085.41" width="78.09" height="116.17" transform="translate(2167.89 2345.59) rotate(-176.9)"/>
      <rect class="cls-15" x="1054.08" y="1124.1" width="24.92" height="73.04" transform="translate(2571.71 1628.59) rotate(149.85)"/>
      <rect class="cls-15" x="1151.44" y="1129.25" width="25.01" height="73.3" transform="translate(917.29 -462.98) rotate(36.34)"/>
    </g>
    <g>
      <rect class="cls-6" x="994.28" y="1076" width="55.51" height="82.58" transform="translate(-235.24 1961.18) rotate(-81.42)"/>
      <rect class="cls-6" x="1004.4" y="1055.42" width="17.71" height="51.92" transform="translate(453.36 2453.45) rotate(-114.66)"/>
      <rect class="cls-6" x="994.02" y="1123.9" width="17.77" height="52.1" transform="translate(2528.63 1169.47) rotate(131.83)"/>
    </g>
    <g>
      <rect class="cls-3" x="1025.53" y="1078.24" width="62.65" height="30.07" rx="8.92" ry="8.92" transform="translate(2569.74 1246.11) rotate(139.8)"/>
      <rect class="cls-3" x="988.89" y="1008.46" width="30.72" height="109.31" transform="translate(2466.69 1060.19) rotate(133.25)"/>
      <rect class="cls-3" x="1019.69" y="982.43" width="30.72" height="109.31" transform="translate(2481.45 1271.22) rotate(144.14)"/>
    </g>
    <g>
      <rect class="cls-12" x="1055.44" y="1063.89" width="49.78" height="71.72" transform="translate(357.44 -261.86) rotate(16.53)"/>
      <polygon class="cls-12" points="1112.5 1120.65 1127.63 1116.34 1113.89 1072.92 1098.75 1077.23 1112.5 1120.65"/>
      <polygon class="cls-12" points="1041.1 1099.55 1030.73 1087.64 1066.05 1058.64 1076.42 1070.55 1041.1 1099.55"/>
    </g>
  </g>
  <g>
    <rect class="cls-10" x="1376.31" y="1107.86" width="91.58" height="136.25" transform="translate(624.64 -488.16) rotate(24.81)"/>
    <rect class="cls-10" x="1468.43" y="1135.8" width="29.23" height="85.67" transform="translate(-156.88 230.35) rotate(-8.44)"/>
    <rect class="cls-10" x="1364.52" y="1087.64" width="29.33" height="85.96" transform="translate(1149.6 2899.17) rotate(-121.95)"/>
  </g>
  <g>
    <rect class="cls-9" x="1379.21" y="979.93" width="58.38" height="84.12" transform="translate(2980.05 1768.96) rotate(169.45)"/>
    <polygon class="cls-9" points="1363.64 1017.35 1350.13 1029.92 1387.66 1067.93 1401.17 1055.35 1363.64 1017.35"/>
    <polygon class="cls-9" points="1449.46 1001.27 1466.65 1008.17 1445.24 1057.31 1428.05 1050.41 1449.46 1001.27"/>
  </g>
  <g>
    <rect class="cls-8" x="1426.73" y="913.08" width="73.48" height="35.26" rx="8.92" ry="8.92" transform="translate(1414.67 2664.38) rotate(-120.84)"/>
    <rect class="cls-8" x="1490.38" y="811.49" width="36.03" height="128.21" transform="translate(1728.58 2605.74) rotate(-127.39)"/>
    <rect class="cls-8" x="1514.63" y="852.1" width="36.03" height="128.21" transform="translate(1396.63 2696.64) rotate(-116.5)"/>
  </g>
  <g>
    <rect class="cls-13" x="1451.62" y="1116.4" width="73.48" height="35.26" rx="8.92" ry="8.92" transform="translate(2767.37 2499.81) rotate(-170.43)"/>
    <rect class="cls-13" x="1457.5" y="999.98" width="36.03" height="128.21" transform="translate(2892.73 2204.67) rotate(-176.97)"/>
    <rect class="cls-13" x="1504.15" y="1007.85" width="36.03" height="128.21" transform="translate(2741.88 2478.49) rotate(-166.09)"/>
  </g>
  <g>
    <rect class="cls-17" x="1447.98" y="920.72" width="91.58" height="136.25" transform="translate(3133.54 267.53) rotate(122.75)"/>
    <rect class="cls-17" x="1468.11" y="1006" width="29.23" height="85.67" transform="translate(2518.77 -442.85) rotate(89.51)"/>
    <rect class="cls-17" x="1529.96" y="909.63" width="29.33" height="85.96" transform="translate(-253.93 710.7) rotate(-24)"/>
  </g>
  <g>
    <rect class="cls-6" x="1380.19" y="1020.61" width="65.1" height="96.85" transform="translate(1860.74 2783.09) rotate(-141.76)"/>
    <rect class="cls-6" x="1360.65" y="1026.7" width="20.77" height="60.89" transform="translate(2644.89 2229.59) rotate(-175.01)"/>
    <rect class="cls-6" x="1424.5" y="1076.93" width="20.85" height="61.11" transform="translate(2029.32 -604.89) rotate(71.48)"/>
  </g>
  <g>
    <rect class="cls-3" x="1371.72" y="1001.98" width="73.48" height="35.26" rx="8.92" ry="8.92" transform="translate(2153.07 -551.66) rotate(79.45)"/>
    <rect class="cls-3" x="1329.18" y="991.63" width="36.03" height="128.21" transform="translate(1960.41 -542.23) rotate(72.91)"/>
    <rect class="cls-3" x="1320.52" y="945.12" width="36.03" height="128.21" transform="translate(2197.17 -430.56) rotate(83.79)"/>
  </g>
  <g>
    <rect class="cls-12" x="1399.49" y="957.39" width="58.38" height="84.12" transform="translate(-294.16 1267.5) rotate(-43.82)"/>
    <polygon class="cls-12" points="1468.65 978.79 1473.04 960.86 1420.81 949.67 1416.42 967.6 1468.65 978.79"/>
    <polygon class="cls-12" points="1405.71 1039.31 1387.56 1042.97 1378.5 990.15 1396.66 986.48 1405.71 1039.31"/>
  </g>
  <g>
    <g>
      <rect class="cls-2" x="261.56" y="1124.19" width="51" height="75.87" transform="translate(1482.05 1232.28) rotate(107.24)"/>
      <rect class="cls-2" x="281.93" y="1172.1" width="16.27" height="47.7" transform="translate(1359.63 587.29) rotate(73.99)"/>
      <rect class="cls-2" x="300.78" y="1111.17" width="16.33" height="47.87" transform="translate(-651.7 456.08) rotate(-39.52)"/>
    </g>
    <g>
      <rect class="cls-9" x="354.8" y="1119.83" width="32.51" height="46.84" transform="translate(-600.13 1851.44) rotate(-108.12)"/>
      <polygon class="cls-9" points="370.33 1118.21 362.4 1111.68 344.17 1135.18 352.1 1141.71 370.33 1118.21"/>
      <polygon class="cls-9" points="385.5 1164.4 382.95 1174.4 354.26 1166.18 356.81 1156.19 385.5 1164.4"/>
    </g>
    <g>
      <rect class="cls-8" x="405.02" y="1157.14" width="40.92" height="19.64" rx="8.92" ry="8.92" transform="translate(-632.99 516.99) rotate(-38.42)"/>
      <rect class="cls-8" x="449.17" y="1152.01" width="20.06" height="71.39" transform="translate(-704.98 671.76) rotate(-44.96)"/>
      <rect class="cls-8" x="428.53" y="1168.38" width="20.06" height="71.39" transform="translate(-599.32 452.45) rotate(-34.07)"/>
    </g>
    <g>
      <rect class="cls-13" x="294.62" y="1185.8" width="40.92" height="19.64" rx="8.92" ry="8.92" transform="translate(-890.81 1468.75) rotate(-88)"/>
      <rect class="cls-13" x="342.71" y="1147.7" width="20.06" height="71.39" transform="translate(-798.99 1628.76) rotate(-94.54)"/>
      <rect class="cls-13" x="341.79" y="1174.02" width="20.06" height="71.39" transform="translate(-889.36 1425.76) rotate(-83.66)"/>
    </g>
    <g>
      <rect class="cls-15" x="370.12" y="1150.01" width="51" height="75.87" transform="translate(248.21 2431.33) rotate(-154.82)"/>
      <rect class="cls-15" x="353.55" y="1162.4" width="16.27" height="47.7" transform="translate(886.23 2310.02) rotate(171.93)"/>
      <rect class="cls-15" x="411.18" y="1189.42" width="16.33" height="47.87" transform="translate(1233.49 220.75) rotate(58.42)"/>
    </g>
    <g>
      <rect class="cls-6" x="327.27" y="1122.14" width="36.25" height="53.93" transform="translate(-819.18 860.16) rotate(-59.34)"/>
      <rect class="cls-6" x="343.12" y="1108.26" width="11.57" height="33.91" transform="translate(-759.46 1524.43) rotate(-92.58)"/>
      <rect class="cls-6" x="320" y="1147.16" width="11.61" height="34.03" transform="translate(1130.41 2066.42) rotate(153.91)"/>
    </g>
    <g>
      <rect class="cls-3" x="351.91" y="1133.29" width="40.92" height="19.64" rx="8.92" ry="8.92" transform="translate(1081.76 2113.75) rotate(161.88)"/>
      <rect class="cls-3" x="337.9" y="1076.25" width="20.06" height="71.39" transform="translate(1128.12 1977.28) rotate(155.34)"/>
      <rect class="cls-3" x="362.94" y="1068.06" width="20.06" height="71.39" transform="translate(998.08 2086.93) rotate(166.22)"/>
    </g>
    <g>
      <rect class="cls-12" x="368.73" y="1129.38" width="32.51" height="46.84" transform="translate(803.49 11.75) rotate(38.61)"/>
      <polygon class="cls-12" points="399.32 1173.34 409.54 1174.45 411.88 1144.8 401.66 1143.69 399.32 1173.34"/>
      <polygon class="cls-12" points="361.3 1143.04 357.94 1133.29 386.44 1124.42 389.79 1134.17 361.3 1143.04"/>
    </g>
  </g>
  <g>
    <g>
      <rect class="cls-2" x="1298.98" y="1077.22" width="51" height="75.87" transform="translate(301.59 -281.81) rotate(13.69)"/>
      <rect class="cls-2" x="1349.92" y="1086.21" width="16.27" height="47.7" transform="translate(-293.2 518.54) rotate(-19.55)"/>
      <rect class="cls-2" x="1288" y="1071.05" width="16.33" height="47.87" transform="translate(1381.2 2789.61) rotate(-133.06)"/>
    </g>
    <g>
      <rect class="cls-9" x="1284.2" y="1009.07" width="32.51" height="46.84" transform="translate(2890.19 1512.03) rotate(158.34)"/>
      <polygon class="cls-9" points="1275.51 1034.75 1269.48 1043.08 1294.06 1059.81 1300.09 1051.49 1275.51 1034.75"/>
      <polygon class="cls-9" points="1320.67 1016.76 1330.8 1018.68 1324.38 1047.83 1314.25 1045.9 1320.67 1016.76"/>
    </g>
    <g>
      <rect class="cls-8" x="1300.29" y="966.88" width="40.92" height="19.64" rx="8.92" ry="8.92" transform="translate(1477.5 2611.86) rotate(-131.96)"/>
      <rect class="cls-8" x="1329.35" y="906.06" width="20.06" height="71.39" transform="translate(1718.58 2534.57) rotate(-138.5)"/>
      <rect class="cls-8" x="1346.96" y="925.65" width="20.06" height="71.39" transform="translate(1423.82 2623.02) rotate(-127.62)"/>
    </g>
    <g>
      <rect class="cls-13" x="1335.72" y="1075.3" width="40.92" height="19.64" rx="8.92" ry="8.92" transform="translate(2741.07 2133.35) rotate(178.46)"/>
      <rect class="cls-13" x="1331.62" y="1012.59" width="20.06" height="71.39" transform="translate(2817.42 1897.41) rotate(171.91)"/>
      <rect class="cls-13" x="1357.95" y="1011.88" width="20.06" height="71.39" transform="translate(2683.19 2160.69) rotate(-177.2)"/>
    </g>
    <g>
      <rect class="cls-15" x="1318.05" y="967.27" width="51" height="75.87" transform="translate(2773.32 126.96) rotate(111.64)"/>
      <rect class="cls-15" x="1335.81" y="1015.32" width="16.27" height="47.7" transform="translate(2091.43 -486.4) rotate(78.39)"/>
      <rect class="cls-15" x="1359.28" y="956.02" width="16.33" height="47.87" transform="translate(-314.81 965.04) rotate(-35.12)"/>
    </g>
    <g>
      <rect class="cls-6" x="1289.76" y="1030.76" width="36.25" height="53.93" transform="translate(1989.77 2595.38) rotate(-152.88)"/>
      <rect class="cls-6" x="1278.04" y="1038.75" width="11.57" height="33.91" transform="translate(2672.94 1968.43) rotate(173.88)"/>
      <rect class="cls-6" x="1318.33" y="1059.34" width="11.61" height="34.03" transform="translate(1604.96 -606.8) rotate(60.37)"/>
    </g>
    <g>
      <rect class="cls-3" x="1279.78" y="1021.36" width="40.92" height="19.64" rx="8.92" ry="8.92" transform="translate(1778.64 -557.87) rotate(68.34)"/>
      <rect class="cls-3" x="1260.61" y="1021.8" width="20.06" height="71.39" transform="translate(1602 -562.08) rotate(61.79)"/>
      <rect class="cls-3" x="1250.89" y="997.31" width="20.06" height="71.39" transform="translate(1871.67 -478.28) rotate(72.68)"/>
    </g>
    <g>
      <rect class="cls-12" x="1292.87" y="994.57" width="32.51" height="46.84" transform="translate(-276.21 1504.66) rotate(-54.93)"/>
      <polygon class="cls-12" points="1328.74 1002.41 1329.22 992.15 1299.48 991.64 1299 1001.9 1328.74 1002.41"/>
      <polygon class="cls-12" points="1300.85 1042.24 1291.33 1046.19 1280.7 1018.3 1290.23 1014.34 1300.85 1042.24"/>
    </g>
  </g>
  <g>
    <g>
      <rect class="cls-11" x="604.66" y="783.83" width="75.65" height="112.54" transform="translate(895.69 -186.76) rotate(51.26)"/>
      <rect class="cls-11" x="674.51" y="829.1" width="24.14" height="70.76" transform="translate(301 -169.95) rotate(18.01)"/>
      <rect class="cls-11" x="615.32" y="755.26" width="24.22" height="71.01" transform="translate(-99.6 1491.05) rotate(-95.5)"/>
    </g>
    <g>
      <rect class="cls-9" x="705.06" y="621.79" width="48.22" height="69.48" transform="translate(1250.5 1487.77) rotate(-164.09)"/>
      <polygon class="cls-9" points="697.79 636.63 683.17 640.96 696.94 682.88 711.56 678.55 697.79 636.63"/>
      <polygon class="cls-9" points="767.17 656.32 777.34 667.75 743.43 696.21 733.26 684.78 767.17 656.32"/>
    </g>
    <g>
      <rect class="cls-8" x="730.21" y="664.86" width="60.7" height="29.13" rx="8.92" ry="8.92" transform="translate(141.36 1489.77) rotate(-94.39)"/>
      <rect class="cls-8" x="799.18" y="602.24" width="29.76" height="105.9" transform="translate(325.21 1578.76) rotate(-100.94)"/>
      <rect class="cls-8" x="802.18" y="641.2" width="29.76" height="105.9" transform="translate(123.63 1511.82) rotate(-90.05)"/>
    </g>
    <g>
      <rect class="cls-13" x="673.81" y="824.38" width="60.7" height="29.13" rx="8.92" ry="8.92" transform="translate(780.23 1931.59) rotate(-143.97)"/>
      <rect class="cls-13" x="705.51" y="729.54" width="29.76" height="105.9" transform="translate(962.42 1818.19) rotate(-150.52)"/>
      <rect class="cls-13" x="737.12" y="752.52" width="29.76" height="105.9" transform="translate(803.28 1906.23) rotate(-139.63)"/>
    </g>
    <g>
      <rect class="cls-5" x="723.75" y="677.29" width="75.65" height="112.54" transform="translate(1791.34 973.77) rotate(149.2)"/>
      <rect class="cls-5" x="719.27" y="738.48" width="24.14" height="70.76" transform="translate(1747.25 455.05) rotate(115.96)"/>
      <rect class="cls-5" x="800.41" y="689.97" width="24.22" height="71.01" transform="translate(31.74 -34.06) rotate(2.45)"/>
    </g>
    <g>
      <rect class="cls-6" x="645.26" y="723.05" width="53.77" height="80" transform="translate(269.72 1696.91) rotate(-115.31)"/>
      <rect class="cls-6" x="637.11" y="713.77" width="17.16" height="50.3" transform="translate(811.09 1706.16) rotate(-148.56)"/>
      <rect class="cls-6" x="665.8" y="774.41" width="17.22" height="50.47" transform="translate(1559.48 242.06) rotate(97.93)"/>
    </g>
    <g>
      <rect class="cls-3" x="650.19" y="709.11" width="60.7" height="29.13" rx="8.92" ry="8.92" transform="translate(1563.02 267.52) rotate(105.91)"/>
      <rect class="cls-3" x="607.07" y="674.9" width="29.76" height="105.9" transform="translate(1441.27 232.58) rotate(99.36)"/>
      <rect class="cls-3" x="617.78" y="637.32" width="29.76" height="105.9" transform="translate(1499.21 335.57) rotate(110.25)"/>
    </g>
    <g>
      <rect class="cls-12" x="685.43" y="682.72" width="48.22" height="69.48" transform="translate(-181.81 244.5) rotate(-17.37)"/>
      <polygon class="cls-12" points="746.7 716.88 756.55 705.24 722.04 677.75 712.19 689.39 746.7 716.88"/>
      <polygon class="cls-12" points="677.89 738.48 663.12 734.51 675.86 692.11 690.63 696.08 677.89 738.48"/>
    </g>
  </g>
  <g>
    <g>
      <rect class="cls-2" x="467.71" y="757.74" width="78.09" height="116.17" transform="translate(65.83 1669.03) rotate(-120.82)"/>
      <rect class="cls-2" x="452.68" y="748.11" width="24.92" height="73.04" transform="translate(540.34 1693.67) rotate(-154.07)"/>
      <rect class="cls-2" x="502.63" y="831.76" width="25.01" height="73.3" transform="translate(1404.52 390.42) rotate(92.42)"/>
    </g>
    <g>
      <rect class="cls-9" x="417.4" y="894.94" width="49.78" height="71.72" transform="translate(413.64 -99.34) rotate(23.82)"/>
      <polygon class="cls-9" points="471.55 955.61 487.11 953.26 478.99 908.45 463.43 910.8 471.55 955.61"/>
      <polygon class="cls-9" points="403.41 925.62 394.64 912.49 433.35 888.21 442.13 901.34 403.41 925.62"/>
    </g>
    <g>
      <rect class="cls-8" x="328.27" y="953.5" width="62.65" height="30.07" rx="8.92" ry="8.92" transform="translate(1348.41 669.18) rotate(93.53)"/>
      <rect class="cls-8" x="286.08" y="931.05" width="30.72" height="109.31" transform="translate(1269.91 632.77) rotate(86.98)"/>
      <rect class="cls-8" x="288.56" y="890.79" width="30.72" height="109.31" transform="translate(1282.07 773.78) rotate(97.87)"/>
    </g>
    <g>
      <rect class="cls-13" x="408.61" y="798.43" width="62.65" height="30.07" rx="8.92" ry="8.92" transform="translate(687.65 -77.55) rotate(43.94)"/>
      <rect class="cls-13" x="399.95" y="814.22" width="30.72" height="109.31" transform="translate(613.08 -73.63) rotate(37.4)"/>
      <rect class="cls-13" x="370.9" y="786.23" width="30.72" height="109.31" transform="translate(756.89 -7.01) rotate(48.28)"/>
    </g>
    <g>
      <rect class="cls-15" x="327.2" y="854.96" width="78.09" height="116.17" transform="translate(-326.17 214.23) rotate(-22.88)"/>
      <rect class="cls-15" x="390.43" y="839.62" width="24.92" height="73.04" transform="translate(-549.09 722.29) rotate(-56.12)"/>
      <rect class="cls-15" x="300.51" y="877.42" width="25.01" height="73.3" transform="translate(456.46 1869.54) rotate(-169.63)"/>
    </g>
    <g>
      <rect class="cls-6" x="434.12" y="854.31" width="55.51" height="82.58" transform="translate(1178.44 187.11) rotate(72.61)"/>
      <rect class="cls-6" x="476.64" y="898.08" width="17.71" height="51.92" transform="translate(696.14 -98.3) rotate(39.36)"/>
      <rect class="cls-6" x="455.88" y="831.82" width="17.77" height="52.1" transform="translate(-487.42 1070.66) rotate(-74.15)"/>
    </g>
    <g>
      <rect class="cls-3" x="409.77" y="917.41" width="62.65" height="30.07" rx="8.92" ry="8.92" transform="translate(-590.07 959.34) rotate(-66.18)"/>
      <rect class="cls-3" x="486.23" y="881.86" width="30.72" height="109.31" transform="translate(-541.64 1137.32) rotate(-72.72)"/>
      <rect class="cls-3" x="469.94" y="918.76" width="30.72" height="109.31" transform="translate(-601.92 941.82) rotate(-61.84)"/>
    </g>
    <g>
      <rect class="cls-12" x="392.27" y="901.04" width="49.78" height="71.72" transform="translate(982.49 1792.59) rotate(170.55)"/>
      <polygon class="cls-12" points="379.09 932.21 367.37 942.71 398.74 975.72 410.46 965.22 379.09 932.21"/>
      <polygon class="cls-12" points="452.51 919.91 467.05 926.07 448 967.6 433.46 961.44 452.51 919.91"/>
    </g>
  </g>
  <g>
    <g>
      <rect class="cls-7" x="80.62" y="1092.91" width="83.57" height="124.32" transform="translate(1248.73 871.27) rotate(81.91)"/>
      <rect class="cls-7" x="137.24" y="1163.98" width="26.67" height="78.17" transform="translate(954.41 295.38) rotate(48.66)"/>
      <rect class="cls-7" x="122.5" y="1060.49" width="26.76" height="78.44" transform="translate(-917.31 755.31) rotate(-64.85)"/>
    </g>
    <g>
      <rect class="cls-9" x="206.94" y="1029.87" width="53.27" height="76.76" transform="translate(-381.36 1972.43) rotate(-133.45)"/>
      <polygon class="cls-9" points="214.96 1031.65 198.63 1027.54 188.11 1075.13 204.44 1079.24 214.96 1031.65"/>
      <polygon class="cls-9" points="269.81 1089.44 273.04 1106.02 224.79 1113.97 221.55 1097.39 269.81 1089.44"/>
    </g>
    <g>
      <rect class="cls-8" x="297.28" y="1049.11" width="67.05" height="32.18" rx="8.92" ry="8.92" transform="translate(-770.83 890.64) rotate(-63.74)"/>
      <rect class="cls-8" x="378.86" y="1013.8" width="32.88" height="116.98" transform="translate(-747.48 1082.76) rotate(-70.29)"/>
      <rect class="cls-8" x="359.77" y="1052.51" width="32.88" height="116.98" transform="translate(-771.6 869.34) rotate(-59.4)"/>
    </g>
    <g>
      <rect class="cls-13" x="153.85" y="1168.95" width="67.05" height="32.18" rx="8.92" ry="8.92" transform="translate(-826.59 1826.34) rotate(-113.33)"/>
      <rect class="cls-13" x="218.16" y="1082.04" width="32.88" height="116.98" transform="translate(-637.56 1912) rotate(-119.87)"/>
      <rect class="cls-13" x="235.25" y="1121.67" width="32.88" height="116.98" transform="translate(-782.38 1802.12) rotate(-108.99)"/>
    </g>
    <g>
      <rect class="cls-14" x="259.51" y="1055.06" width="83.57" height="124.32" transform="translate(605.48 2233.65) rotate(179.85)"/>
      <rect class="cls-14" x="236.52" y="1099.4" width="26.67" height="78.17" transform="translate(1085.07 1951.51) rotate(146.61)"/>
      <rect class="cls-14" x="340.88" y="1099" width="26.76" height="78.44" transform="translate(679 -8.77) rotate(33.1)"/>
    </g>
    <g>
      <rect class="cls-6" x="169.99" y="1050.7" width="59.4" height="88.37" transform="translate(-909.02 1191.89) rotate(-84.66)"/>
      <rect class="cls-6" x="178.65" y="1029.27" width="18.96" height="55.56" transform="translate(-657.92 1718.07) rotate(-117.91)"/>
      <rect class="cls-6" x="171.72" y="1103.06" width="19.02" height="55.76" transform="translate(1178.34 1694.54) rotate(128.58)"/>
    </g>
    <g>
      <rect class="cls-3" x="201.91" y="1051.02" width="67.05" height="32.18" rx="8.92" ry="8.92" transform="translate(1140.19 1679.95) rotate(136.55)"/>
      <rect class="cls-3" x="160.96" y="979.59" width="32.88" height="116.98" transform="translate(1086.56 1569.6) rotate(130.01)"/>
      <rect class="cls-3" x="192.3" y="949.91" width="32.88" height="116.98" transform="translate(1006.77 1659.23) rotate(140.89)"/>
    </g>
    <g>
      <rect class="cls-12" x="234.27" y="1034.23" width="53.27" height="76.76" transform="translate(253.38 -31.25) rotate(13.28)"/>
      <polygon class="cls-12" points="296.54 1092.99 312.45 1087.47 295.14 1041.91 279.23 1047.43 296.54 1092.99"/>
      <polygon class="cls-12" points="218.98 1074.77 207.18 1062.68 243.16 1029.56 254.97 1041.65 218.98 1074.77"/>
    </g>
  </g>
  <g class="cls-30">
    <g>
      <rect class="cls-10" x="212.84" y="875.59" width="91.58" height="136.25" transform="translate(1236.68 973.7) rotate(107.08)"/>
      <rect class="cls-10" x="249.58" y="961.62" width="29.23" height="85.67" transform="translate(1155.41 471.09) rotate(73.84)"/>
      <rect class="cls-10" x="283.14" y="852.11" width="29.33" height="85.96" transform="translate(-502.85 396.26) rotate(-39.67)"/>
    </g>
    <g>
      <rect class="cls-9" x="380.19" y="867.37" width="58.38" height="84.12" transform="translate(-325.85 1583.29) rotate(-108.27)"/>
      <polygon class="cls-9" points="407.97 864.46 393.69 852.76 361.07 895.06 375.35 906.75 407.97 864.46"/>
      <polygon class="cls-9" points="435.43 947.34 430.9 965.3 379.34 950.69 383.86 932.73 435.43 947.34"/>
    </g>
    <g>
      <rect class="cls-8" x="470.49" y="934.1" width="73.48" height="35.26" rx="8.92" ry="8.92" transform="translate(-482.71 523.84) rotate(-38.57)"/>
      <rect class="cls-8" x="549.88" y="924.73" width="36.03" height="128.21" transform="translate(-533.46 693.36) rotate(-45.11)"/>
      <rect class="cls-8" x="512.89" y="954.23" width="36.03" height="128.21" transform="translate(-480.85 475) rotate(-34.23)"/>
    </g>
    <g>
      <rect class="cls-13" x="272.37" y="986.1" width="73.48" height="35.26" rx="8.92" ry="8.92" transform="translate(-704.07 1280.3) rotate(-88.15)"/>
      <rect class="cls-13" x="358.67" y="917.49" width="36.03" height="128.21" transform="translate(-570.77 1437.39) rotate(-94.7)"/>
      <rect class="cls-13" x="357.15" y="964.78" width="36.03" height="128.21" transform="translate(-688.16 1290.94) rotate(-83.81)"/>
    </g>
    <g>
      <rect class="cls-17" x="407.91" y="921.44" width="91.58" height="136.25" transform="translate(446.18 2078.16) rotate(-154.97)"/>
      <rect class="cls-17" x="378.16" y="943.86" width="29.23" height="85.67" transform="translate(922.56 1907.1) rotate(171.78)"/>
      <rect class="cls-17" x="481.78" y="992.11" width="29.33" height="85.96" transform="translate(1115.76 68.49) rotate(58.27)"/>
    </g>
    <g>
      <rect class="cls-6" x="330.79" y="871.63" width="65.1" height="96.85" transform="translate(-613.78 765.97) rotate(-59.49)"/>
      <rect class="cls-6" x="359.13" y="846.69" width="20.77" height="60.89" transform="translate(-489 1288.07) rotate(-92.73)"/>
      <rect class="cls-6" x="317.8" y="916.65" width="20.85" height="61.11" transform="translate(1041.47 1651.63) rotate(153.76)"/>
    </g>
    <g>
      <rect class="cls-3" x="375" y="891.54" width="73.48" height="35.26" rx="8.92" ry="8.92" transform="translate(1087.77 1643.41) rotate(161.73)"/>
      <rect class="cls-3" x="349.7" y="789.22" width="36.03" height="128.21" transform="translate(1059.62 1473.52) rotate(155.18)"/>
      <rect class="cls-3" x="394.62" y="774.39" width="36.03" height="128.21" transform="translate(1015.01 1552.97) rotate(166.07)"/>
    </g>
    <g>
      <rect class="cls-12" x="405.25" y="884.44" width="58.38" height="84.12" transform="translate(670.43 -69.21) rotate(38.46)"/>
      <polygon class="cls-12" points="460.29 963.33 478.64 965.27 482.71 912.01 464.36 910.07 460.29 963.33"/>
      <polygon class="cls-12" points="391.86 909.1 385.79 891.6 436.92 875.52 442.99 893.02 391.86 909.1"/>
    </g>
  </g>
</svg>