<?xml version="1.0" encoding="UTF-8"?>
<svg id="Layer_1" data-name="Layer 1" xmlns="http://www.w3.org/2000/svg" xmlns:xlink="http://www.w3.org/1999/xlink" version="1.1" viewBox="0 0 2000 1200">
  <defs>
    <style>
      .cls-1 {
        fill: #cccdce;
      }

      .cls-1, .cls-2, .cls-3, .cls-4, .cls-5, .cls-6, .cls-7 {
        stroke-width: 0px;
      }

      .cls-8 {
        fill: #534e56;
      }

      .cls-8, .cls-9, .cls-10, .cls-11, .cls-12, .cls-13, .cls-14, .cls-15, .cls-16, .cls-17 {
        stroke: #231f20;
        stroke-miterlimit: 10;
      }

      .cls-2 {
        fill: url(#linear-gradient);
      }

      .cls-3, .cls-11, .cls-17 {
        fill: #b09c9a;
      }

      .cls-9 {
        fill: #585759;
      }

      .cls-10 {
        fill: #e7af5f;
        opacity: .73;
      }

      .cls-11 {
        stroke-width: .25px;
      }

      .cls-12, .cls-6 {
        fill: #534f57;
      }

      .cls-4 {
        fill: #c7c8c9;
      }

      .cls-13 {
        fill: url(#radial-gradient);
      }

      .cls-14 {
        fill: #3c86c6;
      }

      .cls-15 {
        fill: #b19782;
      }

      .cls-5 {
        fill: #c4c5c5;
      }

      .cls-16 {
        fill: #df724a;
        opacity: .7;
      }

      .cls-7 {
        fill: #afaeaf;
      }
    </style>
    <linearGradient id="linear-gradient" x1="478.55" y1="389.24" x2="1431.67" y2="389.24" gradientTransform="translate(613.77 1393.08) rotate(-90)" gradientUnits="userSpaceOnUse">
      <stop offset="0" stop-color="#fff"/>
      <stop offset="1" stop-color="#4995d1"/>
    </linearGradient>
    <radialGradient id="radial-gradient" cx="1662.98" cy="230.55" fx="1662.98" fy="230.55" r="95.43" gradientUnits="userSpaceOnUse">
      <stop offset="0" stop-color="#fffcea" stop-opacity=".62"/>
      <stop offset="0" stop-color="#fcf5de" stop-opacity=".62"/>
      <stop offset=".03" stop-color="rgba(246, 227, 190, .61)" stop-opacity=".61"/>
      <stop offset=".07" stop-color="rgba(239, 204, 148, .61)" stop-opacity=".61"/>
      <stop offset=".11" stop-color="rgba(234, 187, 118, .61)" stop-opacity=".61"/>
      <stop offset=".16" stop-color="rgba(231, 177, 99, .61)" stop-opacity=".61"/>
      <stop offset=".2" stop-color="#e7ae5e" stop-opacity=".61"/>
      <stop offset=".25" stop-color="#e7af5f" stop-opacity=".5"/>
      <stop offset=".66" stop-color="#f3903f" stop-opacity=".9"/>
      <stop offset=".89" stop-color="#ed683c"/>
      <stop offset="1" stop-color="#df724a"/>
    </radialGradient>
  </defs>
  <rect class="cls-2" x="-35.26" y="-38.58" width="2076.54" height="953.12"/>
  <g>
    <rect class="cls-11" x="700.66" y="385.17" width="19.14" height="200.92" rx="9.57" ry="9.57"/>
    <path class="cls-3" d="M647.16,427.28c-2,20.14,6.38,44.11,27.53,50.09,10.9,3.08,22.68,1.13,33.31-2.07,9.22-2.77,5.29-17.26-3.99-14.46-5.66,1.7-11.37,3.05-17.31,3.07-1.96,0-4.13-.14-5.53-.41-1.11-.21-2.2-.5-3.28-.83-.21-.06-2.26-.8-1.19-.36-3.92-1.63-5.21-2.83-7.68-5.63-1.04-1.18.48.76-.52-.63-.53-.73-1.01-1.49-1.47-2.27-.34-.58-.67-1.17-.97-1.76-.13-.26-1.27-2.77-.63-1.23-1.15-2.77-1.95-5.68-2.53-8.62-.16-.79-.28-1.59-.42-2.38-.27-1.61.13,1.44-.07-.58-.13-1.31-.25-2.63-.32-3.94-.14-2.65-.18-5.35.09-7.99.4-4.04-3.73-7.5-7.5-7.5-4.39,0-7.1,3.45-7.5,7.5h0Z"/>
    <path class="cls-3" d="M748.1,453.38c.1.7.15,1.82-.16-1.23.06.62.16,1.24.23,1.86.24,2.16.46,4.32.63,6.49.52,6.56.72,13.16.46,19.73-.07,1.78-.17,3.55-.32,5.32-.18,2.2-.39,3.96-.52,4.74-.55,3.51-1.28,7-2.4,10.38-.27.82-.56,1.64-.88,2.45.61-1.53-.36.79-.52,1.09-.75,1.43-1.52,2.81-2.47,4.12.88-1.21-1.58,1.62-2.3,2.23,1.65-1.39-3.49,1.66-1.49.9-.82.31-1.66.53-2.51.74-.25.06-1.52.25-.5.12,1.1-.15-.85.03-.89.03-2.9-.08-2.74.04-5.1-.52-5.58-1.32-10.49-4.04-15.36-7.08-8.22-5.12-15.76,7.85-7.57,12.95,9.5,5.91,20.75,11.16,32.22,9.17,8.15-1.41,14.67-7.11,18.5-14.28,7.76-14.53,7.88-32.85,6.88-48.91-.3-4.79-.77-9.57-1.47-14.32-.59-4-5.67-6.24-9.23-5.24-4.29,1.2-5.83,5.19-5.24,9.23h0Z"/>
  </g>
  <g>
    <circle class="cls-16" cx="1662.98" cy="230.55" r="146.21"/>
    <circle class="cls-10" cx="1662.98" cy="230.55" r="127.21"/>
    <circle class="cls-13" cx="1662.98" cy="230.55" r="95.43"/>
  </g>
  <path class="cls-9" d="M1522.16,480.82c314.75-321.68,487.95-149.79,487.95-149.79l-4.04,542.89-363.71,61.43"/>
  <path class="cls-17" d="M362.98,673.56c315-70,255-162.5,457.5-117.5,202.5,45,190-95,362.5-35s195-117.5,325-47.5,155,91.69,155,91.69v145.81l-1280,52.5-20-90Z"/>
  <path class="cls-8" d="M2009.56,516.13s-198.57-199.43-361.31-33.08c-162.74,166.35-267.96,215.69-419.27,234.9-151.31,19.21-540.46-134.04-540.46-134.04C-18.87,327.44-63.02,656.77-63.02,656.77l133.39,520.51,1987.94-219.33"/>
  <path class="cls-15" d="M-2.36,760.58s175.5-220,355.5-72.5c180,147.5,290,185,442.5,187.5s522.5-192.5,522.5-192.5c675-332.5,755-10,755-10l-75.5,532H-2.36"/>
  <g>
    <rect class="cls-11" x="1292.66" y="350.92" width="19.14" height="200.92" rx="9.57" ry="9.57" transform="translate(2604.46 902.77) rotate(180)"/>
    <path class="cls-3" d="M1350.3,393.03c.26,2.64.22,5.34.09,7.99-.06,1.23-.17,2.45-.29,3.67-.21,2.18.13-.5-.11.86-.14.8-.26,1.59-.42,2.38-.58,2.93-1.38,5.86-2.53,8.62.63-1.5-.33.65-.48.93-.37.69-.72,1.39-1.12,2.06-.46.78-.95,1.53-1.47,2.27-1.27,1.77.94-1.02-.52.63-2.44,2.76-3.76,3.99-7.68,5.63,1.05-.43-1.23.37-1.19.36-1.08.33-2.17.61-3.28.83-1.4.27-3.56.41-5.53.41-5.93-.02-11.65-1.37-17.31-3.07-9.26-2.79-13.22,11.69-3.99,14.46,16.28,4.9,36.22,6.26,48.9-7.24,8.26-8.8,11.42-21.02,12.02-32.79.14-2.65.18-5.35-.09-7.99-.4-4.03-3.16-7.5-7.5-7.5-3.75,0-7.9,3.44-7.5,7.5h0Z"/>
    <path class="cls-3" d="M1249.89,415.15c-1.67,11.34-2.29,22.96-1.52,34.39,1.08,15.9,5.16,37.19,22.81,42.52,12.02,3.63,24.83-2.36,34.83-8.59,8.18-5.09.66-18.07-7.57-12.95-4.4,2.74-8.85,5.25-13.79,6.66-2.12.61-3.45.84-4.33.89s-1.77.03-2.66.03c-1.73,0,.63.36-1.36-.19-.66-.18-1.31-.36-1.95-.58-1.02-.35,1.17.58.23.1-.33-.17-.67-.32-.99-.52-.55-.34-1.11-.67-1.63-1.06,1.53,1.11-.6-.65-1-1.05-.83-.83-3.04-4.39-3.79-6.21-2.39-5.82-3.42-13.1-3.82-19.4-.45-6.93-.33-13.9.14-20.83.18-2.66.42-5.31.72-7.96.08-.74.19-1.48.27-2.22.1-.97-.34,2.4-.13.95.59-4.04-1.01-8.02-5.24-9.23-3.53-1.01-8.64,1.23-9.23,5.24h0Z"/>
  </g>
  <g>
    <rect class="cls-12" x="103.89" y="235.53" width="30" height="315" rx="15" ry="15" transform="translate(237.77 786.06) rotate(-180)"/>
    <path class="cls-6" d="M191.01,301.55c.28,2.79.3,5.61.27,8.41s-.2,5.86-.48,8.77c-.08.83-.2,1.66-.27,2.49-.2,2.24.72-4.4.14-1.11-.34,1.9-.64,3.8-1.05,5.68-.86,3.92-2.2,7.6-3.46,11.4-.73,2.22,1.76-3.7.2-.54-.44.9-.87,1.8-1.34,2.69-1,1.89-2.16,3.67-3.34,5.45-1.89,2.86,1.8-1.97.28-.33-.7.76-1.34,1.57-2.05,2.31s-1.46,1.49-2.24,2.18c-.34.31-.73.6-1.06.92-1.89,1.86,3.06-2.04.8-.59-1.76,1.13-3.45,2.31-5.31,3.27-.56.29-1.15.54-1.71.83-1.93,1.03,1.43-.98,1.43-.6,0,.3-3.33,1.16-3.82,1.31-1.36.4-2.73.74-4.12,1.02-.57.12-1.17.19-1.73.32-2.97.7,3.27-.15.37-.05-3.35.11-6.62.39-9.98.23-1.84-.09-3.67-.27-5.51-.45-3.71-.35,2.22.61-.09-.02-1.17-.32-2.44-.41-3.63-.64-4.66-.9-9.25-2.12-13.8-3.5-7.51-2.28-16.69,2.72-18.45,10.48s2.44,16.01,10.48,18.45c26.74,8.13,59.83,9.86,80.3-12.71,13.32-14.69,18.48-34.49,19.35-53.9.18-3.91.22-7.89-.17-11.8-.78-7.78-6.34-15.39-15-15-7.46.33-15.84,6.64-15,15h0Z"/>
    <path class="cls-6" d="M33.71,335.36c-2.63,17.79-3.68,35.98-2.55,53.93,1.69,26.82,8.63,61.48,38.12,70.62,19.62,6.08,40.82-3.54,57.18-13.77,6.86-4.29,9.56-13.38,5.38-20.52s-13.63-9.7-20.52-5.38c-3.98,2.49-8.05,4.84-12.28,6.88-.9.43-1.86.8-2.73,1.27-1.46.79,1.38-.57,1.37-.56-.58.21-1.15.47-1.73.69-1.78.66-3.57,1.29-5.39,1.82-1.54.44-3.09.79-4.66,1.13-.65.14-3.43.54-.58.15s-.14-.02-.84.03c-1.34.09-2.66.06-4,.04-.5,0-1.44-.31-1.9-.15,1.22-.42,3.99.79,1.27.11-1.24-.31-2.44-.66-3.67-1.02-2.47-.73,1.07.01,1.47.65-.22-.35-1.37-.66-1.75-.89-.92-.56-1.86-1.33-2.82-1.81-.67-.33,2.97,2.69,1.29.95-.45-.47-.98-.87-1.45-1.33-.82-.8-1.52-1.7-2.3-2.52-1.51-1.57,2.08,3.07.93,1.2-.36-.58-.79-1.13-1.16-1.71-1.46-2.26-2.49-4.68-3.74-7.04-.42-.8,1.42,3.75.54,1.22-.21-.61-.46-1.22-.68-1.83-.48-1.35-.93-2.72-1.33-4.1-.81-2.74-1.48-5.53-2.04-8.33-.3-1.5-.57-3-.82-4.5-.11-.7-.21-1.41-.32-2.11-.39-2.31.46,3.94.11.8-.33-2.97-.64-5.93-.84-8.91-.76-11.01-.59-22.08.15-33.08.29-4.25.66-8.5,1.14-12.74.14-1.25.33-2.49.45-3.74.09-.87-.73,5.2-.34,2.53,1.14-7.73-1.92-16.5-10.48-18.45-7.12-1.62-17.22,2.18-18.45,10.48h0Z"/>
  </g>
  <g>
    <rect class="cls-12" x="1676.35" y="563.16" width="30.56" height="320.89" rx="15.28" ry="15.28"/>
    <path class="cls-6" d="M1595.38,630.41c-3.02,30.14,8.87,66.87,40.87,75.73,16.59,4.6,34.48,1.55,50.62-3.36,9.21-2.8,5.28-17.28-3.99-14.46-12.51,3.8-26.91,6.72-39.34,4.15-9.14-1.89-15.49-5.54-21.41-12.52-1.26-1.49-.21-.16-1.11-1.44-.58-.83-1.15-1.67-1.68-2.53-1.18-1.9-2.21-3.87-3.17-5.88-.19-.4-.37-.81-.54-1.21.12.27.53,1.31,0-.04-.37-.91-.71-1.84-1.04-2.77-.68-1.93-1.26-3.89-1.78-5.86-.47-1.81-.88-3.64-1.23-5.48-.17-.89-.32-1.78-.47-2.67-.2-1.27-.34-2.45-.22-1.47-.38-3.17-.63-6.35-.74-9.55-.11-3.54-.13-7.13.23-10.65.4-4.04-3.74-7.5-7.5-7.5-4.39,0-7.09,3.45-7.5,7.5h0Z"/>
    <path class="cls-6" d="M1756.44,670.91c.2,1.37.02.31-.11-.82.11,1,.26,2.01.38,3.01.41,3.44.74,6.9,1.01,10.35.87,10.9,1.19,21.86.69,32.79-.56,12.21-1.55,22.1-5.81,34.14-1.1,3.11-1.02,3.05-2.77,6.36-.57,1.07-1.17,2.12-1.82,3.15-.32.5-.65.99-.98,1.48-.98,1.48.03.08-.58.81-.73.88-1.48,1.74-2.29,2.55-.57.57-2.59,2.31-2.19,2,.81-.62-.81.55-1.06.7-.48.29-.95.59-1.43.87s-.99.52-1.49.78c-1.11.56,1.07-.33-.56.24-1.4.48-2.79.86-4.24,1.18s-.69.13-.74.13c-.74.07-1.48.12-2.23.15-4.21.14-5.28-.07-9.03-.95-9.31-2.19-17.67-6.72-25.78-11.79-8.21-5.14-15.74,7.84-7.57,12.95,14.11,8.83,31.03,17.02,48.14,14.18,12.25-2.03,21.75-10.87,27.22-21.68,11.42-22.57,11.42-50.56,9.85-75.24-.45-7.13-1.12-14.26-2.16-21.32-.59-4-5.67-6.24-9.23-5.24-4.29,1.2-5.84,5.19-5.24,9.23h0Z"/>
  </g>
  <g>
    <circle class="cls-4" cx="1413.88" cy="92.62" r="16.71"/>
    <circle class="cls-4" cx="1429.05" cy="71.33" r="20.89"/>
    <circle class="cls-4" cx="1436.38" cy="91.73" r="19.12"/>
    <circle class="cls-4" cx="1460.7" cy="63.48" r="26.36"/>
    <circle class="cls-4" cx="1502.7" cy="90.74" r="17.2"/>
    <circle class="cls-4" cx="1484.82" cy="82.15" r="28.45"/>
    <circle class="cls-4" cx="1462.96" cy="93.71" r="18.56"/>
  </g>
  <g>
    <rect class="cls-12" x="1868.07" y="239.89" width="22.45" height="235.76" rx="11.23" ry="11.23" transform="translate(3758.6 715.53) rotate(180)"/>
    <path class="cls-6" d="M1937,289.3c.2,2.03.22,4.08.2,6.12-.02,2.17-.13,4.34-.34,6.5-.05.55-.11,1.1-.17,1.64-.19,1.82.16-.83-.07.57s-.47,2.79-.77,4.17c-.59,2.72-1.38,5.38-2.35,7.98-.44,1.18.32-.58-.39.94-.28.6-.57,1.2-.87,1.79-.72,1.39-1.53,2.72-2.39,4.03-2.54,3.85-7.47,7.59-12.66,9.14-9.72,2.91-20.9.76-30.95-2.27-9.26-2.8-13.22,11.67-3.99,14.46,18.67,5.64,41.68,7.34,56.2-8.26,9.45-10.15,13.01-24.26,13.66-37.79.14-3,.18-6.05-.12-9.04-.4-4.03-3.16-7.5-7.5-7.5-3.74,0-7.9,3.44-7.5,7.5h0Z"/>
    <path class="cls-6" d="M1819.14,315.59c-1.94,13.15-2.63,26.66-1.74,39.92,1.22,18.11,5.72,42.53,25.79,48.72,13.71,4.23,28.5-2.83,39.89-9.94,8.17-5.1.65-18.08-7.57-12.95-5.25,3.28-10.61,6.27-16.52,7.96-1.15.33-2.31.59-3.48.84-1.65.35.02.14-1.96.25-1,.06-1.99.04-2.99.03-.52,0-1.06-.06-1.58-.12,1.31.16.31.05-.4-.14-.75-.2-1.5-.41-2.24-.65-1.76-.59.99.51-.04,0-.42-.21-.85-.4-1.24-.64-.63-.4-1.26-.77-1.87-1.2,1.52,1.08-.84-.81-1.23-1.2-.6-.61-1.17-1.25-1.7-1.92,1.14,1.42-.44-.72-.69-1.11-1.04-1.64-1.93-3.38-2.7-5.16.65,1.52-.51-1.45-.64-1.82-.29-.84-.55-1.68-.8-2.53-.64-2.19-1.17-4.42-1.6-6.66-.22-1.15-.41-2.31-.6-3.46-.27-1.66-.1-.51-.22-1.53-.28-2.36-.5-4.73-.65-7.11-.52-8.12-.38-16.28.17-24.39.21-3.11.49-6.21.84-9.31.1-.91.25-1.82.33-2.73.02-.27-.34,2.37-.11.84.6-4.04-1.01-8.02-5.24-9.23-3.53-1.01-8.64,1.23-9.23,5.24h0Z"/>
  </g>
  <g>
    <rect class="cls-12" x="1811.03" y="747.25" width="23.17" height="243.24" rx="11.58" ry="11.58" transform="translate(3645.24 1737.74) rotate(180)"/>
    <path class="cls-6" d="M1882.39,798.22c.21,2.06.23,4.15.21,6.21-.02,2.25-.13,4.5-.34,6.75-.06.64-.13,1.28-.2,1.93-.16,1.47.2-1.2-.04.3s-.49,3-.82,4.48c-.62,2.83-1.43,5.61-2.45,8.32-.44,1.18.31-.56-.4.96-.33.71-.66,1.41-1.03,2.1-.73,1.39-1.54,2.74-2.42,4.04s-.55.9-2.02,2.48c-.55.59-1.12,1.17-1.72,1.72-.31.29-2.12,1.76-1.21,1.08-2.9,2.17-5.35,3.29-8.08,4.12-10.22,3.09-21.7.84-32.14-2.32-9.26-2.8-13.22,11.67-3.99,14.46,19.27,5.83,43.12,7.58,57.98-8.7,9.52-10.44,13.13-24.75,13.79-38.54.15-3.11.19-6.27-.12-9.37-.4-4.03-3.16-7.5-7.5-7.5-3.74,0-7.9,3.44-7.5,7.5h0Z"/>
    <path class="cls-6" d="M1760.78,825.42c-2,13.57-2.71,27.5-1.78,41.18,1.24,18.44,5.82,43.64,26.32,49.95,14.16,4.36,29.32-2.85,41.09-10.2,8.17-5.1.65-18.08-7.57-12.95-5.51,3.44-11.16,6.59-17.42,8.32-1.02.28-2.06.51-3.09.74-1.98.43-.4.21-2.33.31-1,.05-1.99.04-3,.03-.53,0-1.06-.06-1.58-.12,1.86.22-.11-.06-.41-.13-.95-.24-1.87-.5-2.79-.83,1.53.55-.19-.08-.77-.42-.81-.47-1.59-.95-2.34-1.5,1.5,1.1-.61-.61-1.02-1.02-.67-.67-1.3-1.39-1.9-2.13,1.15,1.43-.6-.95-.85-1.36-.43-.68-.83-1.39-1.21-2.1-.26-.48-1.7-3.65-1.1-2.18-1.62-3.93-2.71-8.09-3.53-12.26-.91-4.64-1.17-7.05-1.52-12.48-.54-8.36-.4-16.76.16-25.12.22-3.26.51-6.52.88-9.77.11-.94.25-1.88.34-2.82.06-.63-.35,2.48-.11.87.6-4.04-1.01-8.02-5.24-9.23-3.53-1.01-8.63,1.23-9.23,5.24h0Z"/>
  </g>
  <g>
    <circle class="cls-5" cx="822.79" cy="207.61" r="28.56"/>
    <circle class="cls-5" cx="848.71" cy="171.24" r="35.7"/>
    <circle class="cls-5" cx="861.23" cy="206.1" r="32.67"/>
    <circle class="cls-5" cx="902.79" cy="157.82" r="45.04"/>
    <circle class="cls-5" cx="974.57" cy="204.4" r="29.39"/>
    <circle class="cls-5" cx="944.01" cy="189.73" r="48.62"/>
    <circle class="cls-5" cx="906.66" cy="209.48" r="31.72"/>
  </g>
  <g>
    <circle class="cls-1" cx="1263.85" cy="138.09" r="28.56"/>
    <circle class="cls-1" cx="1289.77" cy="101.71" r="35.7"/>
    <circle class="cls-1" cx="1302.29" cy="136.57" r="32.67"/>
    <circle class="cls-1" cx="1343.85" cy="88.3" r="45.04"/>
    <circle class="cls-1" cx="1415.63" cy="134.88" r="29.39"/>
    <circle class="cls-1" cx="1385.07" cy="120.21" r="48.62"/>
    <circle class="cls-1" cx="1347.71" cy="139.96" r="31.72"/>
  </g>
  <g>
    <circle class="cls-7" cx="1174.5" cy="272.85" r="19.6"/>
    <circle class="cls-7" cx="1192.29" cy="247.9" r="24.49"/>
    <circle class="cls-7" cx="1200.88" cy="271.82" r="22.42"/>
    <circle class="cls-7" cx="1229.39" cy="238.69" r="30.9"/>
    <circle class="cls-7" cx="1278.64" cy="270.65" r="20.16"/>
    <circle class="cls-7" cx="1257.67" cy="260.59" r="33.36"/>
    <circle class="cls-7" cx="1232.04" cy="274.14" r="21.76"/>
  </g>
  <path class="cls-14" d="M1443.47,625.86l-37.86,16.27c-.33.14-.62.37-.83.66-37.09,49.61-66.84,104.72-82.65,139.08-1.66,3.57-3.22,7.08-4.71,10.52-46.63,107.24-21.79,147.56-143.32,191.89-162.95,59.43-62.95,176.83-215.95,208.34-153.01,31.51-51.5,199.13-183.05,201.01-119.67,1.72-155.87-3.84-161.44-4.85-.51-.09-.96-.37-1.27-.79l-89.28-120.19c-.62-.84-1.78-1.07-2.68-.53l-97.78,58.26c-.89.53-2.05.31-2.67-.53l-58.91-78.54c-.61-.82-.52-1.96.21-2.68.05-.05.1-.1.15-.14,1.74-1.71-.46-4.47-2.52-3.17l-232.27,146.3c-.92.58-2.14.33-2.76-.57l-85.45-123.87c-.35-.5-.45-1.14-.28-1.72,1.82-6.23,14.47-45.31,76.71-169.32,68.67-136.82,193.82,3.67,304.58-149.41,110.77-153.08,183.77-24.54,328.99-182.22,145.2-157.67,183.12-42.41,495.63-141.77l.16-.06c27.04-9.07,36.48-10.88,38.31-12.28.23-.18-.28.07,0,0l78.21-15.12c23.66-5.91,33.1,1.77,33.52,1.97l49.3,29.74c1.58.75,1.54,3.02-.07,3.71Z"/>
</svg>