<?xml version="1.0" encoding="UTF-8"?>
<svg id="Layer_1" data-name="Layer 1" xmlns="http://www.w3.org/2000/svg" xmlns:xlink="http://www.w3.org/1999/xlink" version="1.1" viewBox="0 0 2000 1200">
  <defs>
    <style>
      .cls-1 {
        fill: #aa9379;
      }

      .cls-1, .cls-2, .cls-3, .cls-4, .cls-5, .cls-6, .cls-7, .cls-8, .cls-9, .cls-10, .cls-11, .cls-12, .cls-13, .cls-14, .cls-15, .cls-16, .cls-17, .cls-18, .cls-19, .cls-20, .cls-21, .cls-22, .cls-23, .cls-24, .cls-25, .cls-26, .cls-27, .cls-28, .cls-29, .cls-30, .cls-31, .cls-32, .cls-33 {
        stroke-width: 0px;
      }

      .cls-34 {
        fill: #2d2c2b;
      }

      .cls-34, .cls-35, .cls-36, .cls-37, .cls-38, .cls-39, .cls-40, .cls-41 {
        stroke: #231f20;
        stroke-miterlimit: 10;
      }

      .cls-35 {
        fill: url(#radial-gradient-2);
      }

      .cls-36 {
        fill: none;
      }

      .cls-2 {
        fill: #96cb68;
      }

      .cls-3 {
        fill: url(#linear-gradient);
      }

      .cls-4 {
        fill: #787762;
      }

      .cls-37 {
        fill: #e7af5f;
        opacity: .73;
      }

      .cls-5 {
        fill: url(#linear-gradient-11);
      }

      .cls-6 {
        fill: url(#linear-gradient-12);
      }

      .cls-7 {
        fill: url(#linear-gradient-10);
      }

      .cls-8 {
        fill: #dde077;
      }

      .cls-9 {
        fill: #4b4d4f;
      }

      .cls-10 {
        fill: #6698d0;
      }

      .cls-38, .cls-31 {
        fill: #534f57;
      }

      .cls-11, .cls-39 {
        fill: #000;
      }

      .cls-12 {
        fill: #404663;
      }

      .cls-13 {
        fill: #231f20;
      }

      .cls-14 {
        fill: #466f7f;
      }

      .cls-15 {
        fill: #fdd7ae;
      }

      .cls-16 {
        fill: url(#linear-gradient-13);
      }

      .cls-16, .cls-17, .cls-18, .cls-30 {
        isolation: isolate;
        opacity: .5;
      }

      .cls-17 {
        fill: url(#linear-gradient-14);
      }

      .cls-18 {
        fill: url(#linear-gradient-15);
      }

      .cls-19 {
        fill: #444545;
      }

      .cls-20 {
        fill: #969899;
      }

      .cls-21 {
        fill: url(#linear-gradient-4);
      }

      .cls-22 {
        fill: url(#linear-gradient-2);
      }

      .cls-23 {
        fill: url(#linear-gradient-3);
      }

      .cls-24 {
        fill: url(#linear-gradient-8);
      }

      .cls-25 {
        fill: url(#linear-gradient-9);
      }

      .cls-26 {
        fill: url(#linear-gradient-7);
      }

      .cls-27 {
        fill: url(#linear-gradient-5);
      }

      .cls-28 {
        fill: url(#linear-gradient-6);
      }

      .cls-40 {
        fill: #eead51;
      }

      .cls-41 {
        fill: #df724a;
        opacity: .7;
      }

      .cls-29 {
        fill: #fff;
      }

      .cls-30 {
        fill: url(#radial-gradient);
      }

      .cls-32 {
        fill: #61aee1;
      }

      .cls-33 {
        fill: #afaeaf;
      }
    </style>
    <linearGradient id="linear-gradient" x1="52.65" y1="1188.45" x2="52.69" y2="1186.51" gradientTransform="translate(-32.33 40034.33) scale(33.33 -33.33)" gradientUnits="userSpaceOnUse">
      <stop offset=".25" stop-color="#94ca5a"/>
      <stop offset=".74" stop-color="#41b649"/>
    </linearGradient>
    <linearGradient id="linear-gradient-2" x1="54.98" y1="1186.87" x2="52.74" y2="1186.87" gradientTransform="translate(-32.33 40034.33) scale(33.33 -33.33)" gradientUnits="userSpaceOnUse">
      <stop offset="0" stop-color="#41b649"/>
      <stop offset=".19" stop-color="#34b44a"/>
      <stop offset=".52" stop-color="#1fa349"/>
      <stop offset=".95" stop-color="#357539"/>
      <stop offset="1" stop-color="#386f36"/>
    </linearGradient>
    <linearGradient id="linear-gradient-3" x1="52.57" y1="1187.85" x2="52.49" y2="1186.5" gradientTransform="translate(-32.33 40034.33) scale(33.33 -33.33)" gradientUnits="userSpaceOnUse">
      <stop offset="0" stop-color="#94ca5a"/>
      <stop offset="1" stop-color="#41b649"/>
    </linearGradient>
    <linearGradient id="linear-gradient-4" x1="54.79" y1="1186.77" x2="52.57" y2="1186.77" xlink:href="#linear-gradient-2"/>
    <linearGradient id="linear-gradient-5" x1="54.58" y1="1187.72" x2="52.89" y2="1188.66" xlink:href="#linear-gradient"/>
    <linearGradient id="linear-gradient-6" x1="52.06" y1="1186.49" x2="53.18" y2="1188.43" xlink:href="#linear-gradient-2"/>
    <linearGradient id="linear-gradient-7" x1="54.11" y1="1188.1" x2="52.98" y2="1188.84" xlink:href="#linear-gradient-3"/>
    <linearGradient id="linear-gradient-8" x1="52.06" y1="1186.71" x2="53.17" y2="1188.63" xlink:href="#linear-gradient-2"/>
    <linearGradient id="linear-gradient-9" x1="52.99" y1="1186.41" x2="54.64" y2="1187.41" xlink:href="#linear-gradient"/>
    <linearGradient id="linear-gradient-10" x1="53.27" y1="1189.21" x2="54.62" y2="1186.66" xlink:href="#linear-gradient-2"/>
    <linearGradient id="linear-gradient-11" x1="52.86" y1="1186.29" x2="54.07" y2="1186.9" xlink:href="#linear-gradient-3"/>
    <linearGradient id="linear-gradient-12" x1="53.48" y1="1189.09" x2="54.94" y2="1186.3" xlink:href="#linear-gradient-2"/>
    <radialGradient id="radial-gradient" cx="-6.38" cy="1210.04" fx="-6.38" fy="1210.04" r=".11" gradientTransform="translate(-29600.14 -86408.81) rotate(160.73) scale(148.52 -76.29)" gradientUnits="userSpaceOnUse">
      <stop offset="0" stop-color="#fbe07c" stop-opacity=".75"/>
      <stop offset=".08" stop-color="#fbe387" stop-opacity=".69"/>
      <stop offset=".52" stop-color="#fef2c7" stop-opacity=".36"/>
      <stop offset=".84" stop-color="#fffbf1" stop-opacity=".12"/>
      <stop offset="1" stop-color="#fff" stop-opacity="0"/>
    </radialGradient>
    <linearGradient id="linear-gradient-13" x1="53.24" y1="1188.76" x2="53.05" y2="1188.08" gradientTransform="translate(-32.33 40034.33) scale(33.33 -33.33)" gradientUnits="userSpaceOnUse">
      <stop offset="0" stop-color="#3a2512"/>
      <stop offset=".22" stop-color="#3a2f14" stop-opacity=".78"/>
      <stop offset=".61" stop-color="#3d4b20" stop-opacity=".39"/>
      <stop offset="1" stop-color="#386f36" stop-opacity="0"/>
    </linearGradient>
    <linearGradient id="linear-gradient-14" x1="52.42" y1="1186.77" x2="53.1" y2="1186.94" xlink:href="#linear-gradient-13"/>
    <linearGradient id="linear-gradient-15" x1="54.52" y1="1186.25" x2="53.93" y2="1187.12" xlink:href="#linear-gradient-13"/>
    <radialGradient id="radial-gradient-2" cx="1566.93" cy="284.76" fx="1566.93" fy="284.76" r="26.88" gradientUnits="userSpaceOnUse">
      <stop offset="0" stop-color="#fffcea" stop-opacity=".62"/>
      <stop offset="0" stop-color="#fcf5de" stop-opacity=".62"/>
      <stop offset=".03" stop-color="rgba(246, 227, 190, .61)" stop-opacity=".61"/>
      <stop offset=".07" stop-color="rgba(239, 204, 148, .61)" stop-opacity=".61"/>
      <stop offset=".11" stop-color="rgba(234, 187, 118, .61)" stop-opacity=".61"/>
      <stop offset=".16" stop-color="rgba(231, 177, 99, .61)" stop-opacity=".61"/>
      <stop offset=".2" stop-color="#e7ae5e" stop-opacity=".61"/>
      <stop offset=".25" stop-color="#e7af5f" stop-opacity=".5"/>
      <stop offset=".66" stop-color="#f3903f" stop-opacity=".9"/>
      <stop offset=".89" stop-color="#ed683c"/>
      <stop offset="1" stop-color="#df724a"/>
    </radialGradient>
  </defs>
  <rect class="cls-32" x="-26.38" y="-31.97" width="2058.06" height="1263.44"/>
  <rect class="cls-9" x="-42.27" y="839.29" width="2084.55" height="392.18"/>
  <rect class="cls-20" x="-26.38" y="819.18" width="2067.88" height="23.9"/>
  <g>
    <g>
      <rect class="cls-29" x="1226.07" y="101.45" width="166.47" height="112.51"/>
      <g>
        <rect class="cls-20" x="1223.47" y="94.17" width="169.07" height="14.55"/>
        <rect class="cls-20" x="1224.77" y="206.68" width="169.07" height="14.55"/>
        <rect class="cls-20" x="1162.54" y="150.43" width="127.06" height="14.55" transform="translate(1068.37 1383.77) rotate(-90)"/>
      </g>
    </g>
    <rect class="cls-20" x="1329.01" y="150.43" width="127.06" height="14.55" transform="translate(1234.84 1550.24) rotate(-90)"/>
  </g>
  <g>
    <g>
      <rect class="cls-29" x="1484.99" y="228.51" width="166.47" height="112.51"/>
      <g>
        <rect class="cls-20" x="1482.39" y="221.23" width="169.07" height="14.55"/>
        <rect class="cls-20" x="1483.69" y="333.74" width="169.07" height="14.55"/>
        <rect class="cls-20" x="1421.46" y="277.48" width="127.06" height="14.55" transform="translate(1200.23 1769.75) rotate(-90)"/>
      </g>
    </g>
    <rect class="cls-20" x="1587.93" y="277.48" width="127.06" height="14.55" transform="translate(1366.7 1936.22) rotate(-90)"/>
  </g>
  <g>
    <g>
      <rect class="cls-29" x="1224.77" y="366.49" width="166.47" height="112.51"/>
      <g>
        <rect class="cls-20" x="1222.17" y="359.22" width="169.07" height="14.55"/>
        <rect class="cls-20" x="1223.47" y="471.72" width="169.07" height="14.55"/>
        <rect class="cls-20" x="1161.24" y="415.47" width="127.06" height="14.55" transform="translate(802.02 1647.52) rotate(-90)"/>
      </g>
    </g>
    <rect class="cls-20" x="1327.71" y="415.47" width="127.06" height="14.55" transform="translate(968.49 1813.98) rotate(-90)"/>
  </g>
  <g>
    <g>
      <rect class="cls-29" x="1701.3" y="84.87" width="166.47" height="112.51" transform="translate(1643.41 1925.66) rotate(-90)"/>
      <g>
        <rect class="cls-20" x="1643.75" y="135.15" width="169.07" height="14.55" transform="translate(1585.85 1870.71) rotate(-90)"/>
        <rect class="cls-20" x="1756.25" y="133.85" width="169.07" height="14.55" transform="translate(1699.66 1981.92) rotate(-90)"/>
        <rect class="cls-20" x="1721.01" y="217.08" width="127.06" height="14.55" transform="translate(3569.07 448.72) rotate(180)"/>
      </g>
    </g>
    <rect class="cls-20" x="1721.01" y="50.62" width="127.06" height="14.55" transform="translate(3569.07 115.79) rotate(180)"/>
  </g>
  <g>
    <g>
      <rect class="cls-29" x="1666.01" y="387.58" width="166.47" height="112.51"/>
      <g>
        <rect class="cls-20" x="1663.41" y="380.31" width="169.07" height="14.55"/>
        <rect class="cls-20" x="1664.71" y="492.81" width="169.07" height="14.55"/>
        <rect class="cls-20" x="1602.48" y="436.56" width="127.06" height="14.55" transform="translate(1222.17 2109.84) rotate(-90)"/>
      </g>
    </g>
    <rect class="cls-20" x="1768.95" y="436.56" width="127.06" height="14.55" transform="translate(1388.64 2276.31) rotate(-90)"/>
  </g>
  <g>
    <path class="cls-3" d="M1715.44,442.5l-4.13,7.14c-1.42,2.47-1.42,5.51,0,7.98l11.79,20.44c-1.42-2.47-1.42-5.51,0-7.98l4.86-8.42,5.09-8.96,2.62,1.51c.44.25.94-.23.69-.69l-7.75-13.49-15.56.04c-.5,0-.69.67-.25.92l2.64,1.51Z"/>
    <path class="cls-22" d="M1727.98,461.67l-4.86,8.42c-1.42,2.47-1.42,5.51,0,7.98,1.42,2.49,4.08,4.02,6.97,4.02h10.7v-20.34l-12.82-.08Z"/>
    <path class="cls-23" d="M1728.61,440.01l-15.56.04c-.5,0-.69.67-.25.92l2.62,1.51-4.11,7.16c-1.42,2.47-1.42,5.51,0,7.98l5.89,10.18c-1.42-2.47-1.42-5.51,0-7.98l4.11-7.12,7.31-12.69Z"/>
    <path class="cls-21" d="M1740.78,471.89h-10.7c-2.47,0-4.78-1.13-6.28-3.02l-.69,1.22c-1.42,2.47-1.42,5.51,0,7.98,1.45,2.49,4.11,4.02,7,4.02h10.7v-10.2h-.02Z"/>
    <path class="cls-27" d="M1770.82,425.77l-4.13-7.14c-1.42-2.45-4.06-3.98-6.91-3.98h-23.6c2.85,0,5.49,1.53,6.91,4l4.86,8.42,5.22,8.9-2.62,1.51c-.44.25-.27.92.25.92l15.56.04,7.75-13.49c.25-.44-.25-.94-.69-.69l-2.6,1.51Z"/>
    <path class="cls-28" d="M1747.94,427.07l-4.86-8.42c-1.42-2.47-4.06-4-6.91-4s-5.55,1.53-6.97,4.02l-5.36,9.28,17.61,10.18,6.49-11.06Z"/>
    <path class="cls-26" d="M1766.38,438.44l7.75-13.49c.25-.44-.25-.94-.69-.69l-2.62,1.51-4.13-7.14c-1.42-2.45-4.06-3.98-6.91-3.98h-11.75c2.85,0,5.49,1.53,6.91,4l4.11,7.12,7.33,12.67Z"/>
    <path class="cls-24" d="M1732.7,433.06l5.34-9.26c1.24-2.14,3.35-3.56,5.76-3.94l-.69-1.21c-1.44-2.47-4.08-4-6.93-4s-5.55,1.53-6.97,4.02l-5.36,9.28,8.86,5.11Z"/>
    <path class="cls-25" d="M1757.6,482.09h8.23c2.85,0,5.49-1.53,6.91-4l11.79-20.44c-1.42,2.47-4.06,4-6.91,4h-9.72l-10.33.06v-3.02c0-.5-.67-.69-.92-.25l-7.81,13.45,7.81,13.45c.25.44.92.25.92-.25l.02-3Z"/>
    <path class="cls-7" d="M1767.93,461.67h9.72c2.85,0,5.49-1.53,6.91-4,1.45-2.49,1.45-5.57,0-8.06l-5.34-9.26-17.61,10.18,6.33,11.14Z"/>
    <path class="cls-5" d="M1748.87,471.93l7.81,13.45c.25.44.92.25.92-.25v-3.04h8.23c2.85,0,5.49-1.53,6.91-4l5.89-10.18c-1.42,2.47-4.06,4-6.91,4h-8.23l-14.62.02Z"/>
    <path class="cls-6" d="M1770.38,445.46l5.34,9.26c1.24,2.14,1.4,4.69.52,6.95h1.4c2.85,0,5.49-1.53,6.91-4,1.45-2.49,1.45-5.57,0-8.06l-5.34-9.26-8.84,5.11Z"/>
    <path class="cls-30" d="M1770.82,425.77l-4.13-7.14c-1.42-2.45-4.06-3.98-6.91-3.98h-23.6c2.85,0,5.49,1.53,6.91,4l4.86,8.42,5.22,8.9-2.62,1.51c-.44.25-.27.92.25.92l15.56.04,7.75-13.49c.25-.44-.25-.94-.69-.69l-2.6,1.51Z"/>
    <path class="cls-16" d="M1747.94,427.07l-4.86-8.42c-1.42-2.47-4.06-4-6.91-4s-5.55,1.53-6.97,4.02c13.91-.04,12.27,19.44,12.27,19.44l6.47-11.04Z"/>
    <path class="cls-17" d="M1727.98,461.67l-4.86,8.42c-1.42,2.47-1.42,5.51,0,7.98,1.42,2.49,4.08,4.02,6.97,4.02-6.97-12.02,10.7-20.34,10.7-20.34l-12.82-.08Z"/>
    <path class="cls-18" d="M1757.6,482.09h8.23c2.85,0,5.49-1.53,6.91-4l11.79-20.44c-1.42,2.47-4.06,4-6.91,4h-9.72l-10.33.06v-3.02c0-.5-.67-.69-.92-.25l-7.81,13.45,7.81,13.45c.25.44.92.25.92-.25l.02-3Z"/>
  </g>
  <path class="cls-29" d="M1271.9,443.26l-3.75,5,.67,4.37c.42,2.73-3.16,4.11-4.69,1.81l-2.44-3.69-6.14-1.18c-2.16-.42-3.14-2.95-1.82-4.72l3.75-5-.67-4.37c-.42-2.73,3.16-4.11,4.69-1.81l2.44,3.69,6.14,1.18c2.16.42,3.14,2.95,1.82,4.72Z"/>
  <path class="cls-29" d="M1280.65,405.79l-6.14-1.18-3.64,2.52c-2.27,1.57-5.08-1.04-3.68-3.42l2.25-3.81-1.63-6.04c-.57-2.13,1.28-4.12,3.44-3.7l6.14,1.18,3.64-2.52c2.27-1.57,5.08,1.04,3.68,3.42l-2.25,3.81,1.63,6.04c.57,2.13-1.28,4.12-3.44,3.7Z"/>
  <path class="cls-29" d="M1367.28,441.99l-5.5,2.98-1.22,4.26c-.76,2.65-4.59,2.41-5.01-.31l-.67-4.37-5.08-3.64c-1.79-1.28-1.62-4,.32-5.05l5.5-2.98,1.22-4.26c.76-2.65,4.59-2.41,5.01.31l.67,4.37,5.08,3.64c1.79,1.28,1.62,4-.32,5.05Z"/>
  <path class="cls-29" d="M1348.17,396.97l-3.37.83-1.68,2.85c-1.05,1.78-3.78.88-3.57-1.17l.34-3.29-2.22-2.67c-1.41-1.69-.56-4.28,1.58-4.8l3.37-.83,1.68-2.85c1.05-1.78,3.78-.88,3.57,1.17l-.34,3.29,2.22,2.67c1.41,1.69.56,4.28-1.58,4.8Z"/>
  <path class="cls-29" d="M1333.26,451.18l-3.37.83-1.68,2.85c-1.05,1.78-3.78.88-3.57-1.17l.34-3.29-2.22-2.67c-1.41-1.69-.56-4.28,1.58-4.8l3.37-.83,1.68-2.85c1.05-1.78,3.78-.88,3.57,1.17l-.34,3.29,2.22,2.67c1.41,1.69.56,4.28-1.58,4.8Z"/>
  <path class="cls-29" d="M1305.97,428.78l-2.27,2.63.27,3.3c.17,2.06-2.57,2.9-3.59,1.11l-1.63-2.88-3.36-.89c-2.13-.57-2.93-3.17-1.49-4.83l2.27-2.63-.27-3.3c-.17-2.06,2.57-2.9,3.59-1.11l1.63,2.88,3.36.89c2.13.57,2.93,3.17,1.49,4.83Z"/>
  <g>
    <rect class="cls-38" x="1777.85" y="87.02" width="10.55" height="110.82" rx="5.28" ry="5.28" transform="translate(3566.26 284.86) rotate(180)"/>
    <path class="cls-31" d="M1806.28,110.24c.13,1.3.12,2.61.07,3.91-.03.68-.08,1.35-.13,2.02-.18,2.16.18-.5-.12.86-.34,1.56-.67,3.09-1.23,4.59.4-1.07-1.86,3.06-1.17,2.21-1.41,1.73-1.51,1.93-3.2,2.55-2.94,1.09-8.49.45-13.03-.89-9.28-2.73-13.24,11.74-3.99,14.46,12.61,3.71,27.21,2.66,34.04-10.14,3.08-5.78,4.41-13.07,3.77-19.59-.39-4.03-3.17-7.5-7.5-7.5-3.75,0-7.89,3.44-7.5,7.5h0Z"/>
    <path class="cls-31" d="M1751.02,121.55c-1.44,9.82-1.9,20.26.48,29.96,1.56,6.34,4.92,12.56,10.98,15.54,8.15,4.01,17.28.39,24.44-4.02,8.21-5.05.68-18.03-7.57-12.95-2.76,1.7-5.55,3.37-8.8,3.8,1.76-.23-2.96-.18-.62-.02-.41-.03-2.05-.76-.38,0-.28-.13-1.36-1.03-.66-.29.76.8-.35-.34-.51-.5-1.27-1.26.74,1.27-.27-.28-.29-.44-1.54-2.91-.94-1.48-.97-2.28-1.49-4.78-1.86-7.21.2,1.32-.17-1.72-.21-2.25-.1-1.29-.15-2.58-.18-3.88-.05-2.27,0-4.53.13-6.8.1-1.78.25-3.55.43-5.32.05-.5.14-.99.17-1.49.07-1.01-.33,2.34-.16,1.17.59-4.04-1-8.01-5.24-9.23-3.52-1.01-8.64,1.23-9.23,5.24h0Z"/>
  </g>
  <g>
    <circle class="cls-41" cx="1566.93" cy="284.76" r="41.19"/>
    <circle class="cls-37" cx="1566.93" cy="284.76" r="35.84"/>
    <circle class="cls-35" cx="1566.93" cy="284.76" r="26.88"/>
  </g>
  <g>
    <circle class="cls-33" cx="1263.2" cy="172.96" r="15.69"/>
    <circle class="cls-33" cx="1277.45" cy="152.97" r="19.61"/>
    <circle class="cls-33" cx="1284.33" cy="172.13" r="17.95"/>
    <circle class="cls-33" cx="1307.16" cy="145.6" r="24.75"/>
    <circle class="cls-33" cx="1346.59" cy="171.19" r="16.14"/>
    <circle class="cls-33" cx="1329.8" cy="163.14" r="26.71"/>
    <circle class="cls-33" cx="1309.28" cy="173.98" r="17.42"/>
  </g>
  <path class="cls-39" d="M1270.67,425.06h-4.75c-1.02,0-1.84-.82-1.84-1.84v-11.25c0-1.46,1.62-2.34,2.84-1.54l2.68,1.74c.41.26.69.68.8,1.15l2.07,9.51c.25,1.15-.62,2.23-1.8,2.23Z"/>
  <rect class="cls-39" x="1309.38" y="408.39" width="3.17" height="11.25"/>
  <g>
    <g>
      <path class="cls-11" d="M1296.82,422.4l-8.38-6.15c-.43-.31-1.03-.22-1.34.21-.31.43-.22,1.03.21,1.34l8.38,6.15c.43.31,1.03.22,1.34-.21s.22-1.03-.21-1.34Z"/>
      <path class="cls-36" d="M1296.82,422.4l-8.38-6.15c-.43-.31-1.03-.22-1.34.21-.31.43-.22,1.03.21,1.34l8.38,6.15c.43.31,1.03.22,1.34-.21s.22-1.03-.21-1.34Z"/>
    </g>
    <g>
      <path class="cls-11" d="M1290.29,411.57c-.42-.31-1.02-.22-1.33.2l-5.78,7.87c-.31.42-.22,1.02.2,1.33s1.02.22,1.33-.2l5.78-7.87c.31-.42.22-1.02-.2-1.33Z"/>
      <path class="cls-36" d="M1290.29,411.57c-.42-.31-1.02-.22-1.33.2l-5.78,7.87c-.31.42-.22,1.02.2,1.33s1.02.22,1.33-.2l5.78-7.87c.31-.42.22-1.02-.2-1.33Z"/>
    </g>
  </g>
  <circle class="cls-39" cx="1265.55" cy="447.92" r="14.4"/>
  <circle class="cls-39" cx="1322.59" cy="448.95" r="11.63"/>
  <circle class="cls-40" cx="1265.55" cy="447.92" r="9.22"/>
  <circle class="cls-40" cx="1322.59" cy="448.95" r="6.88"/>
  <path class="cls-40" d="M1330.82,423.15s-.06-.09-.08-.14c-.97-2.15-4.31-2.37-6.33-2.51-2.54-.18-5.06,0-7.6,0-.6.12-1.2.15-1.81.16.02.96.17,1.92.07,2.88-.13,1.22-.68,2.13-1.65,2.87-.18.14-.35.17-.51.13-1.23.67-2.96.51-4.19.06-3.11-1.14-3.42-4.49-3.11-7.43-.47-.09-.93-.19-1.39-.3-1.1-.27-2.39-.57-3.29-1.31-.29-.24-.5-.55-.66-.9-1.17-.91-1.55-2.76-1.75-4.13-.49-1.75-.65-3.66-.77-5.37-.18-2.6-.16-5.21-.06-7.81-.39-.25-.76-.52-1.14-.79-1.21-.17-2.44-.2-3.66-.24-7.36-.21-14.69-.99-22.06-1.02-4.14-.02-8.33-.29-12.47.07-2.38.21-4.04,1.29-5.73,2.7.08.36.15.73.19,1.08.24,2.03.03,4.08-.07,6.12-.13,2.51.05,5.01-.37,7.51-.23,1.35-.65,2.67-1.34,3.81-1.01,3.27-3.47,5.82-4.99,8.84-.92,1.83-1.38,3.92-1.81,5.91-.23,1.07-.41,2.14-.56,3.23.14,1.76.35,3.51.57,5.26.23.35.54.64.9.88,3.69-3.6,9.31-9.18,15.86-10.92,18.94-5.04,31.42,17.57,44.85,10.71,3.26-1.67,3.27-2.35,6.44-4.51,12.55-8.56,19.69-.76,25.69,4.89.33-.35.65-.7.93-1.08l-8.09-18.61ZM1293.32,419.58c-.34,1-.9,1.94-1.82,2.51-1.02.63-2.26.94-3.43,1.14-3.06.51-6.21.36-9.3.13-1.35-.1-2.71-.23-4.06-.35-1.62-.14-3.22-.11-4.85-.09-2.12.02-4.26-.02-6.35-.41-1.25-.23-2.68-.49-3.74-1.23-1.02-.71-1.25-1.85-1.25-3.04-.11-.15-.15-.35-.1-.58.02-.09.04-.19.07-.28-.21-1.97-.22-3.94-.15-5.92.04-1.2.17-2.42.15-3.63-.01-.76-.13-1.52-.15-2.28-.05-1.5.2-3.13,1.78-3.72,1.17-.43,2.53-.37,3.78-.23,3.07-.26,6.18-.06,9.23.13,2.34.15,4.67.2,7.02.23,2.16.03,4.31.23,6.47.29,1.03.03,2.18-.07,3.17.29.96.35,1.54,1.16,1.94,2.06,1,2.23,1.5,4.71,1.83,7.12.35,2.54.6,5.39-.24,7.86Z"/>
  <path class="cls-40" d="M1311.53,415.64c-1.62-.05-3.24-.16-4.84-.35v8.14c0,1.34,1.73,2.43,3.87,2.43h0c2.14,0,3.87-1.09,3.87-2.43v-7.8c-.97.07-1.98.04-2.9,0Z"/>
  <rect class="cls-39" x="1334.1" y="419.74" width="4.22" height="27.56" rx="2.11" ry="2.11" transform="translate(2476.33 -387.16) rotate(126.28)"/>
  <path class="cls-40" d="M1363.84,448.62c-1.7-.07-3.18-.42-4.59-1.37-1.26-.84-2.49-1.82-3.43-3.01-.08-.1-.16-.21-.23-.32-.22-.22-.42-.44-.59-.64-.46-.52-.9-1.05-1.32-1.61-2.66-2.65-4.05-6.52-6.13-9.58-.06-.08-.09-.17-.11-.25-3.86,2.62-6.4,7.05-6.4,12.06,0,8.05,6.53,14.58,14.58,14.58,6.46,0,11.93-4.2,13.84-10.01-1.87-.02-3.75.21-5.62.14Z"/>
  <path class="cls-13" d="M1292.7,429.95h10.16c1.31,0,2.56-1.15,2.5-2.5s-1.1-2.5-2.5-2.5h-10.16c-1.31,0-2.56,1.15-2.5,2.5s1.1,2.5,2.5,2.5h0Z"/>
  <path class="cls-13" d="M1292.7,432.99h10.16c1.31,0,2.56-1.15,2.5-2.5s-1.1-2.5-2.5-2.5h-10.16c-1.31,0-2.56,1.15-2.5,2.5s1.1,2.5,2.5,2.5h0Z"/>
  <path class="cls-13" d="M1292.7,436.03h10.16c1.31,0,2.56-1.15,2.5-2.5s-1.1-2.5-2.5-2.5h-10.16c-1.31,0-2.56,1.15-2.5,2.5s1.1,2.5,2.5,2.5h0Z"/>
  <path class="cls-34" d="M1300.28,399.97h-51.03l.79-2.23c.48-1.35,1.75-2.25,3.16-2.24l43.88.16c1.15,0,2.16.78,2.49,1.9l.7,2.42Z"/>
  <g>
    <ellipse class="cls-15" cx="1396.85" cy="877.61" rx="11.46" ry="8.8" transform="translate(-251.79 819.56) rotate(-30.12)"/>
    <rect class="cls-15" x="1411.12" y="840.24" width="12.65" height="50.84" transform="translate(1454.83 -794.8) rotate(59.88)"/>
  </g>
  <g>
    <ellipse class="cls-15" cx="1410.08" cy="823.59" rx="11.46" ry="8.8" transform="translate(-222.89 818.9) rotate(-30.12)"/>
    <rect class="cls-15" x="1424.35" y="786.22" width="12.65" height="50.84" transform="translate(1414.69 -833.15) rotate(59.88)"/>
  </g>
  <path class="cls-11" d="M1448.98,1067.36l-.38,1.91c-.99,4.91,2.75,9.8,8.35,10.93l24.96,5.01c5.6,1.12,10.93-1.95,11.92-6.86l.38-1.91c.53-2.65-.31-5.3-2.08-7.35.13-.34.24-.69.31-1.06l1.96-9.74c.75-3.75-2.11-7.49-6.39-8.35l-3.79-.76c-4.28-.86-8.36,1.49-9.11,5.24l-1.72,8.59-12.48-2.51c-5.6-1.12-10.94,1.95-11.92,6.86Z"/>
  <path class="cls-11" d="M1524.05,1072.03v1.95c0,5.01,4.63,9.07,10.34,9.07h25.46c5.71,0,10.34-4.06,10.34-9.07v-1.95c0-2.7-1.35-5.13-3.49-6.79.06-.36.1-.73.1-1.1v-9.93c0-3.83-3.54-6.93-7.91-6.93h-3.86c-4.36,0-7.9,3.11-7.9,6.93v8.76h-12.73c-5.71,0-10.34,4.06-10.34,9.07Z"/>
  <g>
    <rect class="cls-12" x="1478.82" y="886.66" width="85.61" height="41.08" rx="8.92" ry="8.92" transform="translate(3027.7 1839.98) rotate(-179.03)"/>
    <rect class="cls-12" x="1471.02" y="909.89" width="41.98" height="149.37" transform="translate(2842.47 2155.77) rotate(-172.49)"/>
    <rect class="cls-12" x="1526.13" y="910.82" width="41.98" height="149.37" transform="translate(3149.52 1878.3) rotate(176.63)"/>
  </g>
  <rect class="cls-15" x="1509.18" y="750.29" width="38.87" height="26.46" transform="translate(6.51 -12.89) rotate(.48)"/>
  <ellipse class="cls-15" cx="1534.14" cy="689.01" rx="68.64" ry="59.25" transform="translate(832.19 2217.27) rotate(-89.52)"/>
  <path class="cls-4" d="M1597.59,669.16c-8.24,4.67-17.61,5.31-25.56,2.49-.75.51-1.53.99-2.33,1.44-11.55,6.56-25.02,6.17-34.94.09-14.17,6.86-30.87,2.68-38.4-9.85-10.78,4.89-23.31,1.49-28.8-8.16-5.86-10.28-1.52-23.77,9.69-30.13,1.59-.91,3.25-1.62,4.91-2.14-1.59-3.02-2.31-6.35-1.92-9.77,1.23-10.87,13.19-18.44,26.72-16.91,3.45.39,6.67,1.34,9.53,2.71,2.11-2.05,4.53-3.89,7.24-5.42,13.4-7.61,29.46-5.55,39.06,4.09,2.39-.32,4.89-.36,7.45-.07,12.3,1.39,21.65,9.83,22.31,19.53,7.19,1.75,13.54,6.17,17.35,12.86,7.67,13.47,2.16,31.05-12.3,39.26Z"/>
  <circle class="cls-19" cx="1511.91" cy="688.2" r="8.15"/>
  <path class="cls-31" d="M1553.94,720.14c-.28.48.12-.15.15-.17-.28.23-.5.56-.77.8-.1.09-.2.17-.3.26-.32.29-.32.03.16-.12-.28.08-.59.42-.84.58-.31.19-.63.37-.95.54-.2.1-.4.2-.6.29-.7.34.39-.13-.17.08-1.03.38-2.06.71-3.13.95-.61.13-1.23.24-1.85.33.74-.11-.44.05-.64.07-.4.04-.8.07-1.2.09-3.97.24-7.81-.16-11.52-.85-6.91-1.28-13.63-3.5-20.17-6.05-1.26-.49-2.74.54-3.08,1.75-.39,1.42.48,2.58,1.75,3.08,10.1,3.93,21.2,7.53,32.18,7.12,4.76-.18,9.86-1.17,13.6-4.32.64-.54,1.27-1.18,1.7-1.9,1.65-2.77-2.67-5.29-4.32-2.52h0Z"/>
  <circle class="cls-19" cx="1556.25" cy="692.37" r="8.15"/>
  <path class="cls-2" d="M1561.22,911.83l-69.11-1.55c-7.93-.18-14.25-7.14-14.2-15.64l.73-115.91c.06-8.7,6.75-15.68,14.87-15.5l69.11,1.55c7.93.18,14.25,7.14,14.2,15.64l-.73,115.91c-.06,8.7-6.75,15.68-14.87,15.5Z"/>
  <path class="cls-2" d="M1414.87,863.39l1.47,3.62c3.03,7.47,17.25,8.01,31.02,1.18l110.31-54.7c12.58-6.24,20.22-16.41,17.46-23.23l-1.47-3.62c-3.03-7.47-17.25-8.01-31.02-1.18l-110.31,54.7c-12.58,6.24-20.22,16.41-17.46,23.23Z"/>
  <path class="cls-2" d="M1426.23,808.07l1.35,3.78c2.79,7.79,10.66,11.99,17.18,9.17l52.15-22.62c5.95-2.58,8.59-10.13,6.04-17.25l-1.35-3.78c-2.79-7.79-10.66-11.99-17.18-9.17l-52.15,22.62c-5.95,2.58-8.59,10.13-6.04,17.25Z"/>
  <g>
    <g>
      <ellipse class="cls-1" cx="1250.54" cy="881.41" rx="8.8" ry="11.46" transform="translate(-58.32 1673.63) rotate(-66.36)"/>
      <rect class="cls-1" x="1222.4" y="846.44" width="12.65" height="50.84" transform="translate(-62.64 1647.92) rotate(-66.36)"/>
    </g>
    <g>
      <ellipse class="cls-1" cx="1252.57" cy="827.96" rx="8.8" ry="11.46" transform="translate(-99.68 1480.55) rotate(-59.23)"/>
      <rect class="cls-1" x="1225.79" y="790.36" width="12.65" height="50.84" transform="translate(-99.2 1457.02) rotate(-59.23)"/>
    </g>
    <path class="cls-11" d="M1124.6,1069.07v1.95c0,5.01-4.63,9.07-10.34,9.07h-25.46c-5.71,0-10.34-4.06-10.34-9.07v-1.95c0-2.7,1.35-5.13,3.49-6.79-.06-.36-.1-.73-.1-1.1v-9.93c0-3.83,3.54-6.93,7.91-6.93h3.86c4.36,0,7.9,3.11,7.9,6.93v8.76h12.73c5.71,0,10.34,4.06,10.34,9.07Z"/>
    <path class="cls-11" d="M1198.78,1063.89v1.95c0,5.01-4.63,9.07-10.34,9.07h-25.46c-5.71,0-10.34-4.06-10.34-9.07v-1.95c0-2.7,1.35-5.13,3.49-6.79-.06-.36-.1-.73-.1-1.1v-9.93c0-3.83,3.54-6.93,7.91-6.93h3.86c4.36,0,7.9,3.11,7.9,6.93v8.76h12.73c5.71,0,10.34,4.06,10.34,9.07Z"/>
    <g>
      <rect class="cls-14" x="1084.22" y="880" width="85.61" height="41.08" rx="8.92" ry="8.92" transform="translate(-15.06 19.18) rotate(-.97)"/>
      <rect class="cls-14" x="1135.66" y="903.23" width="41.98" height="149.37" transform="translate(-117.93 159.63) rotate(-7.51)"/>
      <rect class="cls-14" x="1080.55" y="904.16" width="41.98" height="149.37" transform="translate(59.48 -63.1) rotate(3.37)"/>
    </g>
    <rect class="cls-1" x="1100.6" y="743.64" width="38.87" height="26.46" transform="translate(2246.42 1504.24) rotate(179.52)"/>
    <ellipse class="cls-1" cx="1114.52" cy="682.35" rx="59.25" ry="68.64" transform="translate(-5.73 9.44) rotate(-.48)"/>
    <path class="cls-8" d="M1182.74,634.4c-4.62,9.64-17.11,14.4-28.68,11.27-6.4,12.56-23.08,18.59-38.34,14.09-9.53,6.92-23.29,9.01-35.83,4.45-.87-.32-1.71-.65-2.53-1.02-7.86,3.63-17.53,4.27-26.47,1.01-15.7-5.72-23.2-21.25-16.76-34.71,3.2-6.68,9.25-11.59,16.44-14.14-.35-9.05,8.35-18.06,20.82-20.95,2.59-.6,5.16-.89,7.64-.91,8.83-10.15,25.07-14.14,39.61-8.85,2.94,1.07,5.62,2.45,8,4.08,2.78-1.65,5.99-2.93,9.48-3.74,13.7-3.17,26.76,2.28,29.17,12.17.76,3.11.37,6.29-.94,9.29,1.76.27,3.54.72,5.26,1.34,12.17,4.43,18.04,16.35,13.12,26.62Z"/>
    <circle class="cls-19" cx="1136.74" cy="681.54" r="8.15"/>
    <path class="cls-31" d="M1090.39,716c1.3,2.18,3.83,3.55,6.09,4.47,6.42,2.62,13.94,1.97,20.59.8,7.13-1.26,14.06-3.54,20.8-6.16,1.26-.49,2.13-1.68,1.75-3.08-.33-1.2-1.81-2.24-3.08-1.75-9.7,3.78-20.09,7.21-30.42,6.95-.76-.02-1.52-.06-2.27-.13-.38-.03-.76-.08-1.13-.13.72.09-.39-.07-.57-.1-1.15-.2-2.28-.48-3.39-.87-.24-.09-.48-.18-.73-.27-.61-.23.5.25-.07-.03-.39-.19-.78-.37-1.16-.59-.3-.17-.59-.35-.87-.54-.13-.09-.26-.21-.4-.29-.08-.04.55.47.1.07-.35-.31-.67-.65-1-.98-.36-.35.42.66.08.09-1.65-2.76-5.97-.25-4.32,2.52h0Z"/>
    <circle class="cls-19" cx="1092.4" cy="685.71" r="8.15"/>
    <path class="cls-10" d="M1087.44,905.18l69.11-1.55c7.93-.18,14.25-7.14,14.2-15.64l-.73-115.91c-.06-8.7-6.75-15.68-14.87-15.5l-69.11,1.55c-7.93.18-14.25,7.14-14.2,15.64l.73,115.91c.06,8.7,6.75,15.68,14.87,15.5Z"/>
    <path class="cls-10" d="M1234.67,870.54l-1.42,3.76c-2.94,7.75-16.77,9.03-30.18,2.81l-107.43-49.88c-12.25-5.69-19.7-15.63-17.02-22.71l1.42-3.76c2.94-7.75,16.77-9.03,30.18-2.81l107.43,49.88c12.25,5.69,19.7,15.63,17.02,22.71Z"/>
    <path class="cls-10" d="M1239.91,817.61l-1.4,2.94c-2.88,6.06-12.11,7.4-20.14,2.92l-64.28-35.92c-7.33-4.1-10.99-11.6-8.36-17.14l1.4-2.94c2.88-6.06,12.11-7.4,20.14-2.92l64.28,35.92c7.33,4.1,10.99,11.6,8.36,17.14Z"/>
  </g>
</svg>