<?xml version="1.0" encoding="utf-8"?>
<!-- Generator: Adobe Illustrator 28.3.0, SVG Export Plug-In . SVG Version: 6.00 Build 0)  -->
<svg version="1.1" id="Layer_1" xmlns="http://www.w3.org/2000/svg" xmlns:xlink="http://www.w3.org/1999/xlink" x="0px" y="0px"
	 viewBox="0 0 2000 1200" style="enable-background:new 0 0 2000 1200;" xml:space="preserve">
<style type="text/css">
	.st0{fill:#5953A3;}
	.st1{fill:#805656;}
	.st2{fill:#466F7F;}
	.st3{fill:#759DAA;}
	.st4{fill:#B72D2C;}
	.st5{fill:#724442;}
	.st6{fill:#1D363D;}
	.st7{fill:#577F60;}
	.st8{fill:#ED7872;}
	.st9{fill:#4970AA;}
	.st10{fill:#65477C;}
	.st11{fill:#CD5A9B;}
	.st12{fill:#E9E672;}
	.st13{fill:#1D725D;}
	.st14{fill:#C97654;}
	.st15{fill:#67C296;}
	.st16{fill:#42A3BA;}
	.st17{fill:#5A5B5C;}
</style>
<g>
	
		<rect x="189.27" y="575.5" transform="matrix(0.3881 0.9216 -0.9216 0.3881 721.2284 177.3031)" class="st0" width="75.65" height="112.54"/>
	
		<rect x="250.75" y="631.93" transform="matrix(0.8298 0.558 -0.558 0.8298 417.1127 -33.0967)" class="st0" width="24.14" height="70.76"/>
	
		<rect x="214.03" y="544.7" transform="matrix(0.1807 -0.9835 0.9835 0.1807 -385.3754 697.7856)" class="st0" width="24.22" height="71.01"/>
</g>
<g>
	
		<rect x="558.48" y="374.35" transform="matrix(-0.8498 -0.5271 0.5271 -0.8498 862.0248 1063.8278)" class="st1" width="48.22" height="69.48"/>
	<polygon class="st1" points="557.86,381.34 542.62,381.5 544.37,425.59 559.62,425.43 	"/>
	<polygon class="st1" points="619.19,419.3 625.84,433.07 585.43,451.15 578.78,437.37 	"/>
</g>
<g>
	<path class="st2" d="M666.6,459.72l-8.56,42c-0.98,4.83-5.69,7.94-10.52,6.96l-11.07-2.25c-4.83-0.98-7.94-5.69-6.96-10.52l8.56-42
		c0.98-4.83,5.69-7.94,10.52-6.96l11.07,2.25C664.47,450.18,667.59,454.89,666.6,459.72z"/>
	
		<rect x="691.27" y="416.21" transform="matrix(0.0866 -0.9962 0.9962 0.0866 177.575 1132.0122)" class="st2" width="29.76" height="105.9"/>
	
		<rect x="683.47" y="454.5" transform="matrix(0.2732 -0.962 0.962 0.2732 19.41 1040.5956)" class="st2" width="29.76" height="105.9"/>
</g>
<g>
	<path class="st3" d="M420.22,721.67l26.43,33.74c3.04,3.88,2.36,9.48-1.52,12.52l-8.89,6.96c-3.88,3.04-9.48,2.36-12.52-1.52
		l-26.43-33.74c-3.04-3.88-2.36-9.48,1.52-12.52l8.89-6.96C411.58,717.11,417.18,717.79,420.22,721.67z"/>
	
		<rect x="438.17" y="644.73" transform="matrix(-0.7023 -0.7119 0.7119 -0.7023 274.5845 1510.1835)" class="st3" width="29.76" height="105.9"/>
	
		<rect x="462.27" y="675.49" transform="matrix(-0.5552 -0.8317 0.8317 -0.5552 136.2509 1529.749)" class="st3" width="29.76" height="105.9"/>
</g>
<g>
	
		<rect x="564.24" y="609.42" transform="matrix(-0.9664 0.257 -0.257 -0.9664 1354.9778 1154.3129)" class="st4" width="75.65" height="112.54"/>
	
		<rect x="549.87" y="660.78" transform="matrix(-0.6674 0.7447 -0.7447 -0.6674 1455.4103 742.27)" class="st4" width="24.14" height="70.76"/>
	
		<rect x="641.16" y="636.37" transform="matrix(0.9491 0.3149 -0.3149 0.9491 244.8094 -171.5354)" class="st4" width="24.22" height="71.01"/>
</g>
<g>
	
		<rect x="370.36" y="543.93" transform="matrix(-0.1634 -0.9866 0.9866 -0.1634 -113.914 1071.2687)" class="st5" width="53.77" height="80"/>
	
		<rect x="369.84" y="528.32" transform="matrix(-0.6775 -0.7355 0.7355 -0.6775 227.7245 1206.7832)" class="st5" width="17.16" height="50.3"/>
	
		<rect x="380.78" y="594.51" transform="matrix(-0.4042 0.9147 -0.9147 -0.4042 1113.6476 514.0579)" class="st5" width="17.22" height="50.47"/>
</g>
<g>
	<path class="st6" d="M268.6,495.99l22.59-36.42c2.6-4.19,8.09-5.47,12.28-2.88l9.6,5.95c4.19,2.6,5.47,8.09,2.88,12.28
		l-22.59,36.42c-2.6,4.19-8.09,5.47-12.28,2.88l-9.6-5.95C267.29,505.67,266,500.17,268.6,495.99z"/>
	
		<rect x="219.9" y="420.46" transform="matrix(-0.4268 0.9043 -0.9043 -0.4268 763.1078 463.162)" class="st6" width="29.76" height="105.9"/>
	
		<rect x="240.5" y="387.25" transform="matrix(-0.5899 0.8074 -0.8074 -0.5899 761.4748 493.6852)" class="st6" width="29.76" height="105.9"/>
</g>
<g>
	
		<rect x="478.26" y="503.02" transform="matrix(0.9997 -0.0255 0.0255 0.9997 -13.5472 12.983)" class="st7" width="48.22" height="69.48"/>
	<polygon class="st7" points="538.27,547.39 550.93,538.9 525.28,503 512.62,511.5 	"/>
	<polygon class="st7" points="466.17,549.31 453.05,541.44 476.93,504.16 490.05,512.02 	"/>
</g>
<g>
	
		<rect x="876.4" y="363.87" transform="matrix(0.0296 -0.9996 0.9996 0.0296 465.1389 1331.1945)" class="st8" width="83.57" height="124.32"/>
	
		<rect x="885.25" y="334.86" transform="matrix(-0.5232 -0.8522 0.8522 -0.5232 1050.0446 1335.368)" class="st8" width="26.67" height="78.17"/>
	
		<rect x="882.11" y="439.08" transform="matrix(-0.5728 0.8197 -0.8197 -0.5728 1800.4519 18.1827)" class="st8" width="26.76" height="78.44"/>
</g>
<g>
	
		<rect x="906.32" y="710.22" transform="matrix(0.5542 0.8324 -0.8324 0.5542 1039.0264 -442.8496)" class="st9" width="53.27" height="76.76"/>
	<polygon class="st9" points="945.08,787.83 960.47,794.66 978.93,749.55 963.54,742.72 	"/>
	<polygon class="st9" points="900.86,721.56 900.49,704.66 949.39,705.03 949.76,721.93 	"/>
</g>
<g>
	<path class="st10" d="M804.22,685.48l28.96-39.79c2.9-3.98,8.48-4.86,12.46-1.96l11.6,8.44c3.98,2.9,4.86,8.48,1.96,12.46
		l-28.96,39.79c-2.9,3.98-8.48,4.86-12.46,1.96l-11.6-8.44C802.2,695.04,801.32,689.46,804.22,685.48z"/>
	
		<rect x="752.91" y="598.6" transform="matrix(-0.4925 0.8703 -0.8703 -0.4925 1720.1116 311.0864)" class="st10" width="32.88" height="116.98"/>
	
		<rect x="778.31" y="563.69" transform="matrix(-0.648 0.7617 -0.7617 -0.648 1783.6204 419.9869)" class="st10" width="32.88" height="116.98"/>
</g>
<g>
	<path class="st3" d="M1216.52,442.92L1205,395.07c-1.15-4.79,1.79-9.6,6.58-10.76l13.94-3.36c4.79-1.15,9.6,1.79,10.76,6.58
		l11.52,47.85c1.15,4.79-1.79,9.6-6.58,10.76l-13.94,3.36C1222.49,450.65,1217.67,447.7,1216.52,442.92z"/>
	
		<rect x="1155.86" y="392.56" transform="matrix(0.3433 0.9392 -0.9392 0.3433 1193.4336 -804.8463)" class="st3" width="32.88" height="116.98"/>
	
		<rect x="1145.76" y="350.6" transform="matrix(0.1598 0.9871 -0.9871 0.1598 1380.2983 -803.5465)" class="st3" width="32.88" height="116.98"/>
</g>
<g>
	
		<rect x="964.35" y="530.84" transform="matrix(0.9859 0.1675 -0.1675 0.9859 113.5363 -160.1425)" class="st11" width="83.57" height="124.32"/>
	
		<rect x="1047.1" y="541.7" transform="matrix(0.9163 -0.4004 0.4004 0.9163 -143.8309 473.1798)" class="st11" width="26.67" height="78.17"/>
	
		<rect x="944.13" y="524.08" transform="matrix(-0.7327 -0.6806 0.6806 -0.7327 1275.7225 1627.6686)" class="st11" width="26.76" height="78.44"/>
</g>
<g>
	
		<rect x="1107.19" y="686.9" transform="matrix(-0.261 0.9654 -0.9654 -0.261 2139.3225 -175.6362)" class="st5" width="59.4" height="88.37"/>
	
		<rect x="1132.37" y="742.56" transform="matrix(0.311 0.9504 -0.9504 0.311 1518.8961 -554.4514)" class="st5" width="18.96" height="55.56"/>
	
		<rect x="1151.7" y="670.82" transform="matrix(0.7475 -0.6643 0.6643 0.7475 -170.9012 947.8385)" class="st5" width="19.02" height="55.76"/>
</g>
<g>
	<path class="st6" d="M1252.78,575.48l-40.97,27.27c-4.1,2.73-9.64,1.62-12.36-2.48l-7.95-11.94c-2.73-4.1-1.62-9.64,2.48-12.36
		l40.96-27.27c4.1-2.73,9.64-1.62,12.36,2.48l7.95,11.94C1257.99,567.21,1256.88,572.75,1252.78,575.48z"/>
	
		<rect x="1259.19" y="555.71" transform="matrix(0.7638 -0.6455 0.6455 0.7638 -95.1281 968.4507)" class="st6" width="32.88" height="116.98"/>
	
		<rect x="1223.26" y="579.63" transform="matrix(0.8719 -0.4896 0.4896 0.8719 -153.6768 688.6962)" class="st6" width="32.88" height="116.98"/>
</g>
<g>
	
		<rect x="679.73" y="730.31" transform="matrix(-0.92 -0.3919 0.3919 -0.92 1055.0004 1752.7003)" class="st7" width="53.27" height="76.76"/>
	<polygon class="st7" points="674.7,742.55 658.09,745.28 667.4,793.12 684.02,790.39 	"/>
	<polygon class="st7" points="748.04,773.69 757.61,787.61 716.52,814.13 706.95,800.21 	"/>
</g>
<g>
	
		<rect x="1327.78" y="443.47" transform="matrix(-0.5486 -0.8361 0.8361 -0.5486 1696.308 1908.4934)" class="st12" width="71.09" height="105.76"/>
	
		<rect x="1312.92" y="436.34" transform="matrix(-0.9172 -0.3985 0.3985 -0.9172 2351.7419 1427.9688)" class="st12" width="22.69" height="66.5"/>
	
		<rect x="1361.61" y="510.48" transform="matrix(4.879441e-04 1 -1 4.879441e-04 1916.1681 -829.4082)" class="st12" width="22.77" height="66.73"/>
</g>
<g>
	
		<rect x="1699.91" y="663.81" transform="matrix(0.9312 0.3644 -0.3644 0.9312 372.2979 -579.8873)" class="st1" width="45.32" height="65.3"/>
	<polygon class="st1" points="1750.14,717.89 1764.2,715.15 1755.08,674.7 1741.02,677.45 	"/>
	<polygon class="st1" points="1687,693.26 1678.51,681.66 1712.78,658.07 1721.27,669.67 	"/>
</g>
<g>
	<path class="st13" d="M1649.21,617.34l-20.89-33.18c-2.62-4.17-1.37-9.67,2.79-12.3l8.07-5.08c4.17-2.62,9.67-1.37,12.3,2.79
		l20.89,33.18c2.62,4.17,1.37,9.67-2.79,12.3l-8.07,5.08C1657.34,622.76,1651.83,621.51,1649.21,617.34z"/>
	
		<rect x="1602.5" y="587.31" transform="matrix(0.6258 0.78 -0.78 0.6258 1101.8015 -1022.4481)" class="st13" width="27.97" height="99.52"/>
	
		<rect x="1582.94" y="556.23" transform="matrix(0.4672 0.8841 -0.8841 0.4672 1386.5422 -1089.0397)" class="st13" width="27.97" height="99.52"/>
</g>
<g>
	<path class="st3" d="M1320.2,811.69l-29.37-25.98c-3.69-3.26-4.03-8.9-0.77-12.59l6.32-7.14c3.26-3.69,8.9-4.03,12.59-0.77
		l29.37,25.98c3.69,3.26,4.03,8.9,0.77,12.59l-6.32,7.14C1329.52,814.6,1323.89,814.95,1320.2,811.69z"/>
	
		<rect x="1280.35" y="790.04" transform="matrix(0.8197 0.5728 -0.5728 0.8197 714.4966 -590.0105)" class="st3" width="27.97" height="99.52"/>
	
		<rect x="1252.85" y="765.71" transform="matrix(0.6967 0.7173 -0.7173 0.6967 969.1382 -661.4292)" class="st3" width="27.97" height="99.52"/>
</g>
<g>
	
		<rect x="1489.3" y="741.78" transform="matrix(0.9039 -0.4278 0.4278 0.9039 -193.3759 728.7241)" class="st14" width="71.09" height="105.76"/>
	
		<rect x="1545.4" y="726.42" transform="matrix(0.5214 -0.8533 0.8533 0.5214 96.8167 1691.9504)" class="st14" width="22.69" height="66.5"/>
	
		<rect x="1465.09" y="764.3" transform="matrix(-0.9905 -0.1377 0.1377 -0.9905 2829.0066 1791.0767)" class="st14" width="22.77" height="66.73"/>
</g>
<g>
	
		<rect x="1436.15" y="554.97" transform="matrix(0.3395 0.9406 -0.9406 0.3395 1522.7053 -983.2307)" class="st15" width="50.53" height="75.18"/>
	
		<rect x="1475.95" y="593.87" transform="matrix(0.7996 0.6006 -0.6006 0.7996 668.3087 -767.4958)" class="st15" width="16.13" height="47.27"/>
	
		<rect x="1454.49" y="534.41" transform="matrix(0.2318 -0.9728 0.9728 0.2318 580.676 1851.5255)" class="st15" width="16.18" height="47.43"/>
</g>
<g>
	<path class="st6" d="M1519,426.33l-14.29,36.51c-1.79,4.59-6.97,6.85-11.55,5.05l-8.88-3.48c-4.59-1.79-6.85-6.97-5.05-11.55
		l14.29-36.51c1.79-4.59,6.97-6.85,11.55-5.05l8.88,3.48C1518.54,416.57,1520.8,421.74,1519,426.33z"/>
	
		<rect x="1540.31" y="391.18" transform="matrix(0.2559 -0.9667 0.9667 0.2559 730.2366 1830.6157)" class="st6" width="27.97" height="99.52"/>
	
		<rect x="1526.93" y="425.38" transform="matrix(0.4339 -0.901 0.901 0.4339 444.251 1657.2993)" class="st6" width="27.97" height="99.52"/>
</g>
<g>
	
		<rect x="1400.51" y="680.65" transform="matrix(-0.9785 0.2062 -0.2062 -0.9785 2962.8228 1117.8214)" class="st7" width="45.32" height="65.3"/>
	<polygon class="st7" points="1388.35,710.51 1378.1,720.52 1407.92,749.32 1418.17,739.32 	"/>
	<polygon class="st7" points="1454.66,696.46 1468.12,701.5 1452.41,740.02 1438.94,734.99 	"/>
</g>
<g>
	
		<rect x="1707.19" y="433.94" transform="matrix(0.6988 -0.7153 0.7153 0.6988 174.9404 1395.8933)" class="st0" width="75.65" height="112.54"/>
	
		<rect x="1751.82" y="408.12" transform="matrix(0.1923 -0.9813 0.9813 0.1923 989.5078 2089.2085)" class="st0" width="24.14" height="70.76"/>
	
		<rect x="1685.74" y="475.6" transform="matrix(-0.9766 0.2152 -0.2152 -0.9766 3465.9097 644.9467)" class="st0" width="24.22" height="71.01"/>
</g>
<g>
	
		<rect x="286.68" y="712.19" transform="matrix(0.6313 -0.7756 0.7756 0.6313 -469.3813 523.2955)" class="st11" width="57.93" height="86.19"/>
	
		<rect x="317.57" y="691.26" transform="matrix(0.1028 -0.9947 0.9947 0.1028 -421.3243 969.6052)" class="st11" width="18.49" height="54.19"/>
	
		<rect x="271.85" y="747.3" transform="matrix(-0.9531 0.3025 -0.3025 -0.9531 783.4013 1427.6201)" class="st11" width="18.55" height="54.38"/>
</g>
<g>
	
		<rect x="382.99" y="297.56" transform="matrix(0.9717 0.2363 -0.2363 0.9717 96.1342 -90.0064)" class="st7" width="81.31" height="117.17"/>
	<polygon class="st7" points="477.85,387.62 502.19,379.36 476.23,309.64 451.88,317.9 	"/>
	<polygon class="st7" points="359.64,359.01 341.75,340.43 397.01,290.24 414.91,308.82 	"/>
</g>
<g>
	
		<rect x="94.38" y="712.97" transform="matrix(0.593 0.8052 -0.8052 0.593 665.9794 207.5188)" class="st8" width="66.66" height="99.17"/>
	
		<rect x="155.01" y="754.45" transform="matrix(0.9374 0.3483 -0.3483 0.9374 284.0145 -8.4984)" class="st8" width="21.27" height="62.35"/>
	
		<rect x="105.58" y="687.28" transform="matrix(-0.0545 -0.9985 0.9985 -0.0545 -594.9031 873.8406)" class="st8" width="21.35" height="62.57"/>
</g>
<g>
	<path class="st10" d="M1840.83,799.21l-36.6-32.9c-3.66-3.29-3.96-8.93-0.67-12.59l9.59-10.67c3.29-3.66,8.93-3.96,12.59-0.67
		l36.6,32.9c3.66,3.29,3.96,8.93,0.67,12.59l-9.59,10.67C1850.13,802.2,1844.49,802.5,1840.83,799.21z"/>
	
		<rect x="1792.57" y="772.48" transform="matrix(0.8151 0.5793 -0.5793 0.8151 815.8645 -894.3358)" class="st10" width="32.88" height="116.98"/>
	
		<rect x="1760.46" y="743.63" transform="matrix(0.691 0.7228 -0.7228 0.691 1128.7618 -1036.5455)" class="st10" width="32.88" height="116.98"/>
</g>
<g>
	
		<rect x="1839.8" y="571.25" transform="matrix(0.9997 -0.0255 0.0255 0.9997 -14.8441 47.7181)" class="st7" width="48.22" height="69.48"/>
	<polygon class="st7" points="1899.8,615.62 1912.46,607.12 1886.81,571.23 1874.15,579.72 	"/>
	<polygon class="st7" points="1827.71,617.54 1814.59,609.67 1838.46,572.38 1851.58,580.25 	"/>
</g>
<g>
	
		<rect x="59.73" y="405.89" transform="matrix(0.9008 -0.4343 0.4343 0.9008 -186.8401 84.2994)" class="st9" width="62.67" height="90.3"/>
	<polygon class="st9" points="138.73,443.26 149.19,426.43 99.62,397.62 89.16,414.44 	"/>
	<polygon class="st9" points="54.35,484.06 34.6,481.75 42.96,424.82 62.7,427.13 	"/>
</g>
<g>
	
		<rect x="1915.02" y="432.57" transform="matrix(0.7092 0.705 -0.705 0.7092 909.41 -1233.9579)" class="st14" width="71.09" height="105.76"/>
	
		<rect x="1982.97" y="470.33" transform="matrix(0.9796 0.2008 -0.2008 0.9796 141.7287 -390.1814)" class="st14" width="22.69" height="66.5"/>
	
		<rect x="1919.94" y="407.6" transform="matrix(-0.2067 -0.9784 0.9784 -0.2067 1899.0164 2421.7268)" class="st14" width="22.77" height="66.73"/>
</g>
<g>
	
		<rect x="1007.72" y="812.39" transform="matrix(0.4114 0.9114 -0.9114 0.4114 1381.8115 -441.2199)" class="st4" width="49.65" height="73.86"/>
	
		<rect x="1048.65" y="848.82" transform="matrix(0.8438 0.5367 -0.5367 0.8438 633.0933 -430.8293)" class="st4" width="15.84" height="46.44"/>
	
		<rect x="1023.1" y="792.2" transform="matrix(0.1556 -0.9878 0.9878 0.1556 65.0855 1707.1461)" class="st4" width="15.9" height="46.6"/>
</g>
<g>
	
		<rect x="712.26" y="272.5" transform="matrix(0.8805 -0.4741 0.4741 0.8805 -60.6265 388.7212)" class="st12" width="56.58" height="84.17"/>
	
		<rect x="755.43" y="259" transform="matrix(0.4764 -0.8792 0.8792 0.4764 149.2675 821.5779)" class="st12" width="18.06" height="52.92"/>
	
		<rect x="693.17" y="292.42" transform="matrix(-0.9963 -0.0862 0.0862 -0.9963 1374.3562 697.259)" class="st12" width="18.12" height="53.11"/>
</g>
<g>
	<path class="st16" d="M1069.58,259.48l-20.57,37.6c-2.36,4.32-7.78,5.91-12.1,3.54l-9.91-5.42c-4.32-2.36-5.91-7.78-3.54-12.1
		l20.57-37.6c2.36-4.32,7.78-5.91,12.1-3.54l9.91,5.42C1070.36,249.74,1071.95,255.16,1069.58,259.48z"/>
	
		<rect x="1089.7" y="227.24" transform="matrix(0.3769 -0.9263 0.9263 0.3769 428.7488 1197.712)" class="st16" width="29.76" height="105.9"/>
	
		<rect x="1070.94" y="261.52" transform="matrix(0.545 -0.8384 0.8384 0.545 230.3678 1053.4512)" class="st16" width="29.76" height="105.9"/>
</g>
<g>
	
		<rect x="1367.58" y="269.14" transform="matrix(0.979 -0.2036 0.2036 0.979 -34.7427 291.2617)" class="st0" width="60.94" height="90.66"/>
	
		<rect x="1421.94" y="263.23" transform="matrix(0.7072 -0.707 0.707 0.7072 212.9526 1097.6538)" class="st0" width="19.45" height="57"/>
	
		<rect x="1347.38" y="278.63" transform="matrix(-0.9304 -0.3664 0.3664 -0.9304 2507.2844 1090.3973)" class="st0" width="19.51" height="57.2"/>
</g>
<g>
	
		<rect x="435.11" y="809.02" transform="matrix(0.5403 -0.8415 0.8415 0.5403 -504.3477 783.5087)" class="st17" width="59.57" height="88.63"/>
	
		<rect x="462.54" y="786.44" transform="matrix(-9.477423e-03 -1 1 -9.477423e-03 -337.752 1294.0442)" class="st17" width="19.01" height="55.72"/>
	
		<rect x="422.3" y="848.97" transform="matrix(-0.9132 0.4076 -0.4076 -0.9132 1183.5948 1501.7102)" class="st17" width="19.08" height="55.92"/>
</g>
<g>
	
		<rect x="218.02" y="223.08" transform="matrix(0.9958 -0.0917 0.0917 0.9958 -23.8132 24.0967)" class="st8" width="64.81" height="96.42"/>
	
		<rect x="278.34" y="221" transform="matrix(0.7826 -0.6226 0.6226 0.7826 -93.6863 234.3713)" class="st8" width="20.68" height="60.62"/>
	
		<rect x="197.68" y="228.31" transform="matrix(-0.8831 -0.4692 0.4692 -0.8831 270.3776 584.8367)" class="st8" width="20.75" height="60.83"/>
</g>
<g>
	<path class="st2" d="M755.19,845.15l-8.56,42c-0.98,4.83-5.69,7.94-10.52,6.96l-11.07-2.25c-4.83-0.98-7.94-5.69-6.96-10.52
		l8.56-42c0.98-4.83,5.69-7.94,10.52-6.96l11.07,2.25C753.06,835.62,756.17,840.32,755.19,845.15z"/>
	
		<rect x="779.86" y="801.65" transform="matrix(0.0866 -0.9962 0.9962 0.0866 -125.499 1572.3059)" class="st2" width="29.76" height="105.9"/>
	
		<rect x="772.06" y="839.94" transform="matrix(0.2732 -0.962 0.962 0.2732 -286.9767 1405.9417)" class="st2" width="29.76" height="105.9"/>
</g>
<g>
	
		<rect x="1679.49" y="198.59" transform="matrix(0.3367 0.9416 -0.9416 0.3367 1387.3207 -1447.8331)" class="st11" width="83.57" height="124.32"/>
	
		<rect x="1745.18" y="263.03" transform="matrix(0.7978 0.603 -0.603 0.7978 537.7733 -999.2065)" class="st11" width="26.67" height="78.17"/>
	
		<rect x="1709.98" y="164.59" transform="matrix(0.2347 -0.9721 0.9721 0.2347 1120.8431 1831.2267)" class="st11" width="26.76" height="78.44"/>
</g>
<g>
	
		<rect x="-3.95" y="573.28" transform="matrix(-0.5114 0.8593 -0.8593 -0.5114 567.091 909.9154)" class="st12" width="57.66" height="85.78"/>
	
		<rect x="10.04" y="627.19" transform="matrix(0.0434 0.9991 -0.9991 0.0434 671.949 606.5608)" class="st12" width="18.4" height="53.94"/>
	
		<rect x="46.85" y="565.19" transform="matrix(0.8988 -0.4383 0.4383 0.8988 -253.9104 84.5019)" class="st12" width="18.46" height="54.12"/>
</g>
</svg>
