<?xml version="1.0" encoding="UTF-8"?>
<svg id="Layer_1" data-name="Layer 1" xmlns="http://www.w3.org/2000/svg" version="1.1" viewBox="0 0 2000 1200">
  <defs>
    <style>
      .cls-1 {
        fill: #48aa85;
      }

      .cls-1, .cls-2, .cls-3, .cls-4, .cls-5, .cls-6, .cls-7, .cls-8, .cls-9, .cls-10, .cls-11, .cls-12, .cls-13, .cls-14, .cls-15, .cls-16, .cls-17, .cls-18, .cls-19, .cls-20, .cls-21, .cls-22, .cls-23, .cls-24, .cls-25, .cls-26, .cls-27, .cls-28, .cls-29, .cls-30, .cls-31, .cls-32, .cls-33, .cls-34, .cls-35, .cls-36, .cls-37, .cls-38, .cls-39, .cls-40, .cls-41, .cls-42, .cls-43 {
        stroke-width: 0px;
      }

      .cls-2 {
        fill: #838687;
      }

      .cls-3 {
        fill: #3a3a3a;
      }

      .cls-4 {
        fill: #e9e672;
      }

      .cls-5 {
        fill: #4f4f4f;
      }

      .cls-6 {
        fill: #1d363d;
      }

      .cls-7 {
        fill: #4970aa;
      }

      .cls-8 {
        fill: #99934a;
      }

      .cls-9 {
        fill: #36994c;
      }

      .cls-10 {
        fill: #4da849;
      }

      .cls-11 {
        fill: #4969aa;
      }

      .cls-12 {
        fill: #b72d2c;
      }

      .cls-13 {
        fill: #4b4d4f;
      }

      .cls-14 {
        fill: #724442;
      }

      .cls-15 {
        fill: #ed7872;
      }

      .cls-16 {
        fill: #854b9e;
      }

      .cls-17 {
        fill: #919191;
      }

      .cls-18 {
        fill: #3f2a3f;
      }

      .cls-19 {
        fill: #000;
      }

      .cls-20 {
        fill: #fcb416;
      }

      .cls-21 {
        fill: #5b5e5f;
      }

      .cls-22 {
        fill: #1d725d;
      }

      .cls-23 {
        fill: #f26a21;
      }

      .cls-24 {
        fill: #7c4b9e;
      }

      .cls-25 {
        fill: #65477c;
      }

      .cls-26 {
        fill: #466f7f;
      }

      .cls-27 {
        fill: #805656;
      }

      .cls-28 {
        fill: #67c296;
      }

      .cls-29 {
        fill: #bc5870;
      }

      .cls-30 {
        fill: #5953a3;
      }

      .cls-31 {
        fill: #bcd638;
      }

      .cls-32 {
        fill: #65abc6;
      }

      .cls-33 {
        fill: #969899;
      }

      .cls-34 {
        fill: #ac499b;
      }

      .cls-35 {
        fill: #577f60;
      }

      .cls-36 {
        fill: #666868;
      }

      .cls-37 {
        fill: #759daa;
      }

      .cls-38 {
        fill: #cd5a9b;
      }

      .cls-39 {
        fill: #fff;
      }

      .cls-40 {
        fill: #c97654;
      }

      .cls-41 {
        fill: #61aee1;
      }

      .cls-42 {
        fill: #b858a2;
      }

      .cls-43 {
        fill: #4b96a8;
      }
    </style>
  </defs>
  <rect class="cls-41" x="-31.95" y="-35.62" width="2058.06" height="1263.44"/>
  <rect class="cls-13" x="-47.84" y="835.64" width="2084.55" height="392.18"/>
  <rect class="cls-33" x="-31.95" y="815.53" width="2067.88" height="23.9"/>
  <g>
    <rect class="cls-30" x="1155.12" y="1451.32" width="75.65" height="112.54" transform="translate(2119.44 -176.91) rotate(67.17)"/>
    <rect class="cls-30" x="1216.6" y="1507.74" width="24.14" height="70.76" transform="translate(1070.23 -423.03) rotate(33.92)"/>
    <rect class="cls-30" x="1179.88" y="1420.52" width="24.22" height="71.01" transform="translate(-455.45 2365.3) rotate(-79.59)"/>
  </g>
  <g>
    <rect class="cls-37" x="1357.47" y="1608.77" width="60.7" height="29.13" rx="8.92" ry="8.92" transform="translate(965.53 3716.89) rotate(-128.07)"/>
    <rect class="cls-37" x="1404.02" y="1520.55" width="29.76" height="105.9" transform="translate(1295.29 3688.66) rotate(-134.61)"/>
    <rect class="cls-37" x="1428.12" y="1551.31" width="29.76" height="105.9" transform="translate(909.98 3695.15) rotate(-123.73)"/>
  </g>
  <g>
    <rect class="cls-12" x="1530.09" y="1485.24" width="75.65" height="112.54" transform="translate(3479.3 2628.35) rotate(165.11)"/>
    <rect class="cls-12" x="1515.72" y="1536.6" width="24.14" height="70.76" transform="translate(3718.08 1483.31) rotate(131.87)"/>
    <rect class="cls-12" x="1607.01" y="1512.19" width="24.22" height="71.01" transform="translate(569.74 -431.12) rotate(18.35)"/>
  </g>
  <g>
    <rect class="cls-14" x="1336.21" y="1419.75" width="53.77" height="80" transform="translate(145.73 3043.08) rotate(-99.41)"/>
    <rect class="cls-14" x="1335.68" y="1404.14" width="17.16" height="50.3" transform="translate(1203.79 3386.37) rotate(-132.65)"/>
    <rect class="cls-14" x="1346.63" y="1470.33" width="17.22" height="50.47" transform="translate(3270.96 860.41) rotate(113.84)"/>
  </g>
  <g>
    <rect class="cls-35" x="1467.06" y="1367.81" width="48.22" height="69.48" transform="translate(-35.27 38.47) rotate(-1.46)"/>
    <polygon class="cls-35" points="1527.06 1412.18 1539.72 1403.68 1514.07 1367.79 1501.41 1376.29 1527.06 1412.18"/>
    <polygon class="cls-35" points="1454.97 1414.1 1441.85 1406.23 1465.72 1368.94 1478.84 1376.81 1454.97 1414.1"/>
  </g>
  <g>
    <rect class="cls-6" x="1108.52" y="1876.36" width="67.05" height="32.18" rx="8.92" ry="8.92" transform="translate(-857.38 950.14) rotate(-33.66)"/>
    <rect class="cls-6" x="1177.86" y="1872.43" width="32.88" height="116.98" transform="translate(-964.24 1226.98) rotate(-40.2)"/>
    <rect class="cls-6" x="1141.93" y="1896.36" width="32.88" height="116.98" transform="translate(-808.78 817.5) rotate(-29.32)"/>
  </g>
  <g>
    <rect class="cls-35" x="1645.58" y="1606.13" width="53.27" height="76.76" transform="translate(2566.24 3812.78) rotate(-156.93)"/>
    <polygon class="cls-35" points="1640.55 1618.37 1623.94 1621.1 1633.25 1668.94 1649.87 1666.2 1640.55 1618.37"/>
    <polygon class="cls-35" points="1713.88 1649.51 1723.46 1663.43 1682.37 1689.95 1672.79 1676.03 1713.88 1649.51"/>
  </g>
  <g>
    <rect class="cls-27" x="1602.1" y="1964.14" width="45.32" height="65.3" transform="translate(839.47 -454.81) rotate(21.37)"/>
    <polygon class="cls-27" points="1652.33 2018.22 1666.4 2015.47 1657.27 1975.03 1643.21 1977.77 1652.33 2018.22"/>
    <polygon class="cls-27" points="1589.19 1993.58 1580.7 1981.98 1614.97 1958.4 1623.47 1970 1589.19 1993.58"/>
  </g>
  <g>
    <rect class="cls-22" x="1524.01" y="1880.1" width="57.04" height="27.37" rx="8.92" ry="8.92" transform="translate(2327.89 -429.06) rotate(57.8)"/>
    <rect class="cls-22" x="1504.7" y="1887.63" width="27.97" height="99.52" transform="translate(2079.44 -459.57) rotate(51.26)"/>
    <rect class="cls-22" x="1485.13" y="1856.55" width="27.97" height="99.52" transform="translate(2484.09 -309.81) rotate(62.14)"/>
  </g>
  <g>
    <rect class="cls-37" x="1175.29" y="2037.8" width="57.04" height="27.37" rx="8.92" ry="8.92" transform="translate(1661.3 -282.7) rotate(41.49)"/>
    <rect class="cls-37" x="1169.58" y="2053.08" width="27.97" height="99.52" transform="translate(1418.05 -298.78) rotate(34.95)"/>
    <rect class="cls-37" x="1142.07" y="2028.75" width="27.97" height="99.52" transform="translate(1841.55 -198.93) rotate(45.83)"/>
  </g>
  <g>
    <rect class="cls-40" x="1391.5" y="2042.1" width="71.09" height="105.76" transform="translate(-759.06 811.88) rotate(-25.33)"/>
    <rect class="cls-40" x="1447.6" y="2026.74" width="22.69" height="66.5" transform="translate(-1059.57 2230.81) rotate(-58.57)"/>
    <rect class="cls-40" x="1367.28" y="2064.62" width="22.77" height="66.73" transform="translate(2455.23 4365.86) rotate(-172.08)"/>
  </g>
  <g>
    <rect class="cls-6" x="1372.79" y="1726.23" width="57.04" height="27.37" rx="8.92" ry="8.92" transform="translate(-729.65 2410.74) rotate(-68.63)"/>
    <rect class="cls-6" x="1442.51" y="1691.5" width="27.97" height="99.52" transform="translate(-599.55 2703.58) rotate(-75.17)"/>
    <rect class="cls-6" x="1429.12" y="1725.7" width="27.97" height="99.52" transform="translate(-782.67 2305.31) rotate(-64.29)"/>
  </g>
  <g>
    <rect class="cls-25" x="1701.95" y="2055.03" width="67.05" height="32.18" rx="8.92" ry="8.92" transform="translate(1829.09 -629.37) rotate(41.95)"/>
    <rect class="cls-25" x="1694.76" y="2072.8" width="32.88" height="116.98" transform="translate(1551.07 -597.25) rotate(35.4)"/>
    <rect class="cls-25" x="1662.65" y="2043.95" width="32.88" height="116.98" transform="translate(2038.43 -564.11) rotate(46.29)"/>
  </g>
  <g>
    <g>
      <rect class="cls-3" x="1194.06" y="829.14" width="659.76" height="94.36" rx="28.8" ry="28.8"/>
      <rect class="cls-3" x="1238.12" y="923.5" width="27.32" height="205.74"/>
      <rect class="cls-3" x="1722.81" y="923.5" width="27.32" height="205.74"/>
      <rect class="cls-3" x="1334.49" y="865.61" width="27.32" height="205.74"/>
      <rect class="cls-3" x="1801.06" y="865.61" width="27.32" height="205.74"/>
    </g>
    <g>
      <g>
        <rect class="cls-27" x="1662.27" y="763.19" width="53.9" height="77.67" transform="translate(2701.91 2374.02) rotate(-148.19)"/>
        <polygon class="cls-27" points="1661.58 771.01 1644.54 771.19 1646.5 820.47 1663.54 820.29 1661.58 771.01"/>
        <polygon class="cls-27" points="1730.13 813.44 1737.57 828.84 1692.39 849.04 1684.95 833.64 1730.13 813.44"/>
      </g>
      <g>
        <rect class="cls-6" x="1487.23" y="708.1" width="67.85" height="32.56" rx="8.92" ry="8.92" transform="translate(471.63 -593.63) rotate(26.01)"/>
        <rect class="cls-6" x="1497.62" y="730.49" width="33.27" height="118.38" transform="translate(349.62 -459.39) rotate(19.46)"/>
        <rect class="cls-6" x="1458.36" y="711.34" width="33.27" height="118.38" transform="translate(591.39 -639.64) rotate(30.35)"/>
      </g>
      <g>
        <rect class="cls-35" x="1342.74" y="675.75" width="50.66" height="72.99" transform="translate(2853.59 1127.1) rotate(168.1)"/>
        <polygon class="cls-35" points="1329.15 709.13 1317.69 720.31 1351.02 752.51 1362.48 741.33 1329.15 709.13"/>
        <polygon class="cls-35" points="1403.27 693.43 1418.32 699.06 1400.75 742.12 1385.7 736.49 1403.27 693.43"/>
      </g>
      <g>
        <g>
          <rect class="cls-14" x="1662.66" y="706.01" width="66.4" height="98.78" transform="translate(2914.17 -645.42) rotate(107)"/>
          <rect class="cls-14" x="1689.36" y="768.38" width="21.19" height="62.11" transform="translate(1992.05 -1056.27) rotate(73.76)"/>
          <rect class="cls-14" x="1713.58" y="688.94" width="21.26" height="62.33" transform="translate(-61.89 1269.02) rotate(-39.75)"/>
        </g>
        <g>
          <rect class="cls-15" x="1731.43" y="706.37" width="74.51" height="110.86" transform="translate(1394.93 -1127.35) rotate(55.51)"/>
          <rect class="cls-15" x="1798.33" y="754.12" width="23.78" height="69.7" transform="translate(433.82 -626.97) rotate(22.26)"/>
          <rect class="cls-15" x="1745.57" y="677.27" width="23.86" height="69.94" transform="translate(1083.73 2484.85) rotate(-91.25)"/>
        </g>
        <g>
          <rect class="cls-7" x="1749.29" y="762.59" width="70.05" height="100.94" transform="translate(-176.39 791.31) rotate(-23.86)"/>
          <polygon class="cls-7" points="1837.86 806.12 1850.15 787.71 1795.83 753.7 1783.53 772.11 1837.86 806.12"/>
          <polygon class="cls-7" points="1742.09 848.61 1720.11 845.31 1731.53 782.01 1753.51 785.32 1742.09 848.61"/>
        </g>
        <g>
          <rect class="cls-30" x="1253.33" y="688.27" width="84.56" height="125.8" transform="translate(138.79 1702.29) rotate(-69.53)"/>
          <rect class="cls-30" x="1280.3" y="655.33" width="26.98" height="79.1" transform="translate(902.22 2110.31) rotate(-102.78)"/>
          <rect class="cls-30" x="1243.31" y="754.17" width="27.08" height="79.37" transform="translate(2739.77 689.93) rotate(143.71)"/>
        </g>
        <g>
          <rect class="cls-26" x="1262.23" y="724.54" width="67.85" height="32.56" rx="8.92" ry="8.92" transform="translate(849.63 2165.4) rotate(-102.35)"/>
          <rect class="cls-26" x="1335" y="646.52" width="33.27" height="118.38" transform="translate(1121.57 2213.02) rotate(-108.89)"/>
          <rect class="cls-26" x="1344.34" y="689.19" width="33.27" height="118.38" transform="translate(809.45 2200.32) rotate(-98.01)"/>
        </g>
        <g>
          <rect class="cls-15" x="1369.33" y="719.75" width="93.41" height="138.97" transform="translate(1219.33 2398.38) rotate(-112.16)"/>
          <rect class="cls-15" x="1357.53" y="701.16" width="29.81" height="87.38" transform="translate(2079.4 2137.18) rotate(-145.41)"/>
          <rect class="cls-15" x="1401.51" y="809.09" width="29.91" height="87.68" transform="translate(2525.72 -373.21) rotate(101.08)"/>
        </g>
        <g>
          <rect class="cls-7" x="1503.96" y="812.59" width="59.54" height="85.8" transform="translate(1235.58 -875.2) rotate(51.07)"/>
          <polygon class="cls-7" points="1551.25 897.9 1569.09 903.93 1585 851.82 1567.17 845.8 1551.25 897.9"/>
          <polygon class="cls-7" points="1495.22 828.68 1493.08 809.91 1547.55 805.3 1549.7 824.07 1495.22 828.68"/>
        </g>
        <g>
          <rect class="cls-25" x="1698.25" y="809.06" width="74.95" height="35.97" rx="8.92" ry="8.92" transform="translate(2910.5 -695.01) rotate(102.19)"/>
          <rect class="cls-25" x="1645.49" y="771.5" width="36.75" height="130.76" transform="translate(2660.24 -736.67) rotate(95.64)"/>
          <rect class="cls-25" x="1655.67" y="724.34" width="36.75" height="130.76" transform="translate(2907.32 -590.55) rotate(106.53)"/>
        </g>
        <g>
          <rect class="cls-37" x="1517.45" y="689.98" width="74.95" height="35.97" rx="8.92" ry="8.92" transform="translate(1172.97 -957.31) rotate(52.6)"/>
          <rect class="cls-37" x="1497.45" y="703.67" width="36.75" height="130.76" transform="translate(1017.68 -856.07) rotate(46.06)"/>
          <rect class="cls-37" x="1468.14" y="665.34" width="36.75" height="130.76" transform="translate(1288.08 -913.76) rotate(56.94)"/>
        </g>
        <g>
          <rect class="cls-38" x="1563.01" y="732.54" width="93.41" height="138.97" transform="translate(-147.69 419.99) rotate(-14.22)"/>
          <rect class="cls-38" x="1644.8" y="721.3" width="29.81" height="87.38" transform="translate(-26.02 1470.79) rotate(-47.46)"/>
          <rect class="cls-38" x="1531.62" y="749.81" width="29.91" height="87.68" transform="translate(2749.96 2048.11) rotate(-160.97)"/>
        </g>
        <g>
          <rect class="cls-4" x="1516.78" y="699.3" width="79.47" height="118.22" transform="translate(2452.35 2240.11) rotate(-147.13)"/>
          <rect class="cls-4" x="1491.8" y="711.56" width="25.36" height="74.33" transform="translate(3013.89 1487.47) rotate(179.62)"/>
          <rect class="cls-4" x="1575.15" y="765.3" width="25.45" height="74.59" transform="translate(1678.66 -974.27) rotate(66.11)"/>
        </g>
        <g>
          <rect class="cls-28" x="1585.11" y="680.61" width="56.49" height="84.04" transform="translate(1020.99 -942.97) rotate(46.29)"/>
          <rect class="cls-28" x="1638.72" y="711.5" width="18.03" height="52.84" transform="translate(209.17 -352.99) rotate(13.05)"/>
          <rect class="cls-28" x="1589.93" y="660.39" width="18.09" height="53.02" transform="translate(1213.8 2384.02) rotate(-100.46)"/>
        </g>
        <g>
          <rect class="cls-38" x="1271.92" y="773.45" width="64.76" height="96.34" transform="translate(167.95 1863.23) rotate(-74.72)"/>
          <rect class="cls-38" x="1288.69" y="748.53" width="20.67" height="60.57" transform="translate(958.77 2254.7) rotate(-107.96)"/>
          <rect class="cls-38" x="1267.33" y="826.46" width="20.74" height="60.78" transform="translate(2802.5 652.71) rotate(138.53)"/>
        </g>
        <g>
          <rect class="cls-35" x="1394.29" y="764.48" width="90.89" height="130.97" transform="translate(-124.18 267.97) rotate(-10.2)"/>
          <polygon class="cls-35" points="1509.38 837.63 1530.53 818.17 1472.46 758.64 1451.31 778.09 1509.38 837.63"/>
          <polygon class="cls-35" points="1375.6 861.83 1348.91 850.93 1382.71 774.63 1409.4 785.54 1375.6 861.83"/>
        </g>
        <g>
          <rect class="cls-35" x="1413.14" y="689.42" width="53.9" height="77.67" transform="translate(-173.11 685.93) rotate(-25.32)"/>
          <polygon class="cls-35" points="1481.14 721.87 1490.24 707.46 1447.78 682.36 1438.69 696.77 1481.14 721.87"/>
          <polygon class="cls-35" points="1408.31 756.43 1391.34 754.32 1398.88 705.41 1415.85 707.52 1408.31 756.43"/>
        </g>
      </g>
    </g>
  </g>
  <rect class="cls-39" x="1126.47" y="112.35" width="788.19" height="400.16"/>
  <rect class="cls-33" x="1123.87" y="105.07" width="790.79" height="14.55"/>
  <rect class="cls-33" x="1123.87" y="505.23" width="790.79" height="14.55"/>
  <rect class="cls-33" x="1123.87" y="312.43" width="790.79" height="14.55"/>
  <rect class="cls-2" x="86.58" y="746.26" width="785.76" height="370.12"/>
  <rect class="cls-5" x="84.06" y="745.25" width="790.79" height="14.55"/>
  <g>
    <rect class="cls-39" x="69.51" y="728.59" width="824.75" height="17.17"/>
    <rect class="cls-21" x="464.46" y="692.71" width="376.51" height="36.38"/>
    <rect class="cls-21" x="572.6" y="592.47" width="33.41" height="100.24"/>
    <rect class="cls-21" x="464.01" y="492.24" width="250.6" height="137.83" rx="13.2" ry="13.2"/>
    <rect class="cls-32" x="481.75" y="505.3" width="217.19" height="108.59"/>
    <rect class="cls-39" x="497.62" y="526.29" width="64.15" height="24.48"/>
    <rect class="cls-39" x="497.62" y="567.65" width="47.27" height="18.4"/>
    <rect class="cls-39" x="595.53" y="526.29" width="93.56" height="9.2"/>
    <rect class="cls-39" x="595.53" y="546.17" width="93.56" height="9.2"/>
    <rect class="cls-39" x="595.53" y="566.05" width="93.56" height="9.2"/>
    <rect class="cls-39" x="595.53" y="585.93" width="93.56" height="9.2"/>
    <g>
      <rect class="cls-36" x="779.74" y="647.14" width="9.81" height="45.57"/>
      <path class="cls-36" d="M808.45,653.29l-2.16,10.18c-1.08,5.12-7.51,6.85-11.02,2.97l-38.92-43.03c-2.9-3.2-1.86-8.3,2.06-10.11l15.81-7.31c2.92-1.35,6.39-.32,8.11,2.4l25.26,40.15c.89,1.41,1.19,3.11.85,4.74Z"/>
      <polygon class="cls-39" points="787.95 624.81 771.6 633.4 761.51 621.46 779.74 611.05 787.95 624.81"/>
      <rect class="cls-39" x="777.17" y="635.48" width="5.01" height="5.01" transform="translate(-225.29 567.51) rotate(-35.28)"/>
      <rect class="cls-39" x="782.11" y="631.98" width="5.01" height="5.01" transform="translate(-222.36 569.72) rotate(-35.28)"/>
      <rect class="cls-39" x="787.05" y="628.49" width="5.01" height="5.01" transform="translate(-219.44 571.93) rotate(-35.28)"/>
      <rect class="cls-39" x="782.11" y="641.37" width="5.01" height="5.01" transform="translate(-227.79 571.44) rotate(-35.28)"/>
      <rect class="cls-39" x="787.05" y="637.88" width="5.01" height="5.01" transform="translate(-224.86 573.65) rotate(-35.28)"/>
      <rect class="cls-39" x="791.99" y="634.39" width="5.01" height="5.01" transform="translate(-221.94 575.86) rotate(-35.28)"/>
      <rect class="cls-39" x="786.89" y="648.13" width="5.01" height="5.01" transform="translate(-230.81 575.45) rotate(-35.28)"/>
      <rect class="cls-39" x="791.83" y="644.64" width="5.01" height="5.01" transform="translate(-227.89 577.66) rotate(-35.28)"/>
      <rect class="cls-39" x="796.77" y="641.14" width="5.01" height="5.01" transform="translate(-224.96 579.87) rotate(-35.28)"/>
    </g>
  </g>
  <g>
    <path class="cls-3" d="M1273.48,499.96l-31.51-.64c-8.43,0-27.05-9.41-40.98-20.64l-17.01-51.06c0-8.43,6.83-15.27,15.27-15.27h115.21c8.43,0,15.27,6.83,15.27,15.27l-20.8,51.15c0,8.43-27.01,21.19-35.44,21.19Z"/>
    <rect class="cls-8" x="1220.51" y="438.87" width="72.66" height="7.07"/>
    <circle class="cls-8" cx="1216.15" cy="418.02" r="5.66"/>
    <circle class="cls-8" cx="1298.84" cy="418.02" r="5.66"/>
    <path class="cls-8" d="M1218.76,416.01c-1.97-10.21-.34-21.08,4.35-30.34,4.78-9.44,12.59-16.82,22.17-21.29s20.06-5.68,29.96-3.23c4.74,1.17,9.41,3.19,13.21,6.3,4.16,3.41,6.93,7.8,8.59,12.91,1.93,5.95,3.19,12.39,3.65,18.63.44,6.1-.12,12.33-3.28,17.69-1.64,2.78,2.68,5.3,4.32,2.52,6.39-10.82,4.15-24.35,1.33-35.92-1.48-6.07-3.82-11.9-8.09-16.56-3.81-4.16-8.77-7.11-14.02-9.05-21.86-8.09-47.92,2.27-60,21.7-6.99,11.24-9.49,25-6.98,37.98.26,1.33,1.85,2.08,3.08,1.75,1.39-.38,2-1.75,1.75-3.08h0Z"/>
  </g>
  <g>
    <path class="cls-9" d="M1273.48,309.79l-31.51-.64c-8.43,0-27.05-9.41-40.98-20.64l-17.01-51.06c0-8.43,6.83-15.27,15.27-15.27h115.21c8.43,0,15.27,6.83,15.27,15.27l-20.8,51.15c0,8.43-27.01,21.19-35.44,21.19Z"/>
    <rect class="cls-19" x="1220.51" y="248.7" width="72.66" height="7.07"/>
    <circle class="cls-19" cx="1216.15" cy="227.85" r="5.66"/>
    <circle class="cls-19" cx="1298.84" cy="227.85" r="5.66"/>
    <path class="cls-19" d="M1218.76,225.84c-1.97-10.21-.34-21.08,4.35-30.34s12.59-16.82,22.17-21.29,20.06-5.68,29.96-3.23c4.74,1.17,9.41,3.19,13.21,6.3,4.16,3.41,6.93,7.8,8.59,12.91,1.93,5.95,3.19,12.39,3.65,18.63s-.12,12.33-3.28,17.69c-1.64,2.78,2.68,5.3,4.32,2.52,6.39-10.82,4.15-24.35,1.33-35.92-1.48-6.07-3.82-11.9-8.09-16.56-3.81-4.16-8.77-7.11-14.02-9.05-21.86-8.09-47.92,2.27-60,21.7-6.99,11.24-9.49,25-6.98,37.98.26,1.33,1.85,2.08,3.08,1.75,1.39-.38,2-1.75,1.75-3.08h0Z"/>
  </g>
  <g>
    <path class="cls-34" d="M1782.82,309.79l-31.51-.64c-8.43,0-27.05-9.41-40.98-20.64l-17.01-51.06c0-8.43,6.83-15.27,15.27-15.27h115.21c8.43,0,15.27,6.83,15.27,15.27l-20.8,51.15c0,8.43-27.01,21.19-35.44,21.19Z"/>
    <rect class="cls-19" x="1729.86" y="248.7" width="72.66" height="7.07"/>
    <circle class="cls-19" cx="1725.49" cy="227.85" r="5.66"/>
    <circle class="cls-19" cx="1808.19" cy="227.85" r="5.66"/>
    <path class="cls-19" d="M1728.11,225.84c-1.97-10.21-.34-21.08,4.35-30.34,4.78-9.44,12.59-16.82,22.17-21.29,9.21-4.29,20.06-5.68,29.96-3.23,4.74,1.17,9.41,3.19,13.21,6.3,4.16,3.41,6.93,7.8,8.59,12.91,1.93,5.95,3.19,12.39,3.65,18.63s-.12,12.33-3.28,17.69c-1.64,2.78,2.68,5.3,4.32,2.52,6.39-10.82,4.15-24.35,1.33-35.92-1.48-6.07-3.82-11.9-8.09-16.56-3.81-4.16-8.77-7.11-14.02-9.05-21.86-8.09-47.92,2.27-60,21.7-6.99,11.24-9.49,25-6.98,37.98.26,1.33,1.85,2.08,3.08,1.75,1.39-.38,2-1.75,1.75-3.08h0Z"/>
  </g>
  <g>
    <rect class="cls-18" x="1430.56" y="288.67" width="177.42" height="21.93" rx="10.96" ry="10.96"/>
    <rect class="cls-1" x="1430.56" y="266.24" width="177.42" height="21.93" rx="10.96" ry="10.96"/>
    <rect class="cls-31" x="1430.56" y="243.81" width="177.42" height="21.93" rx="10.96" ry="10.96"/>
    <rect class="cls-11" x="1430.56" y="221.39" width="177.42" height="21.93" rx="10.96" ry="10.96"/>
  </g>
  <rect class="cls-17" x="1430.56" y="479.64" width="177.42" height="21.93" rx="10.96" ry="10.96"/>
  <rect class="cls-16" x="1430.56" y="457.21" width="177.42" height="21.93" rx="10.96" ry="10.96"/>
  <rect class="cls-23" x="1430.56" y="434.78" width="177.42" height="21.93" rx="10.96" ry="10.96"/>
  <rect class="cls-24" x="1430.56" y="412.36" width="177.42" height="21.93" rx="10.96" ry="10.96"/>
  <rect class="cls-42" x="1693.32" y="479.88" width="177.42" height="21.93" rx="10.96" ry="10.96"/>
  <rect class="cls-20" x="1693.32" y="457.46" width="177.42" height="21.93" rx="10.96" ry="10.96"/>
  <rect class="cls-29" x="1693.32" y="435.03" width="177.42" height="21.93" rx="10.96" ry="10.96"/>
  <rect class="cls-43" x="1693.32" y="412.6" width="177.42" height="21.93" rx="10.96" ry="10.96"/>
  <rect class="cls-10" x="1431.86" y="390.68" width="177.42" height="21.93" rx="10.96" ry="10.96"/>
</svg>